{"glyphs":{"0":{"ha":901,"x_min":38,"x_max":872,"o":"m 51 503 q 38 350 38 425 q 117 95 38 186 q 367 4 197 4 q 696 139 574 4 q 858 503 818 274 q 872 653 872 578 q 792 908 872 817 q 542 1000 711 1000 q 213 866 335 1000 q 51 503 92 732 m 589 503 q 531 324 568 386 q 413 263 493 263 q 331 295 356 263 q 307 389 307 328 q 319 503 307 428 q 378 680 340 618 q 497 742 415 742 q 578 709 554 742 q 601 615 601 676 q 589 503 601 575 z "},"1":{"ha":524,"x_min":57,"x_max":535,"o":"m 57 726 l 101 983 l 535 983 l 363 0 l 76 0 l 204 726 l 57 726 z "},"2":{"ha":785,"x_min":-33,"x_max":793,"o":"m 3 217 q 354 474 219 357 q 506 683 489 590 q 508 711 508 703 q 444 778 508 778 q 380 747 404 778 q 342 640 356 715 l 78 640 q 160 848 97 765 q 311 969 224 931 q 496 1007 399 1007 q 721 940 649 1007 q 793 764 793 872 q 788 697 793 726 q 643 444 764 565 q 363 233 522 322 l 715 233 l 676 13 l -33 13 l 3 217 z "},"3":{"ha":803,"x_min":18,"x_max":800,"o":"m 507 1032 q 724 965 649 1032 q 800 792 800 899 q 796 739 800 767 q 721 595 779 649 q 594 526 663 542 l 593 521 q 697 444 658 496 q 736 313 736 392 q 729 247 736 286 q 611 60 708 131 q 357 -10 514 -10 q 106 63 193 -10 q 18 282 18 136 q 21 338 18 299 l 286 338 q 282 300 282 317 q 372 217 282 217 q 435 237 408 217 q 467 290 461 257 q 469 318 469 310 q 342 404 469 404 l 294 404 l 333 625 l 381 625 q 474 643 435 625 q 524 718 514 661 q 525 740 525 726 q 508 789 525 772 q 461 806 490 806 q 396 776 422 806 q 361 700 369 746 l 96 700 q 234 947 128 861 q 507 1032 340 1032 z "},"4":{"ha":915,"x_min":8,"x_max":883,"o":"m 8 167 l 49 394 l 585 997 l 879 997 l 775 403 l 883 403 l 842 167 l 733 167 l 704 0 l 429 0 l 457 167 l 8 167 m 571 685 l 325 403 l 521 403 l 571 685 z "},"5":{"ha":832,"x_min":50,"x_max":850,"o":"m 807 771 l 385 771 l 357 613 q 442 658 392 642 q 549 675 492 675 q 730 606 669 675 q 790 426 790 538 q 782 344 790 386 q 647 91 754 183 q 376 -1 539 -1 q 135 69 221 -1 q 50 257 50 139 q 56 318 50 290 l 322 318 q 338 258 318 283 q 404 233 358 233 q 481 265 451 233 q 519 350 510 296 q 522 379 522 369 q 500 440 522 418 q 438 461 478 461 q 375 444 401 461 q 339 401 349 426 l 74 401 l 181 1011 l 850 1011 l 807 771 z "},"6":{"ha":846,"x_min":54,"x_max":822,"o":"m 564 710 q 546 785 564 760 q 483 810 528 810 q 382 746 418 810 q 324 549 346 682 q 413 624 356 596 q 539 651 471 651 q 720 588 654 651 q 786 406 786 524 q 778 317 786 365 q 649 79 753 168 q 390 -10 546 -10 q 54 344 54 -10 q 71 521 54 428 q 226 906 118 785 q 526 1028 333 1028 q 751 951 681 1028 q 822 754 822 874 q 819 710 822 740 l 564 710 m 303 310 q 327 247 303 269 q 397 225 351 225 q 491 258 456 225 q 526 351 526 290 q 501 418 526 394 q 435 442 476 442 q 341 408 379 442 q 303 310 303 374 z "},"7":{"ha":690,"x_min":-26,"x_max":774,"o":"m 739 793 l 254 0 l -26 0 l 456 760 l 69 760 l 110 993 l 774 993 l 739 793 z "},"8":{"ha":867,"x_min":25,"x_max":858,"o":"m 133 778 q 197 905 146 844 q 338 1003 249 965 q 543 1042 426 1042 q 719 1008 647 1042 q 824 918 790 974 q 858 796 858 863 q 854 750 858 774 q 799 632 842 682 q 688 551 756 582 q 814 340 814 479 q 807 272 814 311 q 660 57 782 132 q 356 -18 539 -18 q 118 53 211 -18 q 25 251 25 124 q 32 318 25 279 q 226 551 61 476 q 129 724 129 603 q 133 778 129 749 m 394 719 q 392 692 392 700 q 413 637 392 656 q 468 618 433 618 q 540 643 510 618 q 579 717 569 668 q 581 739 581 725 q 560 799 581 776 q 504 821 539 821 q 432 794 463 821 q 394 719 401 767 m 294 297 q 321 231 294 256 q 396 206 347 206 q 498 244 458 206 q 538 343 538 283 q 510 410 538 386 q 436 435 482 435 q 335 397 376 435 q 294 297 294 358 z "},"9":{"ha":796,"x_min":32,"x_max":806,"o":"m 290 308 q 372 208 290 208 q 474 272 438 208 q 532 469 510 336 q 442 394 500 422 q 317 367 385 367 q 135 431 201 367 q 68 614 68 494 q 76 701 68 656 q 209 939 101 850 q 478 1028 317 1028 q 730 942 654 1028 q 806 697 806 856 q 785 497 806 618 q 706 217 756 326 q 570 49 657 108 q 346 -10 483 -10 q 163 36 233 -10 q 62 155 92 82 q 36 308 32 228 l 290 308 m 553 710 q 528 772 553 750 q 458 793 504 793 q 375 766 408 793 q 332 685 342 739 q 329 657 329 665 q 353 597 329 618 q 421 576 378 576 q 515 612 476 576 q 553 710 553 647 z "},"\u0000":{"ha":0,"x_min":0,"x_max":0,"o":""},"\r":{"ha":257,"x_min":0,"x_max":0,"o":""}," ":{"ha":257,"x_min":0,"x_max":0,"o":""},"अ":{"ha":1168,"x_min":47,"x_max":1278,"o":"m 1278 1028 l 1243 819 l 1121 819 l 976 0 l 726 0 l 786 336 l 668 336 q 551 153 642 221 q 333 85 460 85 q 124 149 201 85 q 47 324 47 214 q 53 382 47 354 l 286 382 q 285 365 285 376 q 303 317 285 336 q 356 299 322 299 q 424 327 397 299 q 451 399 451 356 q 428 452 451 432 q 357 472 404 472 l 292 472 l 328 672 l 393 672 q 476 699 443 672 q 508 769 508 725 q 492 813 508 797 q 447 829 475 829 q 389 808 414 829 q 357 756 364 788 l 128 756 q 191 903 142 839 q 316 1004 240 968 q 483 1040 392 1040 q 671 986 604 1040 q 738 836 738 932 q 733 786 738 814 q 676 659 721 713 q 560 581 631 606 l 558 575 q 619 543 593 565 l 822 543 l 907 1028 l 1278 1028 z "},"आ":{"ha":1622,"x_min":47,"x_max":1732,"o":"m 1278 1028 l 1243 819 l 1121 819 l 976 0 l 726 0 l 786 336 l 668 336 q 551 153 642 221 q 333 85 460 85 q 124 149 201 85 q 47 324 47 214 q 53 382 47 354 l 286 382 q 285 365 285 376 q 303 317 285 336 q 356 299 322 299 q 424 327 397 299 q 451 399 451 356 q 428 452 451 432 q 357 472 404 472 l 292 472 l 328 672 l 393 672 q 476 699 443 672 q 508 769 508 725 q 492 813 508 797 q 447 829 475 829 q 389 808 414 829 q 357 756 364 788 l 128 756 q 191 903 142 839 q 316 1004 240 968 q 483 1040 392 1040 q 671 986 604 1040 q 738 836 738 932 q 733 786 738 814 q 676 659 721 713 q 560 581 631 606 l 558 575 q 619 543 593 565 l 822 543 l 907 1028 l 1278 1028 m 1324 819 l 1201 819 l 1239 1028 l 1732 1028 l 1694 819 l 1575 819 l 1431 0 l 1181 0 l 1324 819 z "},"इ":{"ha":814,"x_min":6,"x_max":926,"o":"m 411 561 q 362 550 382 561 q 336 514 342 539 q 347 478 332 490 q 392 467 361 467 l 451 467 q 628 416 557 467 q 699 260 699 365 q 693 201 699 229 q 601 34 675 96 q 417 -28 528 -28 q 326 -11 364 -28 q 268 26 289 6 l 243 -121 l 6 -121 l 68 238 l 293 238 l 292 224 q 313 174 292 192 q 371 157 333 157 q 435 179 411 157 q 460 236 460 201 q 372 292 460 292 q 282 293 317 292 q 142 344 201 297 q 83 478 83 392 q 88 524 83 501 q 185 686 106 633 q 379 739 265 739 l 461 739 l 475 819 l 42 819 l 78 1028 l 926 1028 l 890 819 l 718 819 l 696 690 l 672 561 l 411 561 z "},"ई":{"ha":803,"x_min":6,"x_max":1118,"o":"m 888 1124 q 893 1164 893 1144 q 881 1204 893 1190 q 846 1218 868 1218 q 793 1193 813 1218 q 764 1117 774 1168 l 750 1028 l 929 1028 l 892 819 l 721 819 l 697 690 l 696 690 l 672 561 l 411 561 q 357 547 379 561 q 335 504 335 533 q 350 476 335 486 q 392 467 365 467 l 451 467 q 628 416 557 467 q 699 260 699 365 q 693 201 699 229 q 601 34 675 96 q 417 -28 528 -28 q 326 -11 364 -28 q 268 26 289 6 l 243 -121 l 6 -121 l 68 238 l 293 238 l 292 224 q 313 174 292 192 q 371 157 333 157 q 435 179 411 157 q 460 235 460 201 q 372 292 460 292 q 282 293 317 292 q 142 346 201 299 q 83 481 83 393 q 88 524 83 501 q 185 686 106 633 q 379 739 265 739 l 463 739 l 478 819 l 43 819 l 81 1028 l 518 1028 l 533 1113 q 639 1334 557 1243 q 878 1425 721 1425 q 1056 1369 994 1425 q 1118 1214 1118 1314 q 1107 1124 1118 1175 l 888 1124 z "},"उ":{"ha":781,"x_min":13,"x_max":890,"o":"m 854 818 l 746 818 l 735 756 q 678 619 721 672 q 581 551 636 565 l 579 547 q 663 480 632 529 q 694 361 694 431 q 690 308 694 336 q 565 90 665 172 q 315 7 465 7 q 94 75 175 7 q 13 265 13 143 q 19 336 13 294 l 258 336 q 256 311 256 319 q 279 252 256 275 q 342 229 303 229 q 425 264 392 229 q 458 351 458 299 q 436 412 458 389 q 368 435 414 435 l 278 435 l 317 653 l 369 653 q 451 681 417 653 q 497 767 486 708 l 506 818 l 33 818 l 71 1028 l 890 1028 l 854 818 z "},"ऊ":{"ha":1176,"x_min":13,"x_max":1286,"o":"m 735 756 q 678 619 721 672 q 581 551 636 565 l 579 547 l 814 547 q 1024 494 949 547 q 1099 333 1099 440 q 1093 275 1099 303 q 991 93 1072 163 q 783 24 910 24 q 699 32 744 24 l 732 219 l 774 219 q 827 236 806 219 q 854 283 849 253 q 856 296 856 288 q 837 336 856 322 q 783 350 818 350 l 689 350 q 685 294 690 333 q 619 147 669 213 q 491 44 569 82 q 315 7 413 7 q 94 75 175 7 q 13 265 13 143 q 19 336 13 294 l 258 336 q 256 311 256 319 q 279 252 256 275 q 342 229 303 229 q 425 264 392 229 q 458 351 458 299 q 436 412 458 389 q 368 435 414 435 l 278 435 l 317 653 l 369 653 q 451 681 417 653 q 497 767 486 708 l 507 819 l 33 819 l 71 1028 l 1286 1028 l 1250 819 l 746 819 l 735 756 z "},"ऋ":{"ha":1474,"x_min":21,"x_max":1583,"o":"m 938 819 l 904 632 l 1092 632 q 1181 699 1171 632 l 1188 733 l 1189 739 l 1403 739 l 1318 256 l 1278 256 q 1190 228 1221 256 q 1160 156 1160 200 q 1188 107 1160 122 q 1261 92 1215 92 q 1342 103 1294 92 l 1308 -96 q 1193 -107 1239 -107 q 988 -51 1064 -107 q 913 104 913 4 q 917 150 913 125 q 987 296 932 236 q 1125 383 1042 356 l 1138 453 q 1018 435 1082 435 l 869 435 l 793 0 l 563 0 l 597 194 l 342 0 l 21 0 l 22 11 l 632 429 q 588 490 619 468 q 506 513 556 513 q 370 464 424 513 q 303 338 317 415 l 53 338 q 128 538 72 450 q 272 674 185 625 q 467 724 358 724 q 675 638 608 724 l 707 819 l 35 819 l 71 1028 l 1583 1028 l 1549 819 l 938 819 z "},"ॠ":{"ha":1478,"x_min":21,"x_max":1588,"o":"m 936 819 l 903 632 l 1090 632 q 1181 699 1171 632 l 1188 733 l 1189 739 l 1403 739 l 1317 250 l 1268 250 q 1201 238 1226 250 q 1169 193 1175 225 q 1187 150 1164 163 q 1250 138 1210 138 l 1333 138 l 1301 -47 l 1231 -47 q 1153 -60 1183 -47 q 1115 -108 1122 -74 q 1211 -168 1104 -168 q 1294 -161 1251 -168 q 1358 -147 1336 -154 l 1326 -332 q 1238 -353 1290 -346 q 1139 -361 1186 -361 q 945 -316 1024 -361 q 867 -176 867 -271 q 917 -38 867 -99 q 1043 39 968 22 l 1044 44 q 960 87 992 56 q 929 171 929 118 q 932 206 929 193 q 999 322 946 279 q 1124 376 1053 364 l 1138 453 q 1017 435 1079 435 l 869 435 l 793 0 l 563 0 l 596 194 l 340 0 l 21 0 l 22 11 l 632 429 q 588 490 621 468 q 506 513 554 513 q 370 464 424 513 q 303 338 317 415 l 53 338 q 128 538 72 451 q 272 674 185 625 q 467 724 358 724 q 674 638 607 724 l 706 819 l 33 819 l 71 1028 l 1588 1028 l 1550 819 l 936 819 z "},"ऌ":{"ha":1260,"x_min":24,"x_max":1360,"o":"m 1058 819 l 1038 701 q 1134 614 1099 672 q 1169 468 1169 556 q 1163 389 1169 438 q 1115 250 1150 311 l 1107 250 q 999 228 1033 250 q 957 164 964 206 l 956 153 q 986 104 956 121 q 1065 88 1017 88 q 1147 96 1114 88 l 1111 -103 q 997 -111 1053 -111 q 790 -56 867 -111 q 714 100 714 -1 q 718 151 714 125 q 784 285 731 228 q 910 369 838 342 l 914 390 q 917 421 917 413 q 896 485 917 461 q 835 508 875 508 q 747 469 779 508 q 706 372 715 429 l 697 328 l 490 328 l 499 372 q 501 410 501 397 q 481 481 501 454 q 417 508 461 508 q 332 475 365 508 q 288 385 299 442 q 283 347 283 364 q 311 274 283 297 q 389 250 339 250 q 426 251 411 250 l 389 35 q 339 33 365 33 q 107 106 188 33 q 26 307 26 178 q 33 389 26 353 q 112 578 53 501 q 251 691 171 654 q 418 728 331 728 q 560 688 508 728 q 632 582 613 649 l 638 582 q 705 658 664 625 q 796 708 746 692 l 817 819 l 24 819 l 61 1028 l 1360 1028 l 1324 819 l 1058 819 z "},"ॡ":{"ha":1276,"x_min":25,"x_max":1375,"o":"m 1058 819 l 1038 701 q 1135 616 1099 674 q 1171 474 1171 558 q 1163 389 1171 435 q 1117 250 1151 319 l 1078 250 q 978 193 988 250 q 996 151 972 164 q 1058 138 1019 138 l 1143 138 l 1111 -47 l 1040 -47 q 961 -60 992 -47 q 924 -108 931 -74 q 1021 -168 913 -168 q 1103 -161 1061 -168 q 1168 -147 1146 -154 l 1136 -332 q 1048 -353 1100 -346 q 949 -361 996 -361 q 755 -316 833 -361 q 676 -176 676 -271 q 727 -38 676 -99 q 853 39 778 22 l 854 44 q 770 87 801 56 q 739 171 739 118 q 788 301 739 253 q 910 371 836 350 l 914 390 q 917 421 917 413 q 896 485 917 461 q 835 508 875 508 q 747 469 779 508 q 704 372 714 429 l 697 328 l 490 328 l 497 372 q 500 410 500 397 q 417 508 500 508 q 331 475 365 508 q 286 385 297 442 q 283 347 283 371 q 389 250 283 250 q 425 251 411 250 l 388 35 q 339 33 365 33 q 107 106 188 33 q 26 307 26 178 q 33 389 26 353 q 111 578 53 501 q 249 691 169 654 q 417 728 329 728 q 560 688 507 728 q 632 582 613 649 l 638 582 q 796 708 699 675 l 815 819 l 25 819 l 61 1028 l 1375 1028 l 1338 819 l 1058 819 z "},"ए":{"ha":906,"x_min":32,"x_max":1015,"o":"m 978 819 l 868 819 l 851 726 q 751 501 825 579 q 539 422 676 422 q 457 429 506 422 l 497 653 q 524 650 517 650 q 610 732 594 650 l 625 819 l 407 819 l 326 363 q 324 331 324 340 q 348 263 324 286 q 411 239 372 239 q 487 265 456 239 q 526 339 518 292 l 772 339 q 647 108 747 190 q 393 26 546 26 q 156 101 240 26 q 72 300 72 175 q 79 372 72 331 l 157 819 l 32 819 l 69 1028 l 1015 1028 l 978 819 z "},"ऐ":{"ha":907,"x_min":33,"x_max":1017,"o":"m 979 819 l 869 819 l 853 726 q 752 501 826 579 q 540 422 678 422 q 458 429 507 422 l 499 653 q 525 650 518 650 q 611 732 596 650 l 626 819 l 408 819 l 328 363 q 325 331 325 340 q 349 263 325 286 q 413 239 374 239 q 488 265 457 239 q 528 339 519 292 l 774 339 q 648 108 749 190 q 394 26 547 26 q 158 101 242 26 q 74 300 74 175 q 81 372 74 331 l 158 819 l 33 819 l 71 1028 l 658 1028 q 596 1139 621 1106 q 538 1184 571 1172 q 444 1196 506 1196 l 367 1196 l 403 1397 l 476 1397 q 662 1371 596 1396 q 779 1269 728 1346 q 892 1028 831 1193 l 1017 1028 l 979 819 z "},"ओ":{"ha":1622,"x_min":47,"x_max":1732,"o":"m 1278 1028 l 1243 819 l 1121 819 l 976 0 l 726 0 l 786 336 l 668 336 q 551 153 642 221 q 333 85 460 85 q 124 149 201 85 q 47 324 47 214 q 53 382 47 354 l 286 382 q 285 365 285 376 q 303 317 285 336 q 356 299 322 299 q 424 327 397 299 q 451 399 451 356 q 428 452 451 432 q 357 472 404 472 l 292 472 l 328 672 l 393 672 q 476 699 443 672 q 508 769 508 725 q 492 813 508 797 q 447 829 475 829 q 389 808 414 829 q 357 756 364 788 l 128 756 q 191 903 142 839 q 316 1004 240 968 q 483 1040 392 1040 q 671 986 604 1040 q 738 836 738 932 q 733 786 738 814 q 676 659 721 713 q 560 581 631 606 l 558 575 q 619 543 593 565 l 822 543 l 907 1028 l 1278 1028 m 1324 819 l 1201 819 l 1239 1028 l 1732 1028 l 1694 819 l 1575 819 l 1431 0 l 1181 0 l 1324 819 m 1382 1021 q 1318 1136 1343 1101 q 1260 1183 1293 1171 q 1165 1196 1228 1196 l 1089 1196 l 1124 1397 l 1197 1397 q 1384 1371 1318 1396 q 1502 1268 1450 1346 q 1617 1021 1554 1190 l 1382 1021 z "},"औ":{"ha":1622,"x_min":47,"x_max":1732,"o":"m 1278 1028 l 1243 819 l 1121 819 l 976 0 l 726 0 l 786 336 l 668 336 q 551 153 642 221 q 333 85 460 85 q 124 149 201 85 q 47 324 47 214 q 53 382 47 354 l 286 382 q 285 365 285 376 q 303 317 285 336 q 356 299 322 299 q 424 327 397 299 q 451 399 451 356 q 428 452 451 432 q 357 472 404 472 l 292 472 l 328 672 l 393 672 q 476 699 443 672 q 508 769 508 725 q 492 813 508 797 q 447 829 475 829 q 389 808 414 829 q 357 756 364 788 l 128 756 q 191 903 142 839 q 316 1004 240 968 q 483 1040 392 1040 q 671 986 604 1040 q 738 836 738 932 q 733 786 738 814 q 676 659 721 713 q 560 581 631 606 l 558 575 q 619 543 593 565 l 822 543 l 907 1028 l 1278 1028 m 1324 819 l 1201 819 l 1239 1028 l 1732 1028 l 1694 819 l 1575 819 l 1431 0 l 1181 0 l 1324 819 m 1194 1501 q 1373 1476 1317 1501 q 1478 1356 1429 1450 q 1608 1024 1526 1263 l 1394 1024 l 1358 1047 q 1281 1093 1304 1082 q 1230 1107 1258 1104 q 1126 1110 1201 1110 l 1047 1110 l 1074 1265 l 1147 1265 q 1255 1263 1221 1265 q 1319 1246 1289 1260 q 1386 1199 1349 1232 q 1324 1299 1356 1268 q 1261 1338 1293 1331 q 1174 1346 1229 1346 l 1089 1346 l 1117 1501 l 1194 1501 z "},"ऍ":{"ha":907,"x_min":-6,"x_max":978,"o":"m 525 1131 q 298 1194 372 1131 q 224 1368 224 1257 q 231 1439 224 1397 l 446 1439 q 443 1407 443 1428 q 471 1339 443 1364 q 557 1314 499 1314 q 664 1348 625 1314 q 713 1439 703 1382 l 928 1439 q 800 1213 901 1296 q 525 1131 699 1131 m 940 819 l 831 819 l 814 726 q 713 501 788 579 q 501 422 639 422 q 419 429 468 422 l 460 653 q 486 650 479 650 q 572 732 557 650 l 588 819 l 369 819 l 289 363 q 286 331 286 340 q 310 263 286 286 q 374 239 335 239 q 449 265 418 239 q 489 339 481 292 l 735 339 q 609 108 710 190 q 356 26 508 26 q 119 101 203 26 q 35 300 35 175 q 42 372 35 331 l 119 819 l -6 819 l 32 1028 l 978 1028 l 940 819 z "},"ॲ":{"ha":1168,"x_min":47,"x_max":1481,"o":"m 1278 1028 l 1243 819 l 1121 819 l 976 0 l 726 0 l 786 336 l 668 336 q 551 153 642 221 q 333 85 460 85 q 124 149 201 85 q 47 324 47 214 q 53 382 47 354 l 286 382 q 285 365 285 376 q 303 317 285 336 q 356 299 322 299 q 424 327 397 299 q 451 399 451 356 q 428 452 451 432 q 357 472 404 472 l 292 472 l 328 672 l 393 672 q 476 699 443 672 q 508 769 508 725 q 492 813 508 797 q 447 829 475 829 q 389 808 414 829 q 357 756 364 788 l 128 756 q 191 903 142 839 q 316 1004 240 968 q 483 1040 392 1040 q 671 986 604 1040 q 738 836 738 932 q 733 786 738 814 q 676 659 721 713 q 560 581 631 606 l 558 575 q 619 543 593 565 l 822 543 l 907 1028 l 1278 1028 m 1089 1138 q 857 1201 936 1138 q 778 1376 778 1265 q 785 1446 778 1407 l 999 1446 q 996 1417 996 1426 q 1024 1347 996 1372 q 1110 1322 1051 1322 q 1217 1356 1178 1322 q 1267 1446 1257 1390 l 1481 1446 q 1360 1219 1457 1301 q 1089 1138 1263 1138 z "},"ऑ":{"ha":1622,"x_min":47,"x_max":1732,"o":"m 1278 1028 l 1243 819 l 1121 819 l 976 0 l 726 0 l 786 336 l 668 336 q 551 153 642 221 q 333 85 460 85 q 124 149 201 85 q 47 324 47 214 q 53 382 47 354 l 286 382 q 285 365 285 376 q 303 317 285 336 q 356 299 322 299 q 424 327 397 299 q 451 399 451 356 q 428 452 451 432 q 357 472 404 472 l 292 472 l 328 672 l 393 672 q 476 699 443 672 q 508 769 508 725 q 492 813 508 797 q 447 829 475 829 q 389 808 414 829 q 357 756 364 788 l 128 756 q 191 903 142 839 q 316 1004 240 968 q 483 1040 392 1040 q 671 986 604 1040 q 738 836 738 932 q 733 786 738 814 q 676 659 721 713 q 560 581 631 606 l 558 575 q 619 543 593 565 l 822 543 l 907 1028 l 1278 1028 m 1324 819 l 1201 819 l 1239 1028 l 1732 1028 l 1694 819 l 1575 819 l 1431 0 l 1181 0 l 1324 819 m 1308 1131 q 1076 1194 1156 1131 q 997 1369 997 1258 q 1004 1439 997 1400 l 1218 1439 q 1215 1410 1215 1419 q 1243 1340 1215 1365 q 1329 1315 1271 1315 q 1437 1349 1397 1315 q 1486 1439 1476 1383 l 1700 1439 q 1579 1213 1676 1294 q 1308 1131 1482 1131 z "},"ा":{"ha":454,"x_min":13,"x_max":564,"o":"m 156 819 l 33 819 l 71 1028 l 564 1028 l 526 819 l 407 819 l 263 0 l 13 0 l 156 819 z "},"ि":{"ha":454,"x_min":11,"x_max":1381,"o":"m 860 1447 q 1142 1399 1025 1447 q 1320 1265 1260 1350 q 1381 1069 1381 1179 q 1375 999 1381 1032 l 1371 974 l 1121 974 l 1124 993 q 1126 1031 1126 1018 q 1042 1188 1126 1132 q 825 1244 958 1244 q 576 1188 683 1244 q 442 1028 469 1132 l 564 1028 l 526 819 l 407 819 l 261 0 l 11 0 l 156 819 l 33 819 l 71 1028 l 193 1028 q 313 1245 224 1150 q 542 1394 401 1340 q 860 1447 682 1447 z "},"ी":{"ha":454,"x_min":-272,"x_max":565,"o":"m 565 1028 l 528 819 l 408 819 l 263 0 l 13 0 l 157 819 l 35 819 l 72 1028 l 201 1028 l 210 1078 q 215 1139 215 1114 q 131 1236 215 1236 q 34 1190 64 1236 q -10 1078 4 1144 l -28 974 l -272 974 l -256 1067 q -122 1346 -225 1244 q 168 1447 -19 1447 q 461 1178 461 1447 q 451 1067 461 1121 l 444 1028 l 565 1028 z "},"ु":{"ha":0,"x_min":-796,"x_max":-106,"o":"m -464 -489 q -699 -426 -603 -489 q -796 -229 -796 -362 q -789 -157 -796 -190 l -567 -157 q -571 -196 -571 -178 q -537 -271 -571 -247 q -447 -294 -504 -294 q -362 -273 -396 -294 q -322 -211 -329 -251 q -321 -197 -321 -206 q -343 -147 -321 -165 q -411 -128 -365 -128 l -465 -128 l -431 67 l -376 67 q -177 5 -249 67 q -106 -168 -106 -57 q -108 -214 -106 -183 q -221 -415 -124 -340 q -464 -489 -318 -489 z "},"ू":{"ha":0,"x_min":-679,"x_max":0,"o":"m -428 -467 q -551 -443 -494 -467 q -644 -372 -608 -419 q -679 -256 -679 -324 q -674 -203 -679 -239 q -560 -10 -653 -78 q -329 57 -467 57 q -81 -37 -161 57 q 0 -276 0 -131 q -8 -369 0 -322 q -28 -458 -15 -406 l -231 -458 l -212 -361 q -206 -290 -206 -319 q -242 -172 -206 -215 q -351 -128 -278 -128 q -432 -149 -397 -128 q -475 -211 -467 -169 q -476 -225 -476 -217 q -453 -272 -476 -257 q -393 -287 -429 -287 l -358 -287 l -390 -465 l -428 -467 z "},"ृ":{"ha":0,"x_min":-639,"x_max":-164,"o":"m -362 -478 q -494 -452 -431 -478 q -598 -374 -557 -426 q -639 -244 -639 -321 q -633 -190 -639 -229 q -517 -5 -612 -71 q -272 61 -422 61 q -182 58 -210 61 l -211 -110 l -279 -110 q -362 -135 -332 -110 q -392 -204 -392 -160 q -362 -260 -392 -240 q -286 -279 -332 -279 q -164 -261 -229 -279 l -197 -454 q -362 -478 -278 -478 z "},"ॄ":{"ha":0,"x_min":-631,"x_max":-137,"o":"m -357 -683 q -552 -639 -474 -683 q -631 -501 -631 -594 q -626 -458 -631 -482 q -567 -347 -614 -393 q -451 -285 -519 -300 l -451 -281 q -568 -151 -568 -253 q -565 -118 -568 -143 q -470 18 -549 -25 q -303 61 -392 61 l -182 61 l -204 -74 l -226 -74 q -294 -86 -268 -74 q -326 -131 -321 -99 q -309 -174 -332 -161 q -246 -186 -286 -186 l -162 -186 l -194 -371 l -264 -371 q -344 -383 -312 -371 q -382 -432 -375 -396 q -285 -492 -392 -492 q -137 -471 -221 -492 l -171 -656 q -258 -676 -206 -668 q -357 -683 -310 -683 z "},"ॢ":{"ha":0,"x_min":-804,"x_max":71,"o":"m 22 -394 q -61 -410 -35 -394 q -93 -458 -87 -426 q -76 -500 -99 -485 q -14 -515 -53 -515 q 50 -508 22 -515 l 22 -662 q -67 -669 -26 -669 q -225 -626 -167 -669 q -283 -507 -283 -583 q -240 -381 -283 -436 q -133 -301 -197 -325 l -132 -290 q -129 -265 -129 -274 q -144 -218 -129 -236 q -189 -200 -160 -200 q -253 -229 -229 -200 q -285 -301 -276 -258 l -292 -335 l -451 -335 l -446 -301 q -443 -271 -443 -282 q -458 -219 -443 -239 q -504 -200 -472 -200 q -577 -232 -550 -200 q -604 -317 -604 -264 q -526 -393 -604 -393 q -499 -390 -508 -393 l -529 -558 q -565 -560 -544 -560 q -742 -504 -681 -560 q -804 -350 -804 -449 q -799 -290 -804 -318 q -740 -146 -785 -204 q -633 -60 -694 -87 q -504 -32 -571 -32 q -398 -61 -437 -32 q -343 -140 -358 -90 l -339 -140 q -253 -62 -307 -92 q -129 -32 -199 -32 q 14 -82 -43 -32 q 71 -228 71 -132 q 65 -290 71 -261 q 31 -394 54 -349 l 22 -394 z "},"ॣ":{"ha":0,"x_min":-803,"x_max":72,"o":"m -3 -394 q -78 -436 -71 -394 q -14 -478 -83 -478 l 47 -478 l 22 -619 l -31 -619 q -92 -629 -69 -619 q -119 -667 -115 -639 q -46 -710 -128 -710 q 65 -694 -1 -710 l 39 -836 q -27 -851 13 -846 q -103 -857 -67 -857 q -250 -824 -192 -857 q -308 -719 -308 -790 q -271 -611 -308 -657 q -175 -554 -233 -565 l -175 -551 q -237 -517 -214 -542 q -261 -451 -261 -492 q -224 -350 -261 -387 q -132 -299 -187 -312 l -131 -290 q -128 -267 -128 -274 q -144 -218 -128 -236 q -189 -200 -160 -200 q -252 -229 -229 -200 q -283 -301 -275 -258 l -290 -335 l -450 -335 l -444 -301 q -442 -272 -442 -282 q -457 -220 -442 -240 q -504 -200 -472 -200 q -576 -232 -549 -200 q -604 -317 -604 -264 q -525 -393 -604 -393 q -499 -390 -507 -393 l -528 -558 q -564 -560 -543 -560 q -741 -504 -679 -560 q -803 -351 -803 -449 q -797 -290 -803 -318 q -690 -97 -774 -162 q -504 -32 -607 -32 q -397 -61 -437 -32 q -342 -140 -357 -90 l -337 -140 q -253 -62 -307 -92 q -129 -32 -199 -32 q 15 -82 -43 -32 q 72 -229 72 -132 q 67 -290 72 -261 q 31 -394 57 -344 l -3 -394 z "},"े":{"ha":0,"x_min":-542,"x_max":-14,"o":"m -249 1021 q -312 1136 -287 1101 q -370 1183 -337 1171 q -465 1196 -403 1196 l -542 1196 l -507 1397 l -433 1397 q -247 1371 -312 1396 q -128 1268 -181 1346 q -14 1021 -76 1190 l -249 1021 z "},"ै":{"ha":0,"x_min":-585,"x_max":-24,"o":"m -437 1501 q -259 1476 -315 1501 q -154 1356 -203 1450 q -24 1024 -106 1263 l -237 1024 l -274 1047 q -351 1093 -328 1082 q -402 1107 -374 1104 q -506 1110 -431 1110 l -585 1110 l -558 1265 l -485 1265 q -377 1263 -411 1265 q -313 1246 -343 1260 q -246 1199 -283 1232 q -308 1299 -276 1268 q -371 1338 -339 1331 q -458 1346 -403 1346 l -543 1346 l -515 1501 l -437 1501 z "},"ो":{"ha":456,"x_min":-86,"x_max":565,"o":"m 565 1028 l 528 819 l 408 819 l 264 0 l 13 0 l 157 819 l 35 819 l 72 1028 l 204 1028 q 142 1138 168 1104 q 84 1184 117 1172 q -10 1196 51 1196 l -86 1196 l -51 1397 l 22 1397 q 208 1371 143 1396 q 325 1269 274 1346 q 439 1028 376 1193 l 565 1028 z "},"ौ":{"ha":454,"x_min":-172,"x_max":522,"o":"m 522 1028 l 485 819 l 365 819 l 221 0 l -31 0 l 114 819 l -8 819 l 29 1028 l 168 1028 l 138 1047 q 62 1093 85 1082 q 10 1107 39 1104 q -93 1110 -18 1110 l -172 1110 l -146 1265 l -72 1265 q 35 1263 1 1265 q 99 1246 69 1260 q 167 1199 129 1232 q 105 1299 136 1268 q 42 1338 74 1331 q -46 1346 10 1346 l -131 1346 l -103 1501 l -25 1501 q 153 1476 97 1501 q 258 1357 210 1450 q 389 1028 307 1264 l 522 1028 z "},"ॅ":{"ha":0,"x_min":-421,"x_max":282,"o":"m -110 1124 q -342 1188 -262 1124 q -421 1363 -421 1251 q -414 1432 -421 1393 l -200 1432 q -203 1403 -203 1413 q -175 1333 -203 1358 q -89 1308 -147 1308 q 19 1342 -21 1308 q 68 1432 58 1376 l 282 1432 q 161 1206 258 1288 q -110 1124 64 1124 z "},"ॉ":{"ha":457,"x_min":13,"x_max":738,"o":"m 346 1124 q 114 1188 193 1124 q 35 1363 35 1251 q 42 1432 35 1393 l 256 1432 q 253 1403 253 1413 q 281 1333 253 1358 q 367 1308 308 1308 q 474 1342 435 1308 q 524 1432 514 1376 l 738 1432 q 617 1206 714 1288 q 346 1124 519 1124 m 156 819 l 33 819 l 71 1028 l 564 1028 l 526 819 l 407 819 l 263 0 l 13 0 l 156 819 z "},"क":{"ha":1326,"x_min":33,"x_max":1436,"o":"m 849 819 l 818 644 q 1010 725 892 725 q 1185 653 1122 725 q 1247 469 1247 582 q 1240 394 1247 436 q 1121 169 1213 247 q 901 90 1029 90 q 807 103 850 90 l 840 297 q 869 293 851 293 q 955 329 919 293 q 990 424 990 365 q 967 488 990 463 q 901 513 944 513 q 816 476 849 513 q 772 381 783 440 l 706 0 l 464 0 l 492 161 q 283 75 414 75 q 108 147 175 75 q 40 335 40 219 q 47 407 40 365 q 165 638 72 551 q 396 725 258 725 q 508 703 463 725 q 576 642 553 682 l 608 819 l 33 819 l 71 1028 l 1436 1028 l 1400 819 l 849 819 m 397 285 q 486 315 450 285 q 532 389 522 346 l 533 396 q 536 421 536 413 q 510 487 536 461 q 438 513 483 513 q 348 481 386 513 q 300 399 310 450 q 297 376 297 385 q 326 310 297 336 q 397 285 354 285 z "},"ख":{"ha":1346,"x_min":35,"x_max":1456,"o":"m 1456 1028 l 1419 819 l 1299 819 l 1156 0 l 906 0 l 940 196 q 781 143 876 143 q 739 147 760 143 q 588 32 675 75 q 397 -11 501 -11 q 144 69 233 -11 q 54 297 54 149 q 64 399 54 349 l 92 563 l 124 563 q 271 604 219 563 q 338 733 322 646 l 351 819 l 35 819 l 72 1028 l 1456 1028 m 442 204 q 593 269 539 204 q 571 388 571 319 q 576 456 571 424 q 678 645 596 574 q 869 717 760 717 q 1021 660 974 717 l 1049 819 l 604 819 l 583 699 q 488 487 560 567 q 311 389 415 407 l 307 368 q 303 331 303 350 q 338 239 303 274 q 442 204 374 204 m 789 411 q 811 353 789 374 q 869 333 833 333 q 951 368 918 333 q 983 451 983 403 q 963 506 983 483 q 903 528 942 528 q 822 496 856 528 q 789 411 789 464 z "},"ग":{"ha":1163,"x_min":33,"x_max":1272,"o":"m 1272 1028 l 1235 819 l 1114 819 l 969 0 l 719 0 l 863 819 l 711 819 l 660 525 q 548 297 635 383 q 311 211 461 211 q 112 272 186 211 q 38 444 38 332 q 44 513 38 474 q 54 558 50 543 l 296 558 l 288 514 q 285 481 285 489 q 332 425 285 425 q 407 514 392 425 l 461 819 l 33 819 l 71 1028 l 1272 1028 z "},"घ":{"ha":965,"x_min":33,"x_max":1075,"o":"m 1038 819 l 918 819 l 775 0 l 522 0 l 561 218 q 313 126 460 126 q 129 182 203 126 q 56 335 56 238 q 60 379 56 357 q 123 506 74 454 q 233 575 172 557 l 233 581 q 139 717 139 611 q 143 767 139 740 l 153 819 l 33 819 l 71 1028 l 1075 1028 l 1038 819 m 667 819 l 403 819 l 396 779 q 393 753 393 760 q 483 682 393 682 l 535 682 l 499 481 l 428 481 q 347 456 375 481 q 318 390 318 431 q 343 345 318 361 q 410 329 368 329 q 535 371 481 329 q 607 482 590 413 l 667 819 z "},"ङ":{"ha":996,"x_min":13,"x_max":1106,"o":"m 1106 1028 l 1069 819 l 717 819 l 701 738 l 703 738 l 671 561 l 411 561 q 361 549 382 561 q 336 514 340 538 q 346 478 331 490 q 389 467 361 467 l 451 467 q 630 416 560 467 q 700 267 700 365 q 694 214 700 253 q 585 33 675 97 q 342 -31 494 -31 q 105 31 197 -31 q 13 204 13 93 q 15 238 13 215 l 265 238 q 288 177 261 197 q 356 157 314 157 q 424 175 397 157 q 457 224 451 193 q 458 239 458 229 q 436 278 458 265 q 374 292 414 292 l 326 292 q 158 335 235 292 q 82 478 82 378 q 86 524 82 499 q 185 683 104 628 q 378 738 265 738 l 460 738 l 475 819 l 38 819 l 74 1028 l 1106 1028 m 878 629 q 955 599 925 629 q 985 524 985 569 q 939 419 985 464 q 832 375 893 375 q 756 405 786 375 q 726 479 726 435 q 748 553 726 518 q 804 608 769 588 q 878 629 839 629 z "},"च":{"ha":1054,"x_min":33,"x_max":1164,"o":"m 1128 819 l 1006 819 l 863 0 l 611 0 l 647 204 q 534 132 599 157 q 394 107 469 107 q 222 163 288 107 q 156 314 156 218 q 160 367 156 340 q 239 510 174 451 l 69 510 l 104 706 l 621 706 l 586 510 l 525 510 q 447 484 481 510 q 403 413 413 458 q 401 394 401 406 q 431 335 401 356 q 510 314 461 314 q 633 367 583 315 q 701 510 683 419 l 756 819 l 33 819 l 71 1028 l 1164 1028 l 1128 819 z "},"छ":{"ha":1146,"x_min":32,"x_max":1256,"o":"m 972 819 l 954 725 q 1049 647 1017 700 q 1082 517 1082 593 q 1075 444 1082 486 q 974 223 1053 318 q 767 76 896 128 q 471 25 639 25 q 249 58 346 25 q 99 151 153 90 q 44 294 44 213 q 50 349 44 325 q 224 544 78 490 l 224 550 q 131 685 131 579 q 135 736 131 710 l 149 819 l 32 819 l 69 1028 l 1256 1028 l 1218 819 l 972 819 m 740 819 l 400 819 l 388 746 q 385 717 385 726 q 458 649 385 649 l 486 649 l 450 450 l 428 450 q 337 417 369 450 q 304 339 304 385 q 511 239 304 239 q 858 457 819 239 q 861 489 861 468 q 847 540 861 521 q 808 560 833 560 q 755 535 778 560 q 724 467 732 510 q 719 408 719 440 q 721 367 719 381 l 517 367 q 514 415 514 392 q 521 494 514 458 q 591 644 538 586 q 724 726 644 703 l 740 819 z "},"ज":{"ha":1203,"x_min":33,"x_max":1313,"o":"m 1275 819 l 1156 819 l 1011 0 l 761 0 l 842 460 l 714 460 l 711 447 q 586 214 686 303 q 336 125 486 125 q 124 197 203 125 q 44 388 44 268 q 51 456 44 417 l 90 674 l 343 674 l 303 454 q 300 419 300 442 q 367 344 300 344 q 433 373 407 344 q 468 454 458 401 l 507 674 l 878 674 l 904 819 l 33 819 l 71 1028 l 1313 1028 l 1275 819 z "},"झ":{"ha":1228,"x_min":8,"x_max":1338,"o":"m 1300 819 l 1178 819 l 1035 0 l 789 0 l 838 279 l 683 279 q 686 239 686 254 q 682 186 686 214 q 596 34 667 93 q 421 -25 525 -25 q 331 -10 369 -25 q 269 26 293 6 l 244 -121 l 8 -121 l 69 235 l 294 235 q 311 178 290 199 q 372 158 332 158 q 436 179 413 158 q 460 235 460 200 q 438 276 460 261 q 372 292 415 292 q 282 293 317 292 q 140 346 200 297 q 81 485 81 394 q 85 532 81 507 q 183 688 103 638 q 379 739 264 739 l 461 739 l 475 819 l 44 819 l 82 1028 l 1338 1028 l 1300 819 m 932 819 l 718 819 l 696 690 l 672 561 l 411 561 q 357 547 379 561 q 335 504 335 533 q 350 476 335 486 q 392 467 365 467 l 451 467 l 871 467 l 932 819 z "},"ञ":{"ha":1171,"x_min":32,"x_max":1281,"o":"m 1243 819 l 1124 819 l 979 0 l 729 0 l 782 299 l 678 299 q 535 122 632 185 q 317 58 439 58 q 110 123 188 58 q 32 301 32 188 q 35 340 32 313 l 271 340 q 299 288 276 306 q 356 269 322 269 q 447 315 411 269 q 483 425 483 361 q 462 492 483 467 q 400 518 440 518 q 336 500 367 518 q 290 449 306 482 l 54 449 q 190 656 85 581 q 435 731 294 731 q 625 672 551 731 q 711 510 699 614 l 818 510 l 872 819 l 33 819 l 71 1028 l 1281 1028 l 1243 819 z "},"ट":{"ha":894,"x_min":33,"x_max":1004,"o":"m 485 521 q 358 482 413 521 q 290 374 303 443 q 288 344 288 354 q 322 263 288 293 q 417 233 356 233 q 538 274 489 233 q 599 383 588 315 l 838 383 q 758 190 818 274 q 603 62 697 107 q 392 17 508 17 q 204 53 285 17 q 79 158 124 90 q 35 318 35 226 q 40 382 35 353 q 184 633 67 542 q 482 731 301 724 l 497 819 l 33 819 l 69 1028 l 1004 1028 l 967 819 l 743 819 l 692 521 l 485 521 z "},"ठ":{"ha":928,"x_min":32,"x_max":1038,"o":"m 638 819 l 621 728 q 784 627 722 699 q 846 449 846 556 q 839 379 846 421 q 756 193 821 271 q 596 75 692 115 q 388 35 500 35 q 209 70 289 35 q 83 173 129 106 q 36 332 36 240 q 43 400 36 361 q 156 622 65 538 q 375 733 247 707 l 390 819 l 32 819 l 69 1028 l 1038 1028 l 1000 819 l 638 819 m 593 421 q 559 505 593 474 q 465 536 525 536 q 339 485 389 536 q 289 358 289 435 q 322 274 289 306 q 414 242 354 242 q 542 292 492 242 q 593 421 593 343 z "},"ड":{"ha":785,"x_min":13,"x_max":894,"o":"m 411 561 q 361 549 382 561 q 336 514 340 538 q 346 478 331 490 q 389 467 361 467 l 451 467 q 630 416 560 467 q 700 267 700 365 q 694 214 700 253 q 585 33 675 97 q 342 -31 494 -31 q 105 31 197 -31 q 13 204 13 93 q 15 238 13 215 l 265 238 q 288 177 261 197 q 356 157 314 157 q 424 175 397 157 q 457 224 451 193 q 458 239 458 229 q 436 278 458 265 q 374 292 414 292 l 326 292 q 158 335 235 292 q 82 478 82 378 q 86 524 82 499 q 185 683 104 628 q 378 738 265 738 l 458 738 l 474 819 l 38 819 l 74 1028 l 894 1028 l 858 819 l 715 819 l 669 561 l 411 561 z "},"ढ":{"ha":918,"x_min":36,"x_max":1028,"o":"m 561 574 q 378 518 456 574 q 283 363 300 463 q 279 318 279 340 q 325 203 279 246 q 467 160 371 160 q 588 187 538 160 q 647 267 638 214 q 638 308 651 292 q 601 325 625 325 q 563 313 579 325 q 542 279 547 300 q 539 254 539 269 l 363 254 q 367 310 363 288 q 457 451 382 401 q 643 501 532 501 q 802 448 742 501 q 863 306 863 394 q 858 260 863 283 q 726 55 835 129 q 442 -19 618 -19 q 233 22 324 -19 q 90 138 142 63 q 39 315 39 214 q 44 385 39 353 q 131 579 65 499 q 296 701 197 660 q 510 743 394 743 l 528 743 l 540 819 l 36 819 l 74 1028 l 1028 1028 l 990 819 l 775 819 l 733 574 l 561 574 z "},"ण":{"ha":1261,"x_min":33,"x_max":1371,"o":"m 1335 819 l 1214 819 l 1069 0 l 818 0 l 963 819 l 804 819 l 747 500 q 633 271 722 358 q 393 183 543 183 q 179 253 258 183 q 100 439 100 322 q 106 500 100 472 l 163 819 l 33 819 l 71 1028 l 1371 1028 l 1335 819 m 558 819 l 408 819 l 347 476 q 346 457 346 469 q 363 412 346 429 q 408 394 379 394 q 467 417 444 394 q 497 476 490 439 l 558 819 z "},"त":{"ha":990,"x_min":31,"x_max":1100,"o":"m 1063 819 l 942 819 l 797 0 l 546 0 l 628 467 l 464 467 q 335 422 385 467 q 285 303 285 378 q 316 226 285 254 q 411 197 347 197 l 435 197 l 400 1 l 361 1 q 199 32 274 1 q 77 125 124 63 q 31 281 31 188 q 36 346 31 314 q 189 599 64 517 q 490 681 314 681 l 665 681 l 690 819 l 33 819 l 71 1028 l 1100 1028 l 1063 819 z "},"थ":{"ha":1114,"x_min":56,"x_max":1224,"o":"m 1224 1028 l 1189 819 l 1067 819 l 922 0 l 671 0 l 714 246 q 585 147 669 188 q 396 107 501 107 q 147 190 239 107 q 56 419 56 272 q 64 508 56 463 q 90 615 74 565 l 207 615 q 395 647 325 615 q 479 756 465 679 q 481 771 481 761 q 467 812 481 796 q 428 828 453 828 q 364 792 385 828 q 346 706 343 756 l 121 706 q 167 872 125 796 q 288 994 210 949 q 469 1040 365 1040 q 651 980 583 1040 q 718 814 718 919 q 713 749 718 778 q 583 528 689 613 q 297 438 478 443 q 340 350 299 386 q 469 314 381 314 q 667 388 582 314 q 776 599 753 461 l 851 1028 l 1224 1028 z "},"द":{"ha":856,"x_min":39,"x_max":965,"o":"m 467 508 q 349 467 394 508 q 303 360 303 426 q 327 297 303 319 q 394 274 351 274 q 475 303 442 274 q 517 381 508 332 l 749 381 l 672 -54 l 428 -54 l 461 135 q 286 76 392 76 q 113 142 182 76 q 44 328 44 207 q 51 404 44 369 q 194 640 79 558 q 478 722 310 722 l 514 722 l 532 819 l 39 819 l 76 1028 l 965 1028 l 926 819 l 783 819 l 729 508 l 467 508 z "},"ध":{"ha":1036,"x_min":58,"x_max":1146,"o":"m 1110 819 l 993 819 l 849 0 l 599 0 l 636 211 q 335 99 524 99 q 135 154 213 99 q 58 310 58 210 q 63 356 58 331 q 133 488 76 438 q 254 554 189 538 l 256 558 q 161 627 199 578 q 124 749 124 676 q 128 799 124 772 q 227 977 147 914 q 422 1040 307 1040 q 594 988 532 1040 q 656 843 656 936 q 639 742 656 796 l 456 742 q 460 775 460 758 q 447 815 460 800 q 407 831 435 831 q 354 804 375 831 q 333 738 333 778 q 365 679 333 697 q 444 661 396 661 l 565 661 l 529 460 l 457 460 q 365 441 400 460 q 322 383 329 422 q 321 369 321 379 q 351 321 321 338 q 436 304 381 304 q 604 366 535 304 q 692 529 674 428 l 692 528 l 743 819 l 779 1028 l 1146 1028 l 1110 819 z "},"न":{"ha":1158,"x_min":33,"x_max":1268,"o":"m 1231 819 l 1110 819 l 965 0 l 714 0 l 799 478 l 647 478 q 658 400 658 440 q 654 346 658 375 q 589 199 639 260 q 468 106 539 138 q 321 75 397 75 q 173 109 239 75 q 70 203 107 143 q 33 340 33 264 q 39 396 33 357 q 171 614 65 542 q 426 686 276 686 l 835 686 l 858 819 l 33 819 l 71 1028 l 1268 1028 l 1231 819 m 463 401 q 441 456 463 435 q 382 478 419 478 q 299 444 333 478 q 264 363 264 411 q 286 307 264 328 q 347 286 308 286 q 428 319 394 286 q 463 401 463 353 z "},"प":{"ha":950,"x_min":33,"x_max":1060,"o":"m 1022 819 l 903 819 l 758 0 l 508 0 l 556 271 q 363 206 479 206 q 160 282 233 206 q 88 485 88 358 q 96 569 88 526 l 140 819 l 33 819 l 71 1028 l 1060 1028 l 1022 819 m 651 819 l 392 819 l 347 569 q 343 528 343 547 q 372 447 343 476 q 458 417 401 417 q 557 456 519 417 q 606 560 594 494 l 606 558 l 651 819 z "},"फ":{"ha":1367,"x_min":33,"x_max":1476,"o":"m 879 819 l 849 642 q 942 703 888 681 q 1063 725 997 725 q 1233 658 1174 725 q 1293 485 1293 592 q 1286 413 1293 454 q 1219 240 1268 313 q 1098 128 1169 167 q 943 90 1026 90 q 840 106 886 90 l 874 297 q 911 292 899 292 q 997 330 964 292 q 1031 424 1031 368 q 1008 488 1031 463 q 944 513 986 513 q 853 476 890 513 q 801 374 817 439 l 736 0 l 485 0 l 532 268 q 351 206 458 206 q 156 278 226 206 q 86 471 86 351 q 94 556 86 513 l 140 819 l 33 819 l 71 1028 l 1476 1028 l 1440 819 l 879 819 m 628 819 l 392 819 l 346 556 q 342 515 342 535 q 367 443 342 469 q 444 417 393 417 q 531 450 497 417 q 579 536 565 483 l 628 819 z "},"ब":{"ha":954,"x_min":33,"x_max":1064,"o":"m 1064 1028 l 1028 819 l 907 819 l 764 0 l 522 0 l 549 147 q 452 88 510 108 q 326 68 394 68 q 178 105 243 68 q 79 206 114 142 q 44 353 44 271 q 51 424 44 382 q 122 591 68 519 q 260 701 176 663 q 443 740 343 740 q 640 674 567 740 l 665 819 l 33 819 l 71 1028 l 1064 1028 m 468 581 q 360 549 408 581 l 592 357 q 610 411 603 379 q 613 443 613 433 q 574 542 613 504 q 468 581 535 581 m 267 411 q 264 378 264 400 q 306 281 264 317 q 411 244 347 244 q 518 275 469 244 l 285 467 q 267 411 271 439 z "},"भ":{"ha":1210,"x_min":33,"x_max":1319,"o":"m 1319 1028 l 1283 819 l 1161 819 l 1015 0 l 765 0 l 843 446 l 690 446 l 681 393 q 558 154 653 240 q 308 68 463 68 q 108 131 182 68 q 33 301 33 194 q 39 360 33 332 q 169 576 64 501 q 418 650 275 650 l 492 650 l 508 746 q 511 774 511 765 q 464 828 511 828 q 417 808 436 828 q 392 756 399 788 q 389 714 388 733 l 138 714 l 138 726 q 140 765 138 740 q 253 964 163 888 q 490 1040 343 1040 q 683 976 622 1040 q 743 801 743 913 q 733 700 743 749 l 725 650 l 879 650 l 946 1028 l 1319 1028 m 456 446 l 390 446 q 304 419 338 446 q 271 343 271 392 q 290 295 271 311 q 342 279 310 279 q 410 306 385 279 q 444 379 436 333 l 456 446 z "},"म":{"ha":1196,"x_min":19,"x_max":1306,"o":"m 1268 819 l 1149 819 l 1003 0 l 751 0 l 831 446 l 676 446 l 667 393 q 543 154 639 240 q 293 68 447 68 q 93 131 167 68 q 19 303 19 194 q 25 360 19 321 q 156 576 50 501 q 403 650 261 650 l 478 650 l 507 819 l 33 819 l 71 1028 l 1306 1028 l 1268 819 m 896 819 l 742 819 l 711 650 l 865 650 l 896 819 m 442 446 l 374 446 q 290 419 324 446 q 257 344 257 393 q 277 297 257 314 q 328 279 297 279 q 396 306 369 279 q 431 379 422 333 l 442 446 z "},"य":{"ha":1060,"x_min":33,"x_max":1169,"o":"m 1132 819 l 1011 819 l 867 0 l 617 0 l 650 190 q 535 124 600 147 q 393 100 471 100 q 216 138 292 100 q 100 247 140 176 q 60 410 60 317 q 67 492 60 456 q 89 582 75 539 l 101 582 q 260 629 211 582 q 325 767 308 676 l 335 819 l 33 819 l 71 1028 l 1169 1028 l 1132 819 m 760 819 l 582 819 l 564 721 q 484 543 546 614 q 310 456 422 472 q 308 436 308 449 q 351 344 308 381 q 469 308 393 308 q 620 361 558 308 q 704 499 682 414 l 760 819 z "},"र":{"ha":736,"x_min":33,"x_max":846,"o":"m 810 819 l 707 819 l 699 765 q 576 501 667 599 q 307 399 486 403 l 286 278 q 283 254 283 261 q 296 215 283 229 q 335 200 308 200 q 381 221 363 200 q 407 275 400 242 l 413 317 l 653 317 l 649 283 q 540 67 626 146 q 315 -12 453 -12 q 108 56 182 -12 q 33 232 33 124 q 39 290 33 264 l 94 600 l 233 600 q 384 642 336 600 q 447 765 432 685 l 457 819 l 35 819 l 72 1028 l 846 1028 l 810 819 z "},"ल":{"ha":1272,"x_min":32,"x_max":1382,"o":"m 1099 819 l 1074 676 q 1158 583 1128 642 q 1189 446 1189 525 q 1181 364 1189 408 q 1106 183 1163 261 q 958 63 1049 104 q 751 24 867 21 l 701 26 l 742 244 q 778 242 758 242 q 874 277 833 242 q 926 376 915 313 q 929 407 929 399 q 906 474 929 450 q 842 499 883 499 q 754 460 786 499 q 711 364 722 421 l 706 328 l 497 328 l 504 364 q 508 404 508 385 q 488 472 508 446 q 424 499 468 499 q 338 466 372 499 q 293 376 304 433 q 290 344 290 354 q 319 269 290 296 q 401 242 349 242 q 433 244 411 242 l 394 26 l 353 24 q 118 103 201 24 q 35 311 35 182 q 43 392 35 350 q 119 578 63 504 q 253 685 175 651 q 417 719 331 719 q 564 679 508 719 q 640 575 619 639 l 644 575 q 835 710 711 681 l 853 819 l 32 819 l 69 1028 l 1382 1028 l 1344 819 l 1099 819 z "},"व":{"ha":922,"x_min":33,"x_max":1032,"o":"m 1032 1028 l 996 819 l 875 819 l 732 0 l 486 0 l 514 154 q 306 72 428 72 q 115 144 185 72 q 44 339 44 215 q 53 426 44 381 q 170 649 78 567 q 403 731 263 731 q 600 649 532 731 l 631 819 l 33 819 l 71 1028 l 1032 1028 m 403 271 q 503 307 463 271 q 556 397 544 343 l 558 407 q 560 428 560 414 q 531 502 560 474 q 449 531 501 531 q 335 486 382 531 q 289 376 289 442 q 319 300 289 329 q 403 271 350 271 z "},"श":{"ha":1207,"x_min":42,"x_max":1317,"o":"m 367 206 q 432 234 408 206 q 467 318 456 263 l 710 318 q 599 77 690 163 q 347 -8 507 -8 q 124 60 206 -8 q 42 250 42 129 q 49 319 42 281 l 97 594 l 288 594 q 458 627 388 594 q 543 740 529 660 q 544 760 544 747 q 529 806 544 789 q 486 824 514 824 q 415 785 440 824 q 389 694 389 747 l 140 694 q 256 949 154 857 q 514 1040 357 1040 q 721 973 640 1040 q 801 788 801 906 q 796 724 801 753 q 642 469 767 554 q 346 385 518 385 l 313 385 l 299 306 q 296 275 296 286 q 367 206 296 206 m 1317 1028 l 1279 819 l 1160 819 l 1014 0 l 760 0 l 942 1028 l 1317 1028 z "},"ष":{"ha":974,"x_min":33,"x_max":1083,"o":"m 1046 819 l 924 819 l 781 0 l 535 0 l 581 263 q 367 186 496 186 q 160 267 233 186 q 88 478 88 347 q 96 569 88 522 l 140 819 l 33 819 l 71 1028 l 1083 1028 l 1046 819 m 678 819 l 385 819 l 646 636 l 678 819 m 450 397 q 541 420 501 397 q 604 482 581 443 l 354 656 l 338 561 q 333 518 333 539 q 363 430 333 463 q 450 397 393 397 z "},"स":{"ha":1156,"x_min":35,"x_max":1265,"o":"m 1228 819 l 1107 819 l 963 0 l 713 0 l 782 396 l 307 396 l 286 279 q 285 260 285 272 q 340 200 285 200 q 421 292 404 200 l 661 292 q 556 69 649 150 q 317 -12 463 -12 q 110 59 183 -12 q 38 244 38 131 q 43 307 38 278 l 89 574 l 185 574 q 336 617 288 574 q 399 738 385 660 l 414 819 l 35 819 l 72 1028 l 1265 1028 l 1228 819 m 856 819 l 665 819 l 650 738 q 601 600 635 658 l 818 600 l 856 819 z "},"ह":{"ha":825,"x_min":25,"x_max":936,"o":"m 936 1028 l 900 819 l 726 819 l 714 743 l 682 567 l 446 567 q 396 554 417 567 q 371 514 375 542 q 369 501 369 510 q 383 474 369 483 q 431 475 399 475 q 589 442 524 475 q 688 354 654 408 q 721 238 721 300 q 718 207 721 226 l 479 207 q 456 257 479 236 q 393 278 433 278 q 307 239 344 278 q 269 135 269 200 q 293 69 269 92 q 354 47 317 47 q 420 66 390 47 q 463 113 450 85 l 703 113 q 574 -85 675 -10 q 333 -160 474 -160 q 172 -125 242 -160 q 63 -28 101 -90 q 25 115 25 35 q 31 181 25 151 q 186 411 58 333 q 128 531 128 456 q 160 640 128 592 q 250 716 192 689 q 386 743 308 743 l 475 743 l 489 819 l 49 819 l 86 1028 l 936 1028 z "},"ळ":{"ha":1314,"x_min":29,"x_max":1424,"o":"m 1132 819 l 1106 671 q 1197 581 1164 639 q 1231 447 1231 524 q 1225 381 1231 413 q 1153 208 1207 282 q 1019 94 1099 133 q 853 54 940 54 q 698 93 764 54 q 604 206 632 132 l 597 206 q 471 93 547 132 q 306 54 394 54 q 165 85 228 54 q 67 176 103 117 q 32 315 32 235 q 38 381 32 351 q 110 553 56 479 q 244 667 165 626 q 411 707 324 707 q 660 557 594 707 l 665 557 q 867 697 747 667 l 889 819 l 29 819 l 67 1028 l 1424 1028 l 1388 819 l 1132 819 m 510 381 q 511 403 511 388 q 485 469 511 444 q 417 494 460 494 q 320 456 360 494 q 281 357 281 417 q 307 292 281 315 q 378 268 333 268 q 463 299 426 268 q 510 381 500 331 m 981 379 q 982 401 982 388 q 956 469 982 443 q 886 494 931 494 q 791 456 831 494 q 751 358 751 417 q 777 292 751 317 q 846 268 803 268 q 933 299 896 268 q 981 379 971 329 z "},"क़":{"ha":1326,"x_min":33,"x_max":1436,"o":"m 849 819 l 818 644 q 1010 725 892 725 q 1185 653 1122 725 q 1247 469 1247 582 q 1240 394 1247 436 q 1121 169 1213 247 q 901 90 1029 90 q 807 103 850 90 l 840 297 q 869 293 851 293 q 955 329 919 293 q 990 424 990 365 q 967 488 990 463 q 901 513 944 513 q 816 476 849 513 q 772 381 783 440 l 706 0 l 464 0 l 492 161 q 283 75 414 75 q 108 147 175 75 q 40 335 40 219 q 47 407 40 365 q 165 638 72 551 q 396 725 258 725 q 508 703 463 725 q 576 642 553 682 l 608 819 l 33 819 l 71 1028 l 1436 1028 l 1400 819 l 849 819 m 397 285 q 486 315 450 285 q 532 389 522 346 l 533 396 q 536 421 536 413 q 510 487 536 461 q 438 513 483 513 q 348 481 386 513 q 300 399 310 450 q 297 376 297 385 q 326 310 297 336 q 397 285 354 285 m 176 -279 q 90 -247 124 -279 q 57 -164 57 -214 q 81 -81 57 -119 q 144 -18 104 -42 q 226 6 183 6 q 314 -28 281 6 q 347 -112 347 -61 q 323 -195 347 -157 q 260 -256 299 -233 q 176 -279 221 -279 z "},"ख़":{"ha":1346,"x_min":35,"x_max":1456,"o":"m 1456 1028 l 1419 819 l 1299 819 l 1156 0 l 906 0 l 940 196 q 781 143 876 143 q 739 147 760 143 q 588 32 675 75 q 397 -11 501 -11 q 144 69 233 -11 q 54 297 54 149 q 64 399 54 349 l 92 563 l 124 563 q 271 604 219 563 q 338 733 322 646 l 351 819 l 35 819 l 72 1028 l 1456 1028 m 442 204 q 593 269 539 204 q 571 388 571 319 q 576 456 571 424 q 678 645 596 574 q 869 717 760 717 q 1021 660 974 717 l 1049 819 l 604 819 l 583 699 q 488 487 560 567 q 311 389 415 407 l 307 368 q 303 331 303 350 q 338 239 303 274 q 442 204 374 204 m 789 411 q 811 353 789 374 q 869 333 833 333 q 951 368 918 333 q 983 451 983 403 q 963 506 983 483 q 903 528 942 528 q 822 496 856 528 q 789 411 789 464 m 300 -360 q 214 -327 247 -360 q 181 -244 181 -294 q 204 -161 181 -200 q 267 -99 228 -122 q 350 -75 307 -75 q 438 -108 404 -75 q 471 -193 471 -142 q 447 -276 471 -237 q 383 -337 422 -314 q 300 -360 344 -360 z "},"ग़":{"ha":1163,"x_min":33,"x_max":1272,"o":"m 1272 1028 l 1235 819 l 1114 819 l 969 0 l 719 0 l 863 819 l 711 819 l 660 525 q 548 297 635 383 q 311 211 461 211 q 112 272 186 211 q 38 444 38 332 q 44 513 38 474 q 54 558 50 543 l 296 558 l 288 514 q 285 481 285 489 q 332 425 285 425 q 407 514 392 425 l 461 819 l 33 819 l 71 1028 l 1272 1028 m 240 -144 q 154 -112 188 -144 q 121 -29 121 -79 q 144 54 121 15 q 208 117 168 93 q 290 140 247 140 q 378 107 344 140 q 411 22 411 74 q 387 -60 411 -22 q 324 -122 363 -99 q 240 -144 285 -144 z "},"ज़":{"ha":1203,"x_min":33,"x_max":1313,"o":"m 1275 819 l 1156 819 l 1011 0 l 761 0 l 842 460 l 714 460 l 711 447 q 586 214 686 303 q 336 125 486 125 q 124 197 203 125 q 44 388 44 268 q 51 456 44 417 l 90 674 l 343 674 l 303 454 q 300 419 300 442 q 367 344 300 344 q 433 373 407 344 q 468 454 458 401 l 507 674 l 878 674 l 904 819 l 33 819 l 71 1028 l 1313 1028 l 1275 819 m 267 -228 q 181 -195 214 -228 q 147 -112 147 -162 q 171 -29 147 -68 q 234 33 194 10 q 317 57 274 57 q 404 24 371 57 q 438 -61 438 -10 q 413 -144 438 -106 q 350 -205 389 -182 q 267 -228 311 -228 z "},"ड़":{"ha":785,"x_min":13,"x_max":894,"o":"m 411 561 q 361 549 382 561 q 336 514 340 538 q 346 478 331 490 q 389 467 361 467 l 451 467 q 630 416 560 467 q 700 267 700 365 q 694 214 700 253 q 585 33 675 97 q 342 -31 494 -31 q 105 31 197 -31 q 13 204 13 93 q 15 238 13 215 l 265 238 q 288 177 261 197 q 356 157 314 157 q 424 175 397 157 q 457 224 451 193 q 458 239 458 229 q 436 278 458 265 q 374 292 414 292 l 326 292 q 158 335 235 292 q 82 478 82 378 q 86 524 82 499 q 185 683 104 628 q 378 738 265 738 l 458 738 l 474 819 l 38 819 l 74 1028 l 894 1028 l 858 819 l 715 819 l 669 561 l 411 561 m 267 -383 q 181 -351 214 -383 q 147 -268 147 -318 q 171 -185 147 -224 q 234 -122 194 -146 q 317 -99 274 -99 q 404 -132 371 -99 q 438 -217 438 -165 q 413 -299 438 -261 q 350 -360 389 -337 q 267 -383 311 -383 z "},"ढ़":{"ha":918,"x_min":36,"x_max":1028,"o":"m 561 574 q 378 518 456 574 q 283 363 300 463 q 279 318 279 340 q 325 203 279 246 q 467 160 371 160 q 588 187 538 160 q 647 267 638 214 q 638 308 651 292 q 601 325 625 325 q 563 313 579 325 q 542 279 547 300 q 539 254 539 269 l 363 254 q 367 310 363 288 q 457 451 382 401 q 643 501 532 501 q 802 448 742 501 q 863 306 863 394 q 858 260 863 283 q 726 55 835 129 q 442 -19 618 -19 q 233 22 324 -19 q 90 138 142 63 q 39 315 39 214 q 44 385 39 353 q 131 579 65 499 q 296 701 197 660 q 510 743 394 743 l 528 743 l 540 819 l 36 819 l 74 1028 l 1028 1028 l 990 819 l 775 819 l 733 574 l 561 574 m 342 -371 q 256 -338 289 -371 q 222 -256 222 -306 q 246 -172 222 -211 q 309 -110 269 -133 q 392 -86 349 -86 q 479 -119 446 -86 q 513 -204 513 -153 q 488 -287 513 -249 q 425 -348 464 -325 q 342 -371 386 -371 z "},"फ़":{"ha":1367,"x_min":33,"x_max":1476,"o":"m 879 819 l 849 642 q 942 703 888 681 q 1063 725 997 725 q 1233 658 1174 725 q 1293 485 1293 592 q 1286 413 1293 454 q 1219 240 1268 313 q 1098 128 1169 167 q 943 90 1026 90 q 840 106 886 90 l 874 297 q 911 292 899 292 q 997 330 964 292 q 1031 424 1031 368 q 1008 488 1031 463 q 944 513 986 513 q 853 476 890 513 q 801 374 817 439 l 736 0 l 485 0 l 532 268 q 351 206 458 206 q 156 278 226 206 q 86 471 86 351 q 94 556 86 513 l 140 819 l 33 819 l 71 1028 l 1476 1028 l 1440 819 l 879 819 m 628 819 l 392 819 l 346 556 q 342 515 342 535 q 367 443 342 469 q 444 417 393 417 q 531 450 497 417 q 579 536 565 483 l 628 819 m 186 -140 q 100 -108 133 -140 q 67 -25 67 -75 q 90 58 67 19 q 153 121 114 97 q 236 144 193 144 q 324 111 290 144 q 357 26 357 78 q 333 -56 357 -18 q 269 -117 308 -94 q 186 -140 231 -140 z "},"ऱ":{"ha":736,"x_min":-117,"x_max":846,"o":"m 810 819 l 707 819 l 699 765 q 576 501 667 599 q 307 399 486 403 l 286 278 q 283 254 283 261 q 296 215 283 229 q 335 200 308 200 q 381 221 363 200 q 407 275 400 242 l 413 317 l 653 317 l 649 283 q 540 67 626 146 q 315 -12 453 -12 q 108 56 182 -12 q 33 232 33 124 q 39 290 33 264 l 94 600 l 233 600 q 384 642 336 600 q 447 765 432 685 l 457 819 l 35 819 l 72 1028 l 846 1028 l 810 819 m 3 -318 q -83 -285 -50 -318 q -117 -203 -117 -253 q -93 -119 -117 -158 q -30 -57 -69 -81 q 53 -33 10 -33 q 140 -67 107 -33 q 174 -151 174 -100 q 149 -234 174 -196 q 86 -295 125 -272 q 3 -318 47 -318 z "},"ं":{"ha":0,"x_min":-246,"x_max":46,"o":"m -126 1119 q -212 1153 -179 1119 q -246 1236 -246 1186 q -222 1319 -246 1281 q -159 1381 -199 1358 q -76 1404 -119 1404 q 12 1371 -22 1404 q 46 1286 46 1338 q 22 1204 46 1243 q -42 1142 -3 1165 q -126 1119 -82 1119 z "},"ँ":{"ha":0,"x_min":-419,"x_max":282,"o":"m -79 1372 q -134 1394 -112 1372 q -156 1447 -156 1415 q -122 1524 -156 1490 q -46 1557 -87 1557 q 12 1535 -10 1557 q 33 1481 33 1514 q 0 1404 33 1436 q -79 1372 -33 1372 m -110 1124 q -334 1189 -249 1124 q -419 1371 -419 1254 q -414 1432 -419 1404 l -215 1432 q -218 1406 -218 1415 q -185 1330 -218 1360 q -90 1300 -151 1300 q 25 1338 -21 1300 q 81 1432 71 1375 l 282 1432 q 157 1203 257 1283 q -110 1124 57 1124 z "},"ः":{"ha":410,"x_min":24,"x_max":386,"o":"m 215 499 q 128 532 163 499 q 94 615 94 565 q 119 697 94 658 q 183 759 143 736 q 265 782 222 782 q 352 749 318 782 q 386 665 386 715 q 362 583 386 622 q 298 522 338 544 q 215 499 258 499 m 144 101 q 58 134 92 101 q 24 217 24 167 q 48 301 24 263 q 112 362 72 339 q 194 385 151 385 q 281 351 247 385 q 315 267 315 318 q 291 185 315 224 q 227 124 267 147 q 144 101 188 101 z "},"ऽ":{"ha":839,"x_min":-7,"x_max":807,"o":"m 31 268 l 361 268 q 410 281 392 268 q 428 318 428 293 q 408 363 428 340 q 349 419 389 386 q 271 493 301 460 q 218 573 240 526 q 196 676 196 619 q 200 725 196 700 q 294 879 218 825 q 479 933 369 933 l 807 933 l 769 722 l 507 722 q 450 686 454 722 q 465 640 446 663 q 528 579 485 617 q 606 506 575 539 q 658 426 636 472 q 681 322 681 379 q 676 272 681 300 q 579 115 658 171 q 389 58 500 58 l -7 58 l 31 268 z "},"्":{"ha":0,"x_min":-450,"x_max":-68,"o":"m -450 -74 l -201 -74 l -68 -393 l -324 -393 l -450 -74 z "},"़":{"ha":0,"x_min":-504,"x_max":-214,"o":"m -385 -415 q -471 -383 -437 -415 q -504 -300 -504 -350 q -481 -217 -504 -256 q -417 -154 -457 -178 q -335 -131 -378 -131 q -247 -164 -281 -131 q -214 -249 -214 -197 q -238 -331 -214 -293 q -301 -392 -262 -369 q -385 -415 -340 -415 z "},"०":{"ha":901,"x_min":38,"x_max":872,"o":"m 51 503 q 38 350 38 425 q 117 95 38 186 q 367 4 197 4 q 696 139 574 4 q 858 503 818 274 q 872 653 872 578 q 792 908 872 817 q 542 1000 711 1000 q 213 866 335 1000 q 51 503 92 732 m 589 503 q 531 324 568 386 q 413 263 493 263 q 331 295 356 263 q 307 389 307 328 q 319 503 307 428 q 378 680 340 618 q 497 742 415 742 q 578 709 554 742 q 601 615 601 676 q 589 503 601 575 z "},"१":{"ha":524,"x_min":57,"x_max":535,"o":"m 57 726 l 101 983 l 535 983 l 363 0 l 76 0 l 204 726 l 57 726 z "},"२":{"ha":785,"x_min":-33,"x_max":793,"o":"m 3 217 q 354 474 219 357 q 506 683 489 590 q 508 711 508 703 q 444 778 508 778 q 380 747 404 778 q 342 640 356 715 l 78 640 q 160 848 97 765 q 311 969 224 931 q 496 1007 399 1007 q 721 940 649 1007 q 793 764 793 872 q 788 697 793 726 q 643 444 764 565 q 363 233 522 322 l 715 233 l 676 13 l -33 13 l 3 217 z "},"३":{"ha":803,"x_min":18,"x_max":800,"o":"m 507 1032 q 724 965 649 1032 q 800 792 800 899 q 796 739 800 767 q 721 595 779 649 q 594 526 663 542 l 593 521 q 697 444 658 496 q 736 313 736 392 q 729 247 736 286 q 611 60 708 131 q 357 -10 514 -10 q 106 63 193 -10 q 18 282 18 136 q 21 338 18 299 l 286 338 q 282 300 282 317 q 372 217 282 217 q 435 237 408 217 q 467 290 461 257 q 469 318 469 310 q 342 404 469 404 l 294 404 l 333 625 l 381 625 q 474 643 435 625 q 524 718 514 661 q 525 740 525 726 q 508 789 525 772 q 461 806 490 806 q 396 776 422 806 q 361 700 369 746 l 96 700 q 234 947 128 861 q 507 1032 340 1032 z "},"४":{"ha":915,"x_min":8,"x_max":883,"o":"m 8 167 l 49 394 l 585 997 l 879 997 l 775 403 l 883 403 l 842 167 l 733 167 l 704 0 l 429 0 l 457 167 l 8 167 m 571 685 l 325 403 l 521 403 l 571 685 z "},"५":{"ha":832,"x_min":50,"x_max":850,"o":"m 807 771 l 385 771 l 357 613 q 442 658 392 642 q 549 675 492 675 q 730 606 669 675 q 790 426 790 538 q 782 344 790 386 q 647 91 754 183 q 376 -1 539 -1 q 135 69 221 -1 q 50 257 50 139 q 56 318 50 290 l 322 318 q 338 258 318 283 q 404 233 358 233 q 481 265 451 233 q 519 350 510 296 q 522 379 522 369 q 500 440 522 418 q 438 461 478 461 q 375 444 401 461 q 339 401 349 426 l 74 401 l 181 1011 l 850 1011 l 807 771 z "},"६":{"ha":846,"x_min":54,"x_max":822,"o":"m 564 710 q 546 785 564 760 q 483 810 528 810 q 382 746 418 810 q 324 549 346 682 q 413 624 356 596 q 539 651 471 651 q 720 588 654 651 q 786 406 786 524 q 778 317 786 365 q 649 79 753 168 q 390 -10 546 -10 q 54 344 54 -10 q 71 521 54 428 q 226 906 118 785 q 526 1028 333 1028 q 751 951 681 1028 q 822 754 822 874 q 819 710 822 740 l 564 710 m 303 310 q 327 247 303 269 q 397 225 351 225 q 491 258 456 225 q 526 351 526 290 q 501 418 526 394 q 435 442 476 442 q 341 408 379 442 q 303 310 303 374 z "},"७":{"ha":690,"x_min":-26,"x_max":774,"o":"m 739 793 l 254 0 l -26 0 l 456 760 l 69 760 l 110 993 l 774 993 l 739 793 z "},"८":{"ha":867,"x_min":25,"x_max":858,"o":"m 133 778 q 197 905 146 844 q 338 1003 249 965 q 543 1042 426 1042 q 719 1008 647 1042 q 824 918 790 974 q 858 796 858 863 q 854 750 858 774 q 799 632 842 682 q 688 551 756 582 q 814 340 814 479 q 807 272 814 311 q 660 57 782 132 q 356 -18 539 -18 q 118 53 211 -18 q 25 251 25 124 q 32 318 25 279 q 226 551 61 476 q 129 724 129 603 q 133 778 129 749 m 394 719 q 392 692 392 700 q 413 637 392 656 q 468 618 433 618 q 540 643 510 618 q 579 717 569 668 q 581 739 581 725 q 560 799 581 776 q 504 821 539 821 q 432 794 463 821 q 394 719 401 767 m 294 297 q 321 231 294 256 q 396 206 347 206 q 498 244 458 206 q 538 343 538 283 q 510 410 538 386 q 436 435 482 435 q 335 397 376 435 q 294 297 294 358 z "},"९":{"ha":796,"x_min":32,"x_max":806,"o":"m 290 308 q 372 208 290 208 q 474 272 438 208 q 532 469 510 336 q 442 394 500 422 q 317 367 385 367 q 135 431 201 367 q 68 614 68 494 q 76 701 68 656 q 209 939 101 850 q 478 1028 317 1028 q 730 942 654 1028 q 806 697 806 856 q 785 497 806 618 q 706 217 756 326 q 570 49 657 108 q 346 -10 483 -10 q 163 36 233 -10 q 62 155 92 82 q 36 308 32 228 l 290 308 m 553 710 q 528 772 553 750 q 458 793 504 793 q 375 766 408 793 q 332 685 342 739 q 329 657 329 665 q 353 597 329 618 q 421 576 378 576 q 515 612 476 576 q 553 710 553 647 z "},"ॐ":{"ha":1496,"x_min":11,"x_max":1393,"o":"m 865 1247 q 810 1269 832 1247 q 789 1324 789 1292 q 823 1401 789 1368 q 899 1435 857 1435 q 955 1413 933 1435 q 976 1357 976 1390 q 943 1280 976 1313 q 865 1247 910 1247 m 836 1000 q 606 1066 688 1000 q 524 1246 524 1132 q 529 1308 524 1279 l 728 1308 q 725 1283 725 1292 q 760 1207 725 1236 q 856 1178 794 1178 q 970 1215 925 1178 q 1025 1308 1015 1251 l 1226 1308 q 1103 1080 1203 1160 q 836 1000 1004 1000 m 1129 946 q 1329 885 1265 946 q 1393 706 1393 824 q 1383 603 1393 656 l 1354 440 q 1199 126 1318 235 q 897 18 1081 18 q 757 32 828 18 l 792 239 l 824 235 q 888 229 871 229 q 1042 285 992 229 q 1113 450 1093 342 l 1146 638 q 1149 672 1149 650 q 1092 735 1149 735 q 1003 635 1019 735 q 944 451 983 519 q 833 351 904 383 q 644 315 763 318 l 640 286 q 523 88 618 161 q 296 14 428 14 q 87 78 163 14 q 11 249 11 142 q 17 308 11 281 l 251 308 q 250 292 250 303 q 268 246 250 264 q 318 228 286 228 q 388 257 361 228 q 415 331 415 286 q 392 384 415 364 q 322 404 369 404 l 257 404 l 293 615 l 360 615 q 442 642 410 615 q 475 714 475 669 q 458 758 475 742 q 413 774 442 774 q 355 753 379 774 q 325 700 331 733 l 93 700 q 158 850 108 785 q 285 951 208 915 q 456 988 363 988 q 644 932 576 988 q 711 779 711 876 q 707 729 711 754 q 646 599 692 654 q 529 519 600 544 l 528 515 l 543 510 l 619 510 q 724 535 690 510 q 769 636 757 561 q 881 868 797 790 q 1129 946 965 946 z "},"॰":{"ha":654,"x_min":82,"x_max":572,"o":"m 568 461 q 472 292 549 358 q 289 226 394 226 q 138 278 194 226 q 82 414 82 331 q 86 461 82 436 q 183 631 104 565 q 369 697 263 697 q 517 646 463 697 q 572 510 572 594 q 568 461 572 486 m 235 444 q 256 393 235 413 q 314 374 278 374 q 388 403 357 374 q 418 478 418 433 q 399 531 418 511 q 344 550 379 550 q 267 519 299 550 q 235 444 235 489 z "},"।":{"ha":506,"x_min":110,"x_max":539,"o":"m 358 0 l 110 0 l 290 1028 l 539 1028 l 358 0 z "},"॥":{"ha":911,"x_min":110,"x_max":944,"o":"m 358 0 l 110 0 l 290 1028 l 539 1028 l 358 0 m 764 0 l 515 0 l 696 1028 l 944 1028 l 764 0 z "},"₨":{"ha":1665,"x_min":-11,"x_max":1626,"o":"m 906 667 q 817 488 888 564 q 633 381 747 411 l 790 0 l 489 0 l 354 363 l 326 363 l 263 0 l -11 0 l 163 983 l 594 983 q 831 913 750 983 q 911 728 911 843 q 906 667 911 694 m 1169 533 q 1203 496 1169 508 q 1310 469 1236 483 q 1450 435 1393 453 q 1548 377 1507 417 q 1589 272 1589 338 q 1585 233 1589 254 q 1526 109 1572 164 q 1403 22 1479 54 q 1228 -10 1326 -10 q 974 61 1063 -10 q 886 264 885 132 l 1153 264 q 1181 210 1151 228 q 1260 192 1211 192 q 1340 239 1331 192 q 1311 282 1344 268 q 1197 313 1278 296 q 1060 345 1114 328 q 965 401 1006 363 q 925 507 925 440 q 970 648 925 583 q 1099 751 1015 713 q 1296 789 1183 789 q 1542 714 1460 789 q 1626 515 1624 639 l 1360 515 q 1330 568 1358 550 q 1257 586 1301 586 q 1194 573 1218 586 q 1169 533 1169 560 m 360 546 l 493 546 q 583 572 551 546 q 626 649 615 597 q 628 671 628 657 q 531 753 628 753 l 396 753 l 360 546 z "},"₹":{"ha":818,"x_min":44,"x_max":882,"o":"m 751 803 l 739 735 l 839 735 l 813 581 l 706 581 q 567 397 665 465 q 310 328 468 328 l 300 282 q 297 250 297 260 q 354 190 297 190 q 411 214 392 190 q 440 289 431 238 l 692 289 q 568 67 660 149 q 331 -14 476 -14 q 44 231 44 -14 q 54 326 44 278 l 85 503 q 296 508 226 503 q 401 529 365 513 q 451 581 436 546 l 89 581 l 117 735 l 483 735 l 496 803 l 129 803 l 160 983 l 882 983 l 851 803 l 751 803 z "},"‌":{"ha":0,"x_min":-32,"x_max":33,"o":"m -32 1126 l 33 1126 l 33 -319 l -32 -319 l -32 1126 z "},"‍":{"ha":0,"x_min":-178,"x_max":178,"o":"m 32 882 l 32 -319 l -33 -319 l -33 882 l -129 781 l -175 826 l -46 956 l -178 1088 l -132 1133 l 0 1001 l 133 1133 l 178 1089 l 44 956 l 178 824 l 132 778 l 32 882 z "},"◌":{"ha":904,"x_min":69,"x_max":835,"o":"m 418 633 q 375 649 392 633 q 358 692 358 665 q 375 734 358 718 q 418 750 392 750 q 461 734 444 750 q 478 692 478 718 q 461 649 478 665 q 418 633 444 633 m 586 613 q 543 628 560 613 q 526 671 526 644 q 543 713 526 697 q 586 729 560 729 q 629 713 613 729 q 646 671 646 697 q 629 628 646 644 q 586 613 613 613 m 256 575 q 213 591 229 575 q 196 633 196 607 q 213 676 196 660 q 256 692 229 692 q 299 676 282 692 q 315 633 315 660 q 299 591 315 607 q 256 575 282 575 m 714 510 q 671 526 688 510 q 654 568 654 542 q 671 610 654 594 q 714 626 688 626 q 757 610 740 626 q 774 568 774 594 q 757 526 774 542 q 714 510 740 510 m 150 438 q 107 453 124 438 q 90 496 90 469 q 107 538 90 522 q 150 554 124 554 q 193 538 176 554 q 210 496 210 522 q 193 453 210 469 q 150 438 176 438 m 775 351 q 732 367 749 351 q 715 410 715 383 q 732 452 715 436 q 775 468 749 468 q 818 452 801 468 q 835 410 835 436 q 818 367 835 383 q 775 351 801 351 m 129 269 q 86 285 103 269 q 69 328 69 301 q 86 370 69 354 q 129 386 103 386 q 172 370 156 386 q 189 328 189 354 q 172 285 189 301 q 129 269 156 269 m 761 185 q 718 201 735 185 q 701 243 701 217 q 718 285 701 269 q 761 301 735 301 q 804 285 788 301 q 821 243 821 269 q 804 201 821 217 q 761 185 788 185 m 192 113 q 149 128 165 113 q 132 171 132 144 q 149 213 132 197 q 192 229 165 229 q 235 213 218 229 q 251 171 251 197 q 235 128 251 144 q 192 113 218 113 m 660 51 q 617 67 633 51 q 600 110 600 83 q 617 152 600 136 q 660 168 633 168 q 703 152 686 168 q 719 110 719 136 q 703 67 719 83 q 660 51 686 51 m 328 7 q 285 23 301 7 q 268 65 268 39 q 285 108 268 92 q 328 124 301 124 q 371 108 354 124 q 388 65 388 92 q 371 23 388 39 q 328 7 354 7 m 500 -12 q 457 3 474 -12 q 440 46 440 19 q 457 88 440 72 q 500 104 474 104 q 543 88 526 104 q 560 46 560 72 q 543 3 560 19 q 500 -12 526 -12 z "},"!":{"ha":568,"x_min":68,"x_max":539,"o":"m 539 1040 l 388 371 l 154 371 l 240 1040 l 539 1040 m 392 267 l 343 0 l 68 0 l 115 267 l 392 267 z "},"\"":{"ha":629,"x_min":51,"x_max":596,"o":"m 308 1114 l 235 797 l 51 797 l 90 1114 l 308 1114 m 596 1114 l 522 797 l 340 797 l 378 1114 l 596 1114 z "},"#":{"ha":1263,"x_min":-37,"x_max":1301,"o":"m 1038 593 l 979 443 l 1140 443 l 1096 194 l 882 194 l 807 0 l 553 0 l 628 194 l 415 194 l 340 0 l 88 0 l 163 194 l -37 194 l 7 443 l 260 443 l 318 593 l 125 593 l 168 842 l 415 842 l 488 1028 l 740 1028 l 668 842 l 881 842 l 953 1028 l 1207 1028 l 1135 842 l 1301 842 l 1258 593 l 1038 593 m 783 593 l 571 593 l 513 443 l 725 443 l 783 593 z "},"$":{"ha":901,"x_min":14,"x_max":876,"o":"m 581 694 q 531 785 585 764 l 499 607 q 547 592 526 597 q 690 537 635 563 q 785 463 746 511 q 825 339 825 414 q 819 283 825 310 q 750 136 806 203 q 602 30 694 69 q 390 -10 510 -10 l 371 -121 l 306 -121 l 325 -7 q 98 76 182 6 q 14 267 14 147 q 17 306 14 278 l 307 306 q 317 242 303 267 q 363 206 332 217 l 394 386 q 363 396 369 393 q 218 447 275 422 q 120 521 161 472 q 79 649 79 569 q 85 707 79 679 q 160 860 100 796 q 310 960 221 925 q 503 999 400 994 l 522 1111 l 588 1111 l 568 997 q 797 918 717 988 q 876 729 876 849 q 875 694 876 707 l 581 694 m 378 707 q 438 632 378 663 l 465 790 q 401 766 425 788 q 378 707 378 744 m 528 290 q 510 333 528 315 q 456 364 492 350 l 426 197 q 494 222 467 200 q 526 278 521 243 l 528 290 z "},"%":{"ha":1181,"x_min":74,"x_max":1108,"o":"m 363 1000 q 510 952 456 1000 q 565 813 565 904 q 560 757 565 796 q 461 579 539 642 q 278 517 383 517 q 129 564 185 517 q 74 700 74 611 q 79 757 74 729 q 177 937 100 874 q 363 1000 254 1000 m 1072 986 l 371 0 l 110 0 l 811 986 l 1072 986 m 258 757 q 256 732 256 738 q 268 691 256 706 q 304 676 281 676 q 354 697 333 676 q 382 757 375 718 q 383 781 383 765 q 332 840 383 840 q 285 819 304 840 q 258 757 265 797 m 906 471 q 1053 424 999 471 q 1108 288 1108 376 q 1103 229 1108 257 q 1006 49 1082 113 q 821 -14 929 -14 q 672 34 728 -14 q 617 174 617 82 q 622 229 617 190 q 721 408 643 346 q 906 471 799 471 m 800 229 q 797 204 797 210 q 810 161 797 176 q 847 146 824 146 q 903 175 881 146 q 926 256 926 204 q 914 297 926 282 q 878 311 901 311 q 828 290 849 311 q 800 229 807 268 z "},"&":{"ha":968,"x_min":-3,"x_max":879,"o":"m 607 0 l 540 108 q 493 69 519 88 q 394 11 451 32 q 274 -10 338 -10 q 68 59 139 -10 q -3 238 -3 128 q 3 299 -3 271 q 97 491 24 414 q 267 588 169 568 l 254 622 q 240 706 240 667 q 244 751 240 726 q 300 869 256 814 q 418 959 344 925 q 586 993 492 993 q 853 806 822 993 q 857 756 857 781 q 844 654 857 711 l 590 654 q 597 708 597 689 q 550 767 601 767 q 509 750 525 767 q 493 708 493 733 q 499 679 493 693 q 518 643 504 665 l 879 0 l 607 0 m 424 304 q 425 321 425 310 q 402 372 425 353 q 343 392 379 392 q 267 363 297 392 q 236 288 236 335 q 258 235 236 254 q 317 217 279 217 q 387 241 357 217 q 424 304 417 265 z "},"'":{"ha":343,"x_min":53,"x_max":310,"o":"m 310 1114 l 235 797 l 53 797 l 90 1114 l 310 1114 z "},"(":{"ha":583,"x_min":10,"x_max":817,"o":"m 28 558 q 216 1033 74 821 q 553 1378 358 1246 l 817 1378 l 813 1353 q 462 994 592 1190 q 290 558 332 797 q 272 368 272 450 q 532 -236 272 21 l 528 -261 l 264 -261 q 78 1 146 -157 q 10 357 10 160 q 28 558 10 456 z "},")":{"ha":588,"x_min":-231,"x_max":578,"o":"m 560 560 q 371 83 513 296 q 35 -261 229 -129 l -231 -261 l -226 -236 q 126 122 -4 -75 q 297 558 256 319 q 314 747 314 657 q 54 1353 314 1099 l 58 1378 l 322 1378 q 509 1115 440 1274 q 578 760 578 956 q 560 560 578 660 z "},"*":{"ha":757,"x_min":100,"x_max":668,"o":"m 611 975 l 668 821 l 497 765 l 650 713 l 529 551 l 421 672 l 428 500 l 250 500 l 317 672 l 167 550 l 100 714 l 272 769 l 121 819 l 235 975 l 350 857 l 340 1031 l 522 1031 l 454 857 l 611 975 z "},"+":{"ha":772,"x_min":10,"x_max":763,"o":"m 718 354 l 494 354 l 454 125 l 192 125 l 232 354 l 10 354 l 54 604 l 276 604 l 317 833 l 579 833 l 539 604 l 763 604 l 718 354 z "},",":{"ha":357,"x_min":28,"x_max":308,"o":"m 286 165 q 308 39 308 106 q 279 -110 308 -39 q 188 -226 250 -181 q 31 -271 125 -271 l 47 -172 q 107 -156 86 -172 q 136 -90 128 -139 l 139 -75 l 28 -75 l 69 165 l 286 165 z "},"-":{"ha":778,"x_min":82,"x_max":751,"o":"m 751 594 l 711 368 l 82 368 l 122 594 l 751 594 z "},".":{"ha":357,"x_min":15,"x_max":339,"o":"m 339 267 l 292 0 l 15 0 l 64 267 l 339 267 z "},"/":{"ha":547,"x_min":-179,"x_max":735,"o":"m 735 1324 l 83 -268 l -179 -268 l 474 1324 l 735 1324 z "},":":{"ha":424,"x_min":8,"x_max":429,"o":"m 429 821 l 382 554 l 107 554 l 153 821 l 429 821 m 331 267 l 285 0 l 8 0 l 56 267 l 331 267 z "},";":{"ha":550,"x_min":103,"x_max":492,"o":"m 492 808 l 444 542 l 168 542 l 217 808 l 492 808 m 361 165 q 383 39 383 106 q 354 -110 383 -39 q 263 -226 325 -181 q 106 -271 200 -271 l 122 -172 q 182 -156 161 -172 q 211 -90 203 -139 l 214 -75 l 103 -75 l 144 165 l 361 165 z "},"<":{"ha":671,"x_min":32,"x_max":693,"o":"m 244 176 l 32 479 l 351 783 l 693 783 l 372 479 l 586 176 l 244 176 z "},"=":{"ha":858,"x_min":-22,"x_max":882,"o":"m 882 788 l 839 540 l 42 540 l 85 788 l 882 788 m 817 417 l 774 169 l -22 169 l 21 417 l 817 417 z "},">":{"ha":671,"x_min":-22,"x_max":639,"o":"m 85 783 l 426 783 l 639 479 l 319 176 l -22 176 l 299 479 l 85 783 z "},"?":{"ha":738,"x_min":42,"x_max":754,"o":"m 468 1063 q 677 1003 600 1063 q 754 831 754 944 q 747 764 754 803 q 628 563 726 638 q 392 486 529 489 l 372 374 l 115 374 l 167 660 l 271 660 q 417 683 363 660 q 481 763 471 706 q 482 781 482 768 q 465 826 482 810 q 419 842 449 842 q 358 819 381 842 q 326 757 336 796 l 68 757 q 131 911 81 842 q 267 1022 181 981 q 468 1063 353 1063 m 364 267 l 318 0 l 42 0 l 88 267 l 364 267 z "},"@":{"ha":1822,"x_min":35,"x_max":1821,"o":"m 1156 1157 q 1510 1098 1361 1157 q 1740 923 1660 1039 q 1821 639 1821 807 q 1808 501 1821 575 q 1699 244 1783 363 q 1496 58 1614 126 q 1258 -10 1378 -10 q 1094 35 1156 -10 q 1029 168 1033 79 q 894 35 968 81 q 719 -10 819 -10 q 544 58 608 -10 q 481 240 481 125 q 501 379 481 304 q 614 589 535 497 q 804 733 693 681 q 1039 785 915 785 q 1252 726 1172 785 q 1332 554 1332 667 q 1314 442 1332 501 l 1279 329 q 1268 274 1268 292 q 1281 238 1268 249 q 1319 228 1293 228 q 1402 257 1360 228 q 1479 345 1444 286 q 1529 492 1514 404 q 1538 581 1538 538 q 1419 840 1538 746 q 1075 935 1301 935 q 705 853 867 935 q 443 631 543 771 q 313 317 343 490 q 303 208 303 264 q 424 -69 303 31 q 794 -167 544 -169 l 706 -387 q 205 -240 375 -383 q 35 161 35 -96 q 49 317 35 239 q 260 768 94 578 q 662 1058 425 958 q 1156 1157 899 1157 m 858 228 q 967 269 914 228 q 1044 397 1021 310 q 1053 454 1053 431 q 1023 527 1053 504 q 949 550 993 550 q 839 509 892 550 q 763 382 786 468 q 754 326 754 351 q 784 251 754 275 q 858 228 814 228 z "},"A":{"ha":1044,"x_min":-81,"x_max":953,"o":"m 639 164 l 290 164 l 207 0 l -81 0 l 451 979 l 765 979 l 953 0 l 664 0 l 639 164 m 607 369 l 557 689 l 394 369 l 607 369 z "},"B":{"ha":929,"x_min":-11,"x_max":914,"o":"m 910 729 q 837 583 893 642 q 703 506 781 524 q 815 438 775 489 q 854 315 854 386 q 850 268 854 293 q 731 70 828 140 q 475 0 633 0 l -11 0 l 161 983 l 636 983 q 842 931 769 983 q 914 781 914 879 q 910 729 914 757 m 504 590 q 621 676 606 590 q 624 700 624 693 q 533 765 624 765 l 397 765 l 367 590 l 504 590 m 578 308 q 581 331 581 325 q 488 400 581 400 l 333 400 l 301 219 l 456 219 q 578 308 564 219 z "},"C":{"ha":1049,"x_min":38,"x_max":1024,"o":"m 617 993 q 834 947 743 993 q 973 815 925 900 q 1024 617 1021 729 l 735 617 q 677 708 721 675 q 568 740 633 740 q 411 673 478 740 q 324 493 344 606 q 318 429 318 464 q 361 294 318 343 q 481 244 404 244 q 601 278 546 244 q 693 369 657 311 l 981 369 q 773 95 915 197 q 442 -7 631 -7 q 224 42 315 -7 q 85 178 132 90 q 38 383 38 267 q 47 493 38 439 q 151 753 72 639 q 351 930 231 867 q 617 993 471 993 z "},"D":{"ha":1025,"x_min":-11,"x_max":988,"o":"m 978 494 q 872 240 954 353 q 663 64 790 128 q 381 0 536 0 l -11 0 l 161 983 l 553 983 q 787 935 689 983 q 936 800 885 888 q 988 597 988 713 q 978 494 988 543 m 397 244 q 600 310 519 244 q 701 494 681 375 q 707 554 707 522 q 649 695 707 646 q 486 744 590 744 l 393 744 l 304 244 l 397 244 z "},"E":{"ha":758,"x_min":-11,"x_max":794,"o":"m 397 765 l 368 603 l 688 603 l 650 396 l 332 396 l 301 218 l 661 218 l 622 0 l -11 0 l 161 983 l 794 983 l 757 765 l 397 765 z "},"F":{"ha":781,"x_min":-11,"x_max":829,"o":"m 829 983 l 790 765 l 397 765 l 367 590 l 660 590 l 625 385 l 331 385 l 263 0 l -11 0 l 161 983 l 829 983 z "},"G":{"ha":1051,"x_min":38,"x_max":1025,"o":"m 628 992 q 915 898 813 992 q 1025 653 1017 804 l 736 653 q 683 717 722 693 q 586 740 644 740 q 415 673 486 740 q 324 493 344 606 q 317 422 317 451 q 526 233 317 233 q 655 267 596 233 q 756 365 714 300 l 483 365 l 517 560 l 1017 560 l 969 289 q 772 74 899 154 q 456 -7 644 -7 q 231 42 325 -7 q 87 182 136 92 q 38 393 38 272 q 47 504 38 450 q 152 758 72 647 q 355 930 232 868 q 628 992 478 992 z "},"H":{"ha":1031,"x_min":-11,"x_max":1040,"o":"m 1040 983 l 868 0 l 596 0 l 665 397 l 332 397 l 263 0 l -11 0 l 161 983 l 435 983 l 371 615 l 704 615 l 768 983 l 1040 983 z "},"I":{"ha":425,"x_min":-11,"x_max":435,"o":"m 435 983 l 263 0 l -11 0 l 161 983 l 435 983 z "},"J":{"ha":792,"x_min":-14,"x_max":808,"o":"m 808 983 l 693 331 q 561 77 664 164 q 300 -10 458 -10 q 69 62 153 -10 q -14 271 -14 133 q -6 360 -14 313 l 265 360 q 261 313 261 333 q 331 236 261 236 q 421 331 406 236 l 536 983 l 808 983 z "},"K":{"ha":1003,"x_min":-11,"x_max":1074,"o":"m 611 503 l 901 0 l 572 0 l 339 435 l 263 0 l -11 0 l 161 983 l 435 983 l 360 557 l 747 983 l 1074 983 l 611 503 z "},"L":{"ha":683,"x_min":-11,"x_max":606,"o":"m 299 207 l 606 207 l 569 0 l -11 0 l 161 983 l 435 983 l 299 207 z "},"M":{"ha":1294,"x_min":-10,"x_max":1304,"o":"m 1304 979 l 1133 0 l 861 0 l 958 554 l 679 0 l 444 0 l 361 553 l 263 0 l -10 0 l 161 979 l 496 979 l 625 344 l 972 979 l 1304 979 z "},"N":{"ha":1060,"x_min":-11,"x_max":1069,"o":"m 897 0 l 624 0 l 358 549 l 263 0 l -11 0 l 161 982 l 435 982 l 700 426 l 796 982 l 1069 982 l 897 0 z "},"O":{"ha":1076,"x_min":39,"x_max":1038,"o":"m 592 999 q 830 944 729 999 q 984 792 931 890 q 1038 565 1038 694 q 1026 446 1038 513 q 930 209 1003 313 q 743 48 857 106 q 488 -10 629 -10 q 245 44 346 -10 q 92 194 144 97 q 39 419 39 290 q 50 543 39 486 q 147 781 74 678 q 335 941 221 883 q 592 999 450 999 m 571 746 q 403 681 471 746 q 315 507 335 617 q 310 443 310 478 q 360 297 310 350 q 507 244 411 244 q 674 310 606 244 q 761 483 743 375 q 768 550 768 522 q 717 694 768 642 q 571 746 665 746 z "},"P":{"ha":881,"x_min":-11,"x_max":885,"o":"m 319 329 l 263 0 l -11 0 l 161 983 l 569 983 q 805 915 725 983 q 885 726 885 846 q 878 654 885 696 q 806 488 861 561 q 661 372 751 414 q 454 329 571 329 l 319 329 m 463 544 q 559 574 525 544 q 601 654 593 603 q 604 682 604 674 q 501 763 604 763 l 397 763 l 358 544 l 463 544 z "},"Q":{"ha":1076,"x_min":39,"x_max":1038,"o":"m 1026 446 q 942 228 1006 325 q 782 69 879 131 l 926 -165 l 601 -165 l 524 -8 q 488 -10 513 -10 q 245 44 346 -10 q 92 194 144 97 q 39 419 39 290 q 50 543 39 486 q 147 781 74 678 q 335 941 221 883 q 592 999 450 999 q 830 944 729 999 q 984 792 931 890 q 1038 565 1038 694 q 1026 446 1038 513 m 315 507 q 310 443 310 478 q 360 297 310 350 q 507 244 411 244 q 674 310 606 244 q 761 483 743 375 q 768 550 768 522 q 717 694 768 642 q 571 746 665 746 q 403 681 471 746 q 315 507 335 617 z "},"R":{"ha":907,"x_min":-11,"x_max":911,"o":"m 593 983 q 831 913 750 983 q 911 726 911 843 q 906 667 911 708 q 815 487 886 563 q 632 381 744 411 l 790 0 l 489 0 l 353 363 l 325 363 l 263 0 l -11 0 l 161 983 l 593 983 m 358 546 l 492 546 q 625 649 606 546 q 626 672 626 657 q 531 753 626 753 l 396 753 l 358 546 z "},"S":{"ha":847,"x_min":14,"x_max":824,"o":"m 768 246 q 706 117 756 175 q 574 24 657 58 q 386 -10 492 -10 q 113 74 211 -10 q 14 306 15 158 l 304 306 q 323 228 299 253 q 390 204 347 204 q 448 222 425 204 q 476 272 471 240 q 478 288 478 278 q 442 353 478 329 q 326 413 407 378 q 198 474 249 444 q 111 557 147 504 q 75 689 75 610 q 82 758 75 717 q 208 935 103 871 q 457 999 313 999 q 729 918 639 999 q 824 694 819 838 l 531 694 q 513 763 533 740 q 456 785 493 785 q 399 765 421 785 q 376 707 376 746 q 410 646 376 669 q 521 592 444 622 q 651 531 600 560 q 738 449 701 501 q 775 315 775 396 q 768 246 775 288 z "},"T":{"ha":831,"x_min":64,"x_max":901,"o":"m 901 983 l 863 765 l 599 765 l 464 0 l 192 0 l 325 765 l 64 765 l 101 983 l 901 983 z "},"U":{"ha":983,"x_min":49,"x_max":1001,"o":"m 429 983 l 331 422 q 325 369 325 383 q 356 280 325 311 q 449 249 386 249 q 569 294 524 249 q 631 422 615 340 l 729 983 l 1001 983 l 903 422 q 804 186 878 283 q 625 40 731 89 q 397 -10 519 -10 q 142 74 236 -10 q 49 317 49 158 q 58 422 49 369 l 157 983 l 429 983 z "},"V":{"ha":1035,"x_min":92,"x_max":1115,"o":"m 382 983 l 481 275 l 825 983 l 1115 983 l 607 0 l 256 0 l 92 983 l 382 983 z "},"W":{"ha":1494,"x_min":129,"x_max":1538,"o":"m 1538 983 l 1136 0 l 797 0 l 767 607 l 525 0 l 186 0 l 129 983 l 424 983 l 414 314 l 683 983 l 982 983 l 1017 314 l 1243 983 l 1538 983 z "},"X":{"ha":1015,"x_min":-69,"x_max":1074,"o":"m 672 486 l 924 0 l 600 0 l 456 279 l 243 0 l -69 0 l 339 506 l 92 983 l 415 983 l 556 713 l 761 983 l 1074 983 l 672 486 z "},"Y":{"ha":978,"x_min":92,"x_max":1058,"o":"m 1058 983 l 593 313 l 539 0 l 267 0 l 319 313 l 92 983 l 404 983 l 511 608 l 750 983 l 1058 983 z "},"Z":{"ha":850,"x_min":-19,"x_max":868,"o":"m 322 218 l 736 218 l 697 0 l -19 0 l 17 207 l 522 765 l 117 765 l 156 983 l 868 983 l 832 776 l 322 218 z "},"[":{"ha":686,"x_min":-11,"x_max":751,"o":"m 751 1324 l 713 1104 l 488 1104 l 285 -50 l 510 -50 l 471 -269 l -11 -269 l 271 1324 l 751 1324 z "},"\\":{"ha":1150,"x_min":389,"x_max":722,"o":"m 461 -268 l 389 1324 l 650 1324 l 722 -268 l 461 -268 z "},"]":{"ha":682,"x_min":-68,"x_max":694,"o":"m -68 -269 l -29 -50 l 197 -50 l 400 1104 l 174 1104 l 214 1324 l 694 1324 l 413 -269 l -68 -269 z "},"^":{"ha":1017,"x_min":-29,"x_max":914,"o":"m 242 228 l -29 228 l 443 983 l 710 983 l 914 228 l 643 228 l 522 672 l 242 228 z "},"_":{"ha":985,"x_min":-31,"x_max":917,"o":"m 917 -57 l 869 -322 l -31 -322 l 17 -57 l 917 -57 z "},"`":{"ha":440,"x_min":97,"x_max":451,"o":"m 451 1017 l 419 833 l 97 971 l 133 1174 l 451 1017 z "},"a":{"ha":947,"x_min":28,"x_max":940,"o":"m 425 789 q 570 753 513 789 q 646 656 628 717 l 668 779 l 940 779 l 801 0 l 531 0 l 553 124 q 447 26 514 63 q 297 -10 381 -10 q 99 72 171 -10 q 28 297 28 153 q 39 414 28 347 q 117 614 60 529 q 254 744 174 699 q 425 789 335 789 m 486 550 q 376 508 422 550 q 315 390 329 465 q 311 350 311 369 q 343 260 311 292 q 429 229 375 229 q 538 272 490 229 q 599 390 586 315 q 603 431 603 411 q 571 519 603 488 q 486 550 539 550 z "},"b":{"ha":946,"x_min":4,"x_max":915,"o":"m 4 0 l 186 1028 l 458 1028 l 393 656 q 499 753 433 718 q 647 789 564 789 q 842 710 768 789 q 915 492 915 631 q 906 390 915 440 q 824 177 883 268 q 682 38 765 86 q 506 -10 599 -10 q 370 26 424 -10 q 299 124 317 61 l 276 0 l 4 0 m 458 229 q 568 272 521 229 q 628 390 615 314 q 632 432 632 414 q 600 519 632 488 q 515 550 568 550 q 406 507 453 550 q 344 390 358 464 q 340 351 340 369 q 373 261 340 293 q 458 229 406 229 z "},"c":{"ha":858,"x_min":28,"x_max":832,"o":"m 490 789 q 739 705 647 789 q 832 472 831 621 l 543 472 q 517 534 539 513 q 456 556 496 556 q 367 514 406 556 q 314 390 329 472 q 308 338 308 351 q 333 253 308 282 q 397 225 357 225 q 467 247 438 225 q 513 308 496 269 l 803 308 q 631 75 749 160 q 363 -10 514 -10 q 119 77 210 -10 q 28 317 28 164 q 38 414 28 353 q 122 614 58 529 q 282 744 186 699 q 490 789 378 789 z "},"d":{"ha":938,"x_min":25,"x_max":979,"o":"m 979 1028 l 797 0 l 525 0 l 547 124 q 442 26 508 61 q 293 -10 375 -10 q 153 28 214 -10 q 59 136 93 65 q 25 304 25 207 q 35 414 25 360 q 113 614 56 529 q 250 744 169 699 q 421 789 331 789 q 565 753 508 789 q 640 656 622 718 l 707 1028 l 979 1028 m 482 550 q 372 508 418 550 q 311 390 325 465 q 307 350 307 369 q 339 260 307 292 q 425 229 371 229 q 534 272 486 229 q 594 390 582 315 q 599 429 599 411 q 567 518 599 486 q 482 550 535 550 z "},"e":{"ha":858,"x_min":28,"x_max":832,"o":"m 499 789 q 743 707 654 789 q 832 485 832 625 q 825 404 832 450 q 806 340 813 357 l 292 340 q 290 308 290 329 q 383 208 290 208 q 453 228 424 208 q 499 279 483 247 l 788 279 q 625 71 740 151 q 358 -10 510 -10 q 117 75 206 -10 q 28 308 28 160 q 36 403 28 353 q 123 608 57 521 q 286 742 189 696 q 499 789 383 789 m 557 454 q 560 485 560 465 q 532 552 560 529 q 461 575 504 575 q 368 544 407 575 q 313 454 329 514 l 557 454 z "},"f":{"ha":524,"x_min":7,"x_max":601,"o":"m 560 860 q 532 861 550 861 q 457 842 483 861 q 419 779 431 824 l 546 779 l 506 551 l 378 551 l 281 0 l 7 0 l 104 551 l 17 551 l 56 779 l 144 779 q 276 1013 172 931 q 544 1094 379 1094 q 601 1092 563 1094 l 560 860 z "},"g":{"ha":942,"x_min":-15,"x_max":940,"o":"m 297 -10 q 158 28 218 -10 q 63 136 97 65 q 29 304 29 207 q 39 414 29 360 q 117 614 60 529 q 255 744 174 699 q 426 789 336 789 q 572 753 514 789 q 646 656 629 717 l 669 779 l 940 779 l 804 8 q 730 -189 785 -101 q 580 -329 675 -276 q 356 -382 485 -382 q 81 -297 176 -382 q -15 -65 -14 -212 l 253 -65 q 284 -125 256 -104 q 367 -146 313 -146 q 532 8 506 -146 l 553 124 q 447 26 513 63 q 297 -10 381 -10 m 486 550 q 376 508 424 550 q 315 390 329 465 q 311 350 311 369 q 343 260 311 292 q 429 229 375 229 q 540 272 492 229 q 600 390 588 315 q 604 429 604 411 q 572 518 604 486 q 486 550 539 550 z "},"h":{"ha":953,"x_min":7,"x_max":903,"o":"m 665 786 q 841 722 779 786 q 903 540 903 657 q 894 453 903 499 l 815 0 l 543 0 l 617 418 q 621 456 621 439 q 592 535 621 507 q 513 563 564 563 q 413 528 454 563 q 356 429 371 493 l 281 0 l 7 0 l 188 1028 l 461 1028 l 394 650 q 510 749 440 713 q 665 786 581 786 z "},"i":{"ha":422,"x_min":6,"x_max":481,"o":"m 157 972 q 181 1053 157 1017 q 249 1113 206 1090 q 344 1135 292 1135 q 444 1103 408 1135 q 481 1019 481 1071 q 456 939 481 976 q 390 880 432 901 q 294 858 347 858 q 193 890 229 858 q 157 972 157 922 m 417 779 l 279 0 l 6 0 l 143 779 l 417 779 z "},"j":{"ha":424,"x_min":-175,"x_max":489,"o":"m 303 858 q 202 890 239 858 q 165 972 165 922 q 190 1053 165 1017 q 257 1113 214 1090 q 353 1135 300 1135 q 453 1103 417 1135 q 489 1019 489 1071 q 465 939 489 976 q 398 880 440 901 q 303 858 356 858 m -135 -139 l -76 -139 q -25 -124 -43 -139 q -1 -78 -7 -110 l 150 779 l 424 779 l 272 -74 q -79 -372 222 -372 l -175 -372 l -135 -139 z "},"k":{"ha":890,"x_min":4,"x_max":946,"o":"m 574 397 l 803 0 l 489 0 l 335 331 l 276 0 l 4 0 l 185 1028 l 457 1028 l 363 486 l 628 779 l 946 779 l 574 397 z "},"l":{"ha":418,"x_min":7,"x_max":461,"o":"m 461 1028 l 281 0 l 7 0 l 188 1028 l 461 1028 z "},"m":{"ha":1482,"x_min":7,"x_max":1431,"o":"m 1169 786 q 1363 719 1296 786 q 1431 533 1431 653 q 1424 453 1431 501 l 1343 0 l 1071 0 l 1144 418 q 1147 450 1147 440 q 1118 524 1147 497 q 1039 550 1089 550 q 938 515 979 550 q 886 418 897 481 l 811 0 l 539 0 l 614 418 q 617 447 617 440 q 588 523 617 496 q 507 550 558 550 q 406 515 447 550 q 353 414 364 479 l 353 419 l 279 0 l 7 0 l 143 779 l 417 779 l 396 661 q 505 752 439 718 q 651 786 571 786 q 799 747 739 786 q 883 636 858 708 q 1011 745 936 704 q 1169 786 1086 786 z "},"n":{"ha":954,"x_min":7,"x_max":903,"o":"m 665 786 q 840 721 778 786 q 903 539 903 656 q 894 453 903 499 l 815 0 l 543 0 l 617 418 q 619 454 619 431 q 591 534 619 506 q 511 563 563 563 q 408 524 450 563 q 353 414 365 485 l 353 419 l 279 0 l 7 0 l 143 779 l 417 779 l 393 649 q 509 749 439 711 q 665 786 579 786 z "},"o":{"ha":888,"x_min":28,"x_max":860,"o":"m 507 789 q 691 749 611 789 q 815 635 771 710 q 860 457 860 560 q 851 365 860 414 q 764 165 831 250 q 599 35 697 81 q 386 -10 500 -10 q 199 30 279 -10 q 73 145 118 69 q 28 324 28 221 q 36 414 28 367 q 124 614 57 529 q 292 744 192 699 q 507 789 392 789 m 472 553 q 372 511 417 553 q 313 390 328 469 q 308 346 308 365 q 338 257 308 288 q 415 226 368 226 q 515 268 471 226 q 575 390 560 310 q 579 435 579 415 q 549 523 579 493 q 472 553 519 553 z "},"p":{"ha":944,"x_min":-60,"x_max":917,"o":"m 649 789 q 843 710 769 789 q 917 492 917 631 q 907 390 917 440 q 826 177 885 268 q 685 38 768 86 q 508 -10 601 -10 q 372 26 425 -10 q 301 124 319 61 l 214 -372 l -60 -372 l 143 779 l 417 779 l 394 656 q 500 753 433 718 q 649 789 567 789 m 460 229 q 571 272 524 229 q 631 390 618 314 q 635 431 635 411 q 603 519 635 488 q 517 550 571 550 q 408 507 454 550 q 347 390 361 464 q 343 349 343 368 q 375 260 343 292 q 460 229 407 229 z "},"q":{"ha":938,"x_min":26,"x_max":938,"o":"m 938 779 l 735 -372 l 463 -372 l 547 106 q 439 20 496 49 q 315 -8 382 -8 q 103 76 179 -8 q 26 306 26 161 q 36 410 26 360 q 117 613 56 528 q 263 741 178 697 q 443 785 349 785 q 569 762 518 785 q 650 689 621 739 l 665 779 l 938 779 m 483 549 q 376 507 426 549 q 313 385 326 465 q 308 346 308 364 q 343 258 308 286 q 428 229 378 229 q 533 270 483 229 q 597 390 583 311 q 600 428 600 404 q 565 518 600 488 q 483 549 531 549 z "},"r":{"ha":626,"x_min":7,"x_max":681,"o":"m 390 633 q 526 744 450 703 q 681 786 601 786 l 628 494 l 550 494 q 406 459 458 494 q 339 336 354 424 l 279 0 l 7 0 l 143 779 l 417 779 l 390 633 z "},"s":{"ha":785,"x_min":11,"x_max":764,"o":"m 406 789 q 663 714 574 789 q 764 515 751 639 l 496 515 q 463 578 494 557 q 382 599 432 599 q 325 587 346 599 q 304 550 304 575 q 338 510 304 525 q 442 476 371 494 q 584 433 526 456 q 684 365 642 410 q 726 246 726 319 q 721 193 726 217 q 615 47 703 103 q 376 -10 526 -10 q 117 62 215 -10 q 11 264 18 133 l 279 264 q 309 201 275 222 q 399 179 343 179 q 475 224 465 179 q 447 271 481 254 q 338 306 414 288 q 197 349 251 328 q 101 414 142 369 q 60 532 60 458 q 65 583 60 547 q 168 731 81 674 q 406 789 256 789 z "},"t":{"ha":589,"x_min":33,"x_max":589,"o":"m 363 300 q 361 281 361 293 q 375 244 361 256 q 421 233 389 233 l 496 233 l 453 0 l 342 0 q 82 221 82 0 q 90 306 82 260 l 135 551 l 33 551 l 74 779 l 175 779 l 208 968 l 481 968 l 447 779 l 589 779 l 549 551 l 407 551 l 363 300 z "},"u":{"ha":939,"x_min":36,"x_max":933,"o":"m 933 779 l 796 0 l 522 0 l 544 129 q 428 30 499 67 q 274 -7 358 -7 q 99 58 161 -7 q 36 240 36 124 q 44 328 36 282 l 125 779 l 396 779 l 322 361 q 319 326 319 349 q 348 247 319 275 q 428 218 376 218 q 531 257 489 218 q 586 367 574 296 l 586 360 l 660 779 l 933 779 z "},"v":{"ha":868,"x_min":47,"x_max":924,"o":"m 394 263 l 632 779 l 924 779 l 517 0 l 178 0 l 47 779 l 338 779 l 394 263 z "},"w":{"ha":1213,"x_min":47,"x_max":1282,"o":"m 1282 779 l 951 0 l 644 0 l 613 482 l 407 0 l 100 0 l 47 779 l 318 779 l 311 258 l 525 779 l 817 779 l 851 254 l 1029 779 l 1282 779 z "},"x":{"ha":860,"x_min":-78,"x_max":914,"o":"m 576 381 l 788 0 l 482 0 l 372 199 l 222 0 l -78 0 l 254 408 l 49 779 l 354 779 l 464 582 l 614 779 l 914 779 l 576 381 z "},"y":{"ha":899,"x_min":-29,"x_max":967,"o":"m 343 779 l 433 343 l 665 779 l 967 779 l 271 -372 l -29 -372 l 233 33 l 40 779 l 343 779 z "},"z":{"ha":700,"x_min":-40,"x_max":726,"o":"m 300 226 l 643 226 l 601 0 l -40 0 l -1 215 l 374 553 l 64 553 l 104 779 l 726 779 l 688 565 l 300 226 z "},"{":{"ha":675,"x_min":44,"x_max":772,"o":"m 310 515 q 402 469 372 503 q 432 379 432 436 q 428 331 432 358 q 393 200 418 278 q 357 64 365 114 q 349 -32 349 13 q 387 -192 349 -129 q 488 -282 425 -254 l 483 -301 l 204 -301 q 115 -213 158 -279 q 72 -33 72 -147 q 82 68 72 15 q 119 204 92 118 q 156 338 147 290 q 158 367 158 357 q 131 440 158 411 q 44 471 104 468 l 60 563 q 172 604 135 567 q 219 696 210 642 q 229 822 226 740 q 240 965 229 906 q 308 1156 261 1078 q 404 1276 354 1235 q 493 1335 454 1318 l 772 1335 l 768 1315 q 609 1194 678 1281 q 515 969 540 1108 q 504 831 507 919 q 501 778 503 818 q 493 703 499 738 q 435 578 479 622 q 310 518 390 533 l 310 515 z "},"|":{"ha":351,"x_min":-79,"x_max":431,"o":"m 194 -190 l -79 -190 l 157 1142 l 431 1142 l 194 -190 z "},"}":{"ha":647,"x_min":-94,"x_max":633,"o":"m 369 518 q 274 562 304 532 q 243 643 243 592 q 246 679 243 667 q 281 806 256 731 q 318 946 307 892 q 326 1040 326 996 q 290 1215 326 1142 q 192 1315 253 1289 l 196 1335 l 474 1335 q 562 1247 519 1313 q 604 1069 604 1182 q 594 965 604 1018 q 557 826 585 911 q 522 696 532 749 q 519 667 519 676 q 547 591 519 621 q 633 563 574 561 l 618 471 q 508 434 549 475 q 458 338 468 393 q 447 208 450 292 q 436 68 447 126 q 369 -123 415 -44 q 273 -243 322 -201 q 185 -301 224 -285 l -94 -301 l -90 -282 q 19 -208 -35 -261 q 112 -78 72 -154 q 167 88 151 -1 q 179 226 176 139 q 190 354 182 310 q 246 461 201 422 q 369 515 290 500 l 369 518 z "},"~":{"ha":936,"x_min":1,"x_max":933,"o":"m 361 604 q 444 590 408 604 q 528 550 481 576 q 583 521 561 531 q 629 511 606 511 q 690 534 667 511 q 729 607 714 557 l 933 607 q 784 353 878 435 q 572 271 690 271 q 491 284 525 271 q 408 325 457 297 q 353 354 376 344 q 306 364 331 364 q 244 341 268 364 q 204 268 221 318 l 1 268 q 152 522 60 440 q 361 604 244 604 z "}," ":{"ha":257,"x_min":0,"x_max":0,"o":""},"¡":{"ha":601,"x_min":31,"x_max":529,"o":"m 31 -250 l 191 419 l 438 419 l 347 -250 l 31 -250 m 187 524 l 238 790 l 529 790 l 479 524 l 187 524 z "},"¢":{"ha":806,"x_min":28,"x_max":785,"o":"m 443 496 q 347 458 386 496 q 296 354 308 421 q 293 317 293 340 q 319 240 293 267 q 393 214 344 214 q 462 233 428 214 q 510 286 496 251 l 760 286 q 632 88 729 163 q 408 -3 535 13 l 388 -117 l 274 -117 l 294 -3 q 98 82 168 11 q 28 274 28 153 q 35 356 28 319 q 165 603 63 511 q 419 711 268 696 l 439 824 l 553 824 l 533 711 q 715 633 646 699 q 785 458 785 567 q 783 424 785 436 l 533 424 q 503 478 528 460 q 443 496 478 496 z "},"£":{"ha":894,"x_min":15,"x_max":897,"o":"m 643 736 q 626 811 646 783 q 563 839 607 839 q 488 809 517 839 q 450 725 460 779 q 446 685 446 707 q 457 572 446 653 l 696 572 l 663 390 l 456 390 q 413 292 443 343 q 331 204 382 242 l 803 204 l 764 -7 l 25 -7 l 15 122 q 137 240 93 178 q 197 390 181 303 l 47 390 l 79 572 l 190 572 q 186 649 186 608 q 196 757 186 704 q 330 980 221 899 q 593 1061 439 1061 q 820 986 743 1061 q 897 785 897 911 q 894 736 897 769 l 643 736 z "},"¤":{"ha":819,"x_min":46,"x_max":774,"o":"m 689 682 q 721 572 721 635 q 717 526 721 551 q 636 372 700 433 l 694 301 l 576 201 l 503 292 q 368 271 440 271 q 236 293 296 271 l 128 201 l 46 301 l 133 375 q 106 479 106 419 q 110 526 106 501 q 188 678 126 617 l 125 754 l 243 854 l 322 758 q 457 778 388 778 q 581 758 525 778 l 693 854 l 774 754 l 689 682 m 318 524 q 317 501 317 515 q 338 447 317 465 q 394 428 360 428 q 466 451 435 428 q 506 524 497 475 q 508 547 508 540 q 486 603 508 585 q 429 622 464 622 q 359 597 390 622 q 318 524 328 572 z "},"¥":{"ha":985,"x_min":25,"x_max":1063,"o":"m 803 610 l 926 610 l 896 432 l 681 432 l 638 371 l 886 371 l 853 192 l 576 192 l 543 0 l 271 0 l 304 192 l 25 192 l 57 371 l 306 371 l 285 432 l 67 432 l 99 610 l 224 610 l 96 983 l 408 983 l 508 567 l 754 983 l 1063 983 l 803 610 z "},"¦":{"ha":558,"x_min":25,"x_max":533,"o":"m 260 1142 l 533 1142 l 431 558 l 157 558 l 260 1142 m 299 -190 l 25 -190 l 128 394 l 401 394 l 299 -190 z "},"§":{"ha":821,"x_min":14,"x_max":808,"o":"m 536 725 q 538 754 538 736 q 489 815 538 815 q 450 800 465 815 q 435 753 435 785 q 474 687 435 718 q 617 603 514 656 q 789 385 789 514 q 786 349 789 361 q 733 231 775 282 q 606 146 690 181 q 668 -14 668 75 q 664 -58 668 -36 q 546 -242 643 -172 q 293 -311 449 -311 q 85 -244 157 -311 q 14 -62 14 -176 q 15 -28 14 -40 l 285 -28 q 283 -54 283 -37 q 332 -118 283 -118 q 386 -72 376 -118 q 388 -58 388 -68 q 349 9 388 -22 q 204 96 310 40 q 33 313 33 182 q 36 349 33 336 q 90 470 47 417 q 215 553 133 524 q 154 710 154 619 q 158 756 154 733 q 276 939 179 869 q 529 1008 374 1008 q 737 940 665 1008 q 808 757 808 871 q 807 725 808 736 l 536 725 m 499 372 q 481 423 499 404 q 431 442 464 442 q 356 409 385 442 q 326 328 326 376 q 344 276 326 296 q 394 257 361 257 q 469 291 440 257 q 499 372 499 325 z "},"¨":{"ha":563,"x_min":104,"x_max":624,"o":"m 104 949 q 143 1043 104 1004 q 235 1082 182 1082 q 302 1057 276 1082 q 328 992 328 1032 q 288 901 328 939 q 196 863 249 863 q 130 887 156 863 q 104 949 104 911 m 403 971 q 449 1051 413 1019 q 531 1082 485 1082 q 598 1057 572 1082 q 624 992 624 1032 q 585 901 624 939 q 493 863 546 863 q 427 888 453 863 q 401 951 401 913 q 403 971 401 964 z "},"©":{"ha":1076,"x_min":38,"x_max":1039,"o":"m 628 997 q 360 933 483 997 q 156 756 238 869 q 47 496 74 642 q 38 392 38 446 q 88 182 38 272 q 231 42 138 92 q 450 -7 324 -7 q 717 57 594 -7 q 922 235 840 121 q 1029 496 1004 350 q 1039 603 1039 549 q 989 810 1039 721 q 847 948 939 899 q 628 997 754 997 m 614 915 q 862 829 772 915 q 951 594 951 743 q 942 496 951 557 q 853 276 919 371 q 687 128 788 181 q 464 75 586 75 q 215 162 304 75 q 126 397 126 249 q 136 496 126 447 q 224 717 158 622 q 390 863 289 811 q 614 915 490 915 m 599 806 q 780 739 710 806 q 849 560 850 672 l 621 560 q 601 607 618 589 q 554 625 583 625 q 485 592 514 625 q 444 494 456 558 q 440 450 440 469 q 459 387 440 408 q 510 365 478 365 q 562 383 539 365 q 599 431 585 401 l 826 431 q 695 251 789 318 q 490 185 601 185 q 297 250 368 185 q 226 429 226 315 q 232 496 226 464 q 301 660 249 590 q 430 768 353 731 q 599 806 507 806 z "},"ª":{"ha":636,"x_min":26,"x_max":668,"o":"m 303 989 q 398 968 363 989 q 451 904 433 947 l 465 982 l 668 982 l 582 493 l 379 493 l 393 571 q 317 507 358 528 q 217 486 275 486 q 78 535 131 486 q 26 675 26 585 q 32 736 26 707 q 128 922 53 854 q 303 989 204 989 m 346 828 q 271 797 303 828 q 239 714 239 765 q 260 665 239 682 q 314 649 281 649 q 384 672 354 649 q 422 739 414 696 q 424 757 424 746 q 402 809 424 790 q 346 828 381 828 z "},"«":{"ha":817,"x_min":63,"x_max":801,"o":"m 132 167 l 63 410 l 218 653 l 467 653 l 308 410 l 381 167 l 132 167 m 467 167 l 397 410 l 553 653 l 801 653 l 644 410 l 715 167 l 467 167 z "},"¬":{"ha":1088,"x_min":35,"x_max":1035,"o":"m 1035 618 l 967 233 l 694 233 l 726 413 l 35 413 l 69 618 l 1035 618 z "},"­":{"ha":778,"x_min":82,"x_max":751,"o":"m 751 594 l 711 368 l 82 368 l 122 594 l 751 594 z "},"®":{"ha":1132,"x_min":39,"x_max":1094,"o":"m 656 997 q 888 947 789 997 q 1041 807 988 897 q 1094 597 1094 717 q 1085 496 1094 544 q 974 235 1060 350 q 760 57 889 121 q 478 -7 631 -7 q 244 43 343 -7 q 92 185 146 93 q 39 396 39 276 q 47 496 39 444 q 159 757 74 643 q 374 934 244 871 q 656 997 503 997 m 997 496 q 1006 589 1006 546 q 910 828 1006 740 q 642 915 814 915 q 403 864 510 915 q 227 717 296 813 q 136 496 158 622 q 128 403 128 449 q 224 164 128 251 q 493 76 319 76 q 731 128 624 76 q 906 276 838 181 q 997 496 975 371 m 656 797 q 799 756 753 797 q 846 651 846 715 q 805 527 846 585 q 688 447 764 469 l 782 210 l 601 210 l 515 433 l 508 433 l 469 210 l 301 210 l 406 797 l 656 797 m 528 538 l 593 538 q 669 604 669 538 q 611 646 669 646 l 546 646 l 528 538 z "},"¯":{"ha":615,"x_min":86,"x_max":696,"o":"m 696 1053 l 664 871 l 86 871 l 118 1053 l 696 1053 z "},"°":{"ha":665,"x_min":29,"x_max":636,"o":"m 378 989 q 567 936 499 989 q 636 788 636 883 q 632 738 636 763 q 520 551 611 621 q 294 482 429 482 q 101 538 174 482 q 29 690 29 594 q 33 738 29 713 q 149 922 56 856 q 378 989 242 989 m 354 846 q 283 818 315 846 q 242 736 251 790 q 239 710 239 717 q 263 649 239 669 q 319 628 286 628 q 383 655 354 628 q 422 736 413 682 q 425 767 425 758 q 405 826 425 806 q 354 846 385 846 z "},"±":{"ha":772,"x_min":-22,"x_max":793,"o":"m 526 486 l 507 381 l 731 381 l 688 132 l -22 132 l 21 381 l 246 381 l 264 486 l 40 486 l 83 733 l 307 733 l 332 876 l 594 876 l 569 733 l 793 733 l 750 486 l 526 486 z "},"²":{"ha":565,"x_min":21,"x_max":553,"o":"m 365 994 q 508 958 463 994 q 553 868 553 922 q 503 765 553 807 q 336 676 454 722 l 257 644 l 506 644 l 479 489 l 21 489 l 47 639 l 250 743 q 335 829 326 785 l 335 835 q 314 853 335 853 q 267 796 279 853 l 65 796 q 167 939 88 883 q 365 994 247 994 z "},"³":{"ha":542,"x_min":8,"x_max":524,"o":"m 325 994 q 472 961 419 994 q 524 871 524 928 q 522 849 524 856 q 401 744 506 761 l 400 739 q 473 705 450 726 q 496 650 496 683 q 426 528 496 572 q 240 485 357 485 q 61 524 114 485 q 8 638 8 563 q 10 663 8 654 l 222 663 l 221 650 q 227 631 221 636 q 247 625 233 625 q 286 664 279 625 q 288 676 288 668 q 246 707 288 707 l 199 707 l 210 776 l 247 776 q 284 787 271 776 q 303 821 297 797 l 303 826 q 279 854 303 854 q 238 808 246 854 l 44 808 q 127 941 58 888 q 325 994 196 994 z "},"´":{"ha":386,"x_min":72,"x_max":481,"o":"m 444 971 l 72 833 l 104 1017 l 481 1174 l 444 971 z "},"µ":{"ha":960,"x_min":-57,"x_max":956,"o":"m 956 779 l 818 0 l 544 0 l 565 118 q 456 27 522 61 q 310 -7 390 -7 q 281 -3 296 -7 l 215 -372 l -57 -372 l 147 779 l 419 779 l 346 369 q 343 336 343 347 q 372 257 343 285 q 454 229 401 229 q 551 261 510 229 q 607 351 592 293 l 682 779 l 956 779 z "},"¶":{"ha":1031,"x_min":57,"x_max":1010,"o":"m 839 0 l 621 0 l 756 775 l 667 775 l 531 0 l 314 0 l 379 374 l 340 374 q 126 442 196 374 q 57 617 57 510 q 63 676 57 649 q 124 826 76 757 q 253 937 171 894 q 447 979 335 979 l 1010 979 l 839 0 z "},"·":{"ha":392,"x_min":39,"x_max":363,"o":"m 363 563 l 315 296 l 39 296 l 88 563 l 363 563 z "},"¸":{"ha":460,"x_min":-15,"x_max":439,"o":"m 285 -49 q 392 -79 344 -47 q 439 -178 439 -111 q 436 -212 439 -200 q 355 -335 421 -297 q 207 -374 289 -374 l -15 -374 l 10 -233 l 203 -233 q 239 -225 225 -233 q 256 -203 253 -217 q 247 -181 258 -189 q 214 -174 236 -174 l 104 -174 l 136 10 l 296 10 l 285 -49 z "},"¹":{"ha":374,"x_min":47,"x_max":367,"o":"m 47 821 l 75 978 l 367 978 l 281 489 l 78 489 l 136 821 l 47 821 z "},"º":{"ha":618,"x_min":28,"x_max":617,"o":"m 367 985 q 551 928 485 985 q 617 781 617 872 q 613 735 617 758 q 553 605 599 663 q 437 515 508 547 q 278 482 365 482 q 94 539 161 482 q 28 688 28 596 q 32 735 28 710 q 90 863 44 807 q 206 952 135 919 q 367 985 278 985 m 339 829 q 274 805 301 829 q 238 735 247 781 q 235 710 235 715 q 253 656 235 675 q 304 638 272 638 q 369 663 342 638 q 406 735 396 688 q 408 760 408 751 q 390 812 408 794 q 339 829 371 829 z "},"»":{"ha":817,"x_min":26,"x_max":765,"o":"m 186 410 l 113 653 l 363 653 l 431 410 l 276 167 l 26 167 l 186 410 m 521 410 l 447 653 l 699 653 l 765 410 l 613 167 l 361 167 l 521 410 z "},"¼":{"ha":1185,"x_min":32,"x_max":1099,"o":"m 1019 983 l 315 0 l 47 0 l 753 983 l 1019 983 m 32 821 l 60 978 l 351 978 l 265 489 l 63 489 l 121 821 l 32 821 m 1078 83 l 1026 83 l 1013 0 l 808 0 l 822 83 l 546 83 l 565 189 l 819 489 l 1099 489 l 1046 194 l 1099 194 l 1078 83 m 882 357 l 757 200 l 854 200 l 882 357 z "},"½":{"ha":1231,"x_min":56,"x_max":1156,"o":"m 1040 986 l 324 0 l 56 0 l 775 986 l 1040 986 m 160 821 l 71 821 l 99 978 l 390 978 l 304 489 l 101 489 l 160 821 m 968 504 q 1110 468 1065 504 q 1156 378 1156 432 q 1106 274 1156 317 q 939 186 1057 232 l 860 154 l 1108 154 l 1082 -1 l 624 -1 l 650 149 l 853 253 q 938 339 929 294 l 938 344 q 917 363 938 363 q 869 306 882 363 l 668 306 q 770 449 690 393 q 968 504 850 504 z "},"¾":{"ha":1338,"x_min":49,"x_max":1263,"o":"m 365 994 q 512 961 460 994 q 564 871 564 928 q 563 849 564 856 q 442 744 546 761 l 440 739 q 513 705 490 726 q 536 650 536 683 q 467 528 536 572 q 281 485 397 485 q 101 524 154 485 q 49 638 49 563 q 50 663 49 654 l 263 663 l 261 650 q 267 631 261 636 q 288 625 274 625 q 326 664 319 625 q 328 676 328 668 q 286 707 328 707 l 239 707 l 250 776 l 288 776 q 324 787 311 776 q 343 821 338 797 l 343 826 q 319 854 343 854 q 278 808 286 854 l 85 808 q 167 941 99 888 q 365 994 236 994 m 1164 986 l 479 0 l 214 0 l 896 986 l 1164 986 m 1242 83 l 1190 83 l 1176 0 l 974 0 l 988 83 l 710 83 l 728 189 l 960 489 l 1263 489 l 1210 194 l 1263 194 l 1242 83 m 1050 382 l 921 194 l 1018 194 l 1050 382 z "},"¿":{"ha":735,"x_min":-14,"x_max":699,"o":"m 272 -272 q 63 -213 140 -272 q -14 -40 -14 -154 q -7 26 -14 -12 q 113 227 14 153 q 349 304 211 301 l 368 417 l 625 417 l 574 131 l 469 131 q 324 108 378 131 q 260 28 269 85 q 258 10 258 22 q 275 -35 258 -19 q 321 -51 292 -51 q 382 -28 360 -51 q 414 33 404 -6 l 672 33 q 610 -121 660 -51 q 474 -231 560 -190 q 272 -272 388 -272 m 376 524 l 422 790 l 699 790 l 653 524 l 376 524 z "},"À":{"ha":1044,"x_min":-79,"x_max":954,"o":"m 640 164 l 292 164 l 208 0 l -79 0 l 453 979 l 767 979 l 954 0 l 665 0 l 640 164 m 608 369 l 558 689 l 396 369 l 608 369 m 801 1221 l 769 1038 l 447 1175 l 483 1378 l 801 1221 z "},"Á":{"ha":1044,"x_min":-79,"x_max":954,"o":"m 640 164 l 292 164 l 208 0 l -79 0 l 453 979 l 767 979 l 954 0 l 665 0 l 640 164 m 608 369 l 558 689 l 396 369 l 608 369 m 826 1175 l 454 1038 l 486 1221 l 863 1378 l 826 1175 z "},"Â":{"ha":1044,"x_min":-74,"x_max":960,"o":"m 646 164 l 297 164 l 214 0 l -74 0 l 458 979 l 772 979 l 960 0 l 671 0 l 646 164 m 614 369 l 564 689 l 401 369 l 614 369 m 643 1153 l 399 1032 l 431 1210 l 674 1328 l 875 1210 l 844 1032 l 643 1153 z "},"Ã":{"ha":1044,"x_min":-71,"x_max":969,"o":"m 649 164 l 300 164 l 217 0 l -71 0 l 461 979 l 775 979 l 963 0 l 674 0 l 649 164 m 617 369 l 567 689 l 404 369 l 617 369 m 578 1278 q 635 1268 610 1278 q 690 1240 660 1258 q 728 1221 713 1228 q 761 1214 744 1214 q 835 1279 813 1214 l 969 1279 q 867 1108 929 1161 q 724 1056 806 1056 q 668 1065 692 1056 q 611 1092 644 1074 q 573 1112 588 1106 q 542 1118 558 1118 q 467 1053 490 1118 l 332 1053 q 435 1224 374 1171 q 578 1278 496 1278 z "},"Ä":{"ha":1044,"x_min":-71,"x_max":963,"o":"m 649 164 l 300 164 l 217 0 l -71 0 l 461 979 l 775 979 l 963 0 l 674 0 l 649 164 m 617 369 l 567 689 l 404 369 l 617 369 m 390 1153 q 429 1247 390 1208 q 521 1286 468 1286 q 588 1261 563 1286 q 614 1196 614 1236 q 574 1105 614 1143 q 482 1067 535 1067 q 416 1091 442 1067 q 390 1153 390 1115 m 689 1175 q 735 1255 699 1224 q 817 1286 771 1286 q 884 1261 858 1286 q 910 1196 910 1236 q 871 1105 910 1143 q 779 1067 832 1067 q 713 1092 739 1067 q 688 1156 688 1117 q 689 1175 688 1168 z "},"Å":{"ha":1044,"x_min":-79,"x_max":954,"o":"m 640 164 l 292 164 l 208 0 l -79 0 l 453 979 l 767 979 l 954 0 l 665 0 l 640 164 m 608 369 l 558 689 l 396 369 l 608 369 m 672 1383 q 778 1346 738 1383 q 819 1244 819 1308 q 790 1133 819 1182 q 713 1058 761 1085 q 610 1032 664 1032 q 503 1069 544 1032 q 463 1171 463 1107 q 492 1282 463 1233 q 569 1357 521 1331 q 672 1383 618 1383 m 653 1278 q 596 1254 619 1278 q 572 1192 572 1231 q 588 1152 572 1167 q 629 1138 604 1138 q 681 1157 658 1138 q 710 1208 704 1176 q 711 1222 711 1213 q 695 1263 711 1249 q 653 1278 679 1278 z "},"Æ":{"ha":1343,"x_min":-85,"x_max":1379,"o":"m 993 765 l 965 606 l 1272 606 l 1236 400 l 929 400 l 897 218 l 1246 218 l 1207 0 l 586 0 l 613 151 l 313 151 l 213 0 l -85 0 l 575 983 l 1379 983 l 1342 765 l 993 765 m 649 358 l 721 768 l 450 358 l 649 358 z "},"Ç":{"ha":1049,"x_min":53,"x_max":1039,"o":"m 632 993 q 849 947 758 993 q 988 815 940 900 q 1039 617 1036 729 l 750 617 q 692 708 736 675 q 583 740 649 740 q 426 673 493 740 q 339 493 360 606 q 333 429 333 464 q 376 294 333 343 q 496 244 419 244 q 617 278 561 244 q 708 369 672 311 l 996 369 q 788 95 931 197 q 457 -7 646 -7 q 239 42 331 -7 q 100 178 147 90 q 53 383 53 267 q 63 493 53 439 q 167 753 88 639 q 366 930 246 867 q 632 993 486 993 m 533 -49 q 640 -79 593 -47 q 688 -178 688 -111 q 685 -212 688 -200 q 603 -335 669 -297 q 456 -374 538 -374 l 233 -374 l 258 -233 l 451 -233 q 488 -225 474 -233 q 504 -203 501 -217 q 496 -181 507 -189 q 463 -174 485 -174 l 353 -174 l 385 10 l 544 10 l 533 -49 z "},"È":{"ha":758,"x_min":-22,"x_max":783,"o":"m 386 765 l 357 603 l 676 603 l 639 396 l 321 396 l 290 218 l 650 218 l 611 0 l -22 0 l 150 983 l 783 983 l 746 765 l 386 765 m 660 1221 l 628 1038 l 306 1175 l 342 1378 l 660 1221 z "},"É":{"ha":758,"x_min":-22,"x_max":783,"o":"m 386 765 l 357 603 l 676 603 l 639 396 l 321 396 l 290 218 l 650 218 l 611 0 l -22 0 l 150 983 l 783 983 l 746 765 l 386 765 m 686 1175 l 314 1038 l 346 1221 l 722 1378 l 686 1175 z "},"Ê":{"ha":758,"x_min":-17,"x_max":789,"o":"m 392 765 l 363 603 l 682 603 l 644 396 l 326 396 l 296 218 l 656 218 l 617 0 l -17 0 l 156 983 l 789 983 l 751 765 l 392 765 m 501 1153 l 257 1032 l 289 1210 l 532 1328 l 733 1210 l 703 1032 l 501 1153 z "},"Ë":{"ha":758,"x_min":-14,"x_max":792,"o":"m 394 765 l 365 603 l 685 603 l 647 396 l 329 396 l 299 218 l 658 218 l 619 0 l -14 0 l 158 983 l 792 983 l 754 765 l 394 765 m 249 1153 q 288 1247 249 1208 q 379 1286 326 1286 q 447 1261 421 1286 q 472 1196 472 1236 q 433 1105 472 1143 q 340 1067 393 1067 q 274 1091 300 1067 q 249 1153 249 1115 m 547 1175 q 593 1255 557 1224 q 675 1286 629 1286 q 742 1261 717 1286 q 768 1196 768 1236 q 729 1105 768 1143 q 638 1067 690 1067 q 572 1092 597 1067 q 546 1156 546 1117 q 547 1175 546 1168 z "},"Ì":{"ha":424,"x_min":-10,"x_max":490,"o":"m 436 983 l 264 0 l -10 0 l 163 983 l 436 983 m 490 1221 l 458 1038 l 136 1175 l 172 1378 l 490 1221 z "},"Í":{"ha":424,"x_min":-10,"x_max":553,"o":"m 436 983 l 264 0 l -10 0 l 163 983 l 436 983 m 517 1175 l 144 1038 l 176 1221 l 553 1378 l 517 1175 z "},"Î":{"ha":425,"x_min":-4,"x_max":565,"o":"m 442 983 l 269 0 l -4 0 l 168 983 l 442 983 m 333 1153 l 89 1032 l 121 1210 l 364 1328 l 565 1210 l 535 1032 l 333 1153 z "},"Ï":{"ha":425,"x_min":-1,"x_max":601,"o":"m 444 983 l 272 0 l -1 0 l 171 983 l 444 983 m 82 1153 q 121 1247 82 1208 q 213 1286 160 1286 q 280 1261 254 1286 q 306 1196 306 1236 q 266 1105 306 1143 q 174 1067 226 1067 q 108 1091 133 1067 q 82 1153 82 1115 m 381 1175 q 426 1255 390 1224 q 508 1286 463 1286 q 576 1261 550 1286 q 601 1196 601 1236 q 563 1105 601 1143 q 471 1067 524 1067 q 405 1092 431 1067 q 379 1156 379 1117 q 381 1175 379 1168 z "},"Ð":{"ha":1032,"x_min":-17,"x_max":994,"o":"m 560 983 q 794 935 696 983 q 943 800 892 888 q 994 597 994 713 q 985 494 994 543 q 879 240 961 353 q 670 64 797 128 q 388 0 543 0 l -4 0 l 64 385 l -17 385 l 22 603 l 101 603 l 168 983 l 560 983 m 708 494 q 714 554 714 522 q 656 695 714 646 q 493 744 597 744 l 400 744 l 375 603 l 574 603 l 536 385 l 336 385 l 311 244 l 404 244 q 607 310 526 244 q 708 494 688 375 z "},"Ñ":{"ha":1060,"x_min":-12,"x_max":1068,"o":"m 896 0 l 622 0 l 357 549 l 261 0 l -12 0 l 160 982 l 433 982 l 699 426 l 794 982 l 1068 982 l 896 0 m 574 1278 q 631 1268 606 1278 q 686 1240 656 1258 q 724 1221 708 1228 q 757 1214 740 1214 q 831 1279 808 1214 l 965 1279 q 863 1108 925 1161 q 719 1056 801 1056 q 664 1065 688 1056 q 607 1092 640 1074 q 569 1112 583 1106 q 538 1118 554 1118 q 463 1053 486 1118 l 328 1053 q 431 1224 369 1171 q 574 1278 492 1278 z "},"Ò":{"ha":1076,"x_min":29,"x_max":1028,"o":"m 582 999 q 820 944 719 999 q 974 792 921 890 q 1028 565 1028 694 q 1017 446 1028 513 q 920 209 993 313 q 733 48 847 106 q 478 -10 619 -10 q 235 44 336 -10 q 82 194 135 97 q 29 419 29 290 q 40 543 29 486 q 138 781 64 678 q 326 941 211 883 q 582 999 440 999 m 561 746 q 393 681 461 746 q 306 507 325 617 q 300 443 300 478 q 351 297 300 350 q 497 244 401 244 q 665 310 596 244 q 751 483 733 375 q 758 550 758 522 q 707 694 758 642 q 561 746 656 746 m 817 1221 l 785 1038 l 463 1175 l 499 1378 l 817 1221 z "},"Ó":{"ha":1076,"x_min":19,"x_max":1018,"o":"m 572 999 q 810 944 710 999 q 965 792 911 890 q 1018 565 1018 694 q 1007 446 1018 513 q 910 209 983 313 q 724 48 838 106 q 468 -10 610 -10 q 226 44 326 -10 q 72 194 125 97 q 19 419 19 290 q 31 543 19 486 q 128 781 54 678 q 316 941 201 883 q 572 999 431 999 m 551 746 q 383 681 451 746 q 296 507 315 617 q 290 443 290 478 q 341 297 290 350 q 488 244 392 244 q 655 310 586 244 q 742 483 724 375 q 749 550 749 522 q 697 694 749 642 q 551 746 646 746 m 833 1175 l 461 1038 l 493 1221 l 869 1378 l 833 1175 z "},"Ô":{"ha":1076,"x_min":25,"x_max":1024,"o":"m 578 999 q 816 944 715 999 q 970 792 917 890 q 1024 565 1024 694 q 1013 446 1024 513 q 916 209 989 313 q 729 48 843 106 q 474 -10 615 -10 q 231 44 332 -10 q 78 194 131 97 q 25 419 25 290 q 36 543 25 486 q 133 781 60 678 q 322 941 207 883 q 578 999 436 999 m 557 746 q 389 681 457 746 q 301 507 321 617 q 296 443 296 478 q 347 297 296 350 q 493 244 397 244 q 660 310 592 244 q 747 483 729 375 q 754 550 754 522 q 703 694 754 642 q 557 746 651 746 m 649 1153 l 404 1032 l 436 1210 l 679 1328 l 881 1210 l 850 1032 l 649 1153 z "},"Õ":{"ha":1076,"x_min":29,"x_max":1028,"o":"m 582 999 q 820 944 719 999 q 974 792 921 890 q 1028 565 1028 694 q 1017 446 1028 513 q 920 209 993 313 q 733 48 847 106 q 478 -10 619 -10 q 235 44 336 -10 q 82 194 135 97 q 29 419 29 290 q 40 543 29 486 q 138 781 64 678 q 326 941 211 883 q 582 999 440 999 m 561 746 q 393 681 461 746 q 306 507 325 617 q 300 443 300 478 q 351 297 300 350 q 497 244 401 244 q 665 310 596 244 q 751 483 733 375 q 758 550 758 522 q 707 694 758 642 q 561 746 656 746 m 583 1278 q 640 1268 615 1278 q 696 1240 665 1258 q 734 1221 718 1228 q 767 1214 750 1214 q 840 1279 818 1214 l 975 1279 q 873 1108 935 1161 q 729 1056 811 1056 q 674 1065 697 1056 q 617 1092 650 1074 q 578 1112 593 1106 q 547 1118 564 1118 q 472 1053 496 1118 l 338 1053 q 440 1224 379 1171 q 583 1278 501 1278 z "},"Ö":{"ha":1076,"x_min":28,"x_max":1026,"o":"m 581 999 q 819 944 718 999 q 973 792 919 890 q 1026 565 1026 694 q 1015 446 1026 513 q 919 209 992 313 q 732 48 846 106 q 476 -10 618 -10 q 234 44 335 -10 q 81 194 133 97 q 28 419 28 290 q 39 543 28 486 q 136 781 63 678 q 324 941 210 883 q 581 999 439 999 m 560 746 q 392 681 460 746 q 304 507 324 617 q 299 443 299 478 q 349 297 299 350 q 496 244 400 244 q 663 310 594 244 q 750 483 732 375 q 757 550 757 522 q 706 694 757 642 q 560 746 654 746 m 397 1153 q 436 1247 397 1208 q 528 1286 475 1286 q 595 1261 569 1286 q 621 1196 621 1236 q 581 1105 621 1143 q 489 1067 542 1067 q 423 1091 449 1067 q 397 1153 397 1115 m 696 1175 q 742 1255 706 1224 q 824 1286 778 1286 q 891 1261 865 1286 q 917 1196 917 1236 q 878 1105 917 1143 q 786 1067 839 1067 q 720 1092 746 1067 q 694 1156 694 1117 q 696 1175 694 1168 z "},"×":{"ha":788,"x_min":11,"x_max":788,"o":"m 582 492 l 736 306 l 525 126 l 372 313 l 157 128 l 11 303 l 226 488 l 81 665 l 293 843 l 438 668 l 640 843 l 788 668 l 582 492 z "},"Ø":{"ha":1096,"x_min":-56,"x_max":1149,"o":"m 967 818 q 1036 565 1036 710 q 1025 446 1036 513 q 928 209 1001 313 q 742 48 856 106 q 486 -10 628 -10 q 181 85 299 -10 l 90 1 l -56 1 l 113 157 q 38 419 38 264 q 49 543 38 486 q 146 781 72 678 q 334 941 219 883 q 590 999 449 999 q 904 893 783 999 l 1006 988 l 1149 988 l 967 818 m 314 507 q 308 442 308 478 q 324 354 308 393 l 701 706 q 569 746 653 746 q 401 681 469 746 q 314 507 333 617 m 760 483 q 767 551 767 522 q 757 622 767 586 l 385 276 q 506 244 432 244 q 673 310 604 244 q 760 483 742 375 z "},"Ù":{"ha":983,"x_min":39,"x_max":992,"o":"m 419 983 l 321 422 q 315 369 315 383 q 346 280 315 311 q 439 249 376 249 q 560 294 514 249 q 621 422 606 340 l 719 983 l 992 983 l 893 422 q 794 186 868 283 q 615 40 721 89 q 388 -10 510 -10 q 133 74 226 -10 q 39 317 39 158 q 49 422 39 369 l 147 983 l 419 983 m 758 1221 l 726 1038 l 404 1175 l 440 1378 l 758 1221 z "},"Ú":{"ha":983,"x_min":39,"x_max":992,"o":"m 419 983 l 321 422 q 315 369 315 383 q 346 280 315 311 q 439 249 376 249 q 560 294 514 249 q 621 422 606 340 l 719 983 l 992 983 l 893 422 q 794 186 868 283 q 615 40 721 89 q 388 -10 510 -10 q 133 74 226 -10 q 39 317 39 158 q 49 422 39 369 l 147 983 l 419 983 m 785 1175 l 413 1038 l 444 1221 l 821 1378 l 785 1175 z "},"Û":{"ha":983,"x_min":44,"x_max":997,"o":"m 425 983 l 326 422 q 321 369 321 383 q 351 280 321 311 q 444 249 382 249 q 565 294 519 249 q 626 422 611 340 l 725 983 l 997 983 l 899 422 q 800 186 874 283 q 621 40 726 89 q 393 -10 515 -10 q 138 74 232 -10 q 44 317 44 158 q 54 422 44 369 l 153 983 l 425 983 m 601 1153 l 357 1032 l 389 1210 l 632 1328 l 833 1210 l 803 1032 l 601 1153 z "},"Ü":{"ha":983,"x_min":47,"x_max":1000,"o":"m 428 983 l 329 422 q 324 369 324 383 q 354 280 324 311 q 447 249 385 249 q 568 294 522 249 q 629 422 614 340 l 728 983 l 1000 983 l 901 422 q 803 186 876 283 q 624 40 729 89 q 396 -10 518 -10 q 141 74 235 -10 q 47 317 47 158 q 57 422 47 369 l 156 983 l 428 983 m 349 1153 q 388 1247 349 1208 q 479 1286 426 1286 q 547 1261 521 1286 q 572 1196 572 1236 q 533 1105 572 1143 q 440 1067 493 1067 q 374 1091 400 1067 q 349 1153 349 1115 m 647 1175 q 693 1255 657 1224 q 775 1286 729 1286 q 842 1261 817 1286 q 868 1196 868 1236 q 829 1105 868 1143 q 738 1067 790 1067 q 672 1092 697 1067 q 646 1156 646 1117 q 647 1175 646 1168 z "},"Ý":{"ha":978,"x_min":81,"x_max":1047,"o":"m 1047 983 l 582 313 l 528 0 l 256 0 l 308 313 l 81 983 l 393 983 l 500 608 l 739 983 l 1047 983 m 782 1175 l 410 1038 l 442 1221 l 818 1378 l 782 1175 z "},"Þ":{"ha":881,"x_min":-11,"x_max":856,"o":"m 294 179 l 263 0 l -11 0 l 161 983 l 432 983 l 403 810 l 539 810 q 775 743 694 810 q 856 560 856 676 q 849 493 856 532 q 779 332 833 403 q 635 220 725 261 q 429 179 546 179 l 294 179 m 435 383 q 572 493 554 383 q 575 522 575 513 q 472 601 575 601 l 369 601 l 331 383 l 435 383 z "},"ß":{"ha":1029,"x_min":-17,"x_max":986,"o":"m 811 569 q 943 453 900 518 q 986 300 986 388 q 979 225 986 258 q 878 56 961 122 q 664 -10 794 -10 q 447 62 525 -10 q 368 257 368 133 q 369 294 368 282 l 592 294 q 606 244 590 261 q 650 228 621 228 q 701 248 683 228 q 718 297 718 268 q 703 338 718 321 q 649 383 688 356 l 464 510 l 483 601 l 507 614 q 572 718 572 651 q 553 769 572 750 q 496 789 533 789 q 417 761 449 789 q 375 681 385 733 l 257 0 l -17 0 l 107 690 q 253 950 136 858 q 563 1042 371 1042 q 734 1013 664 1042 q 838 935 804 983 q 872 826 872 886 q 868 788 872 807 q 823 697 861 739 q 722 624 785 654 l 811 569 z "},"à":{"ha":944,"x_min":33,"x_max":946,"o":"m 431 789 q 576 753 518 789 q 651 656 633 717 l 674 779 l 946 779 l 807 0 l 536 0 l 558 124 q 453 26 519 63 q 303 -10 386 -10 q 105 72 176 -10 q 33 297 33 153 q 44 414 33 347 q 122 614 65 529 q 260 744 179 699 q 431 789 340 789 m 492 550 q 381 508 428 550 q 321 390 335 465 q 317 350 317 369 q 349 260 317 292 q 435 229 381 229 q 544 272 496 229 q 604 390 592 315 q 608 431 608 411 q 576 519 608 488 q 492 550 544 550 m 699 1017 l 667 833 l 344 971 l 381 1174 l 699 1017 z "},"á":{"ha":944,"x_min":33,"x_max":946,"o":"m 431 789 q 576 753 518 789 q 651 656 633 717 l 674 779 l 946 779 l 807 0 l 536 0 l 558 124 q 453 26 519 63 q 303 -10 386 -10 q 105 72 176 -10 q 33 297 33 153 q 44 414 33 347 q 122 614 65 529 q 260 744 179 699 q 431 789 340 789 m 492 550 q 381 508 428 550 q 321 390 335 465 q 317 350 317 369 q 349 260 317 292 q 435 229 381 229 q 544 272 496 229 q 604 390 592 315 q 608 431 608 411 q 576 519 608 488 q 492 550 544 550 m 725 971 l 353 833 l 385 1017 l 761 1174 l 725 971 z "},"â":{"ha":944,"x_min":15,"x_max":928,"o":"m 413 789 q 558 753 500 789 q 633 656 615 717 l 656 779 l 928 779 l 789 0 l 518 0 l 540 124 q 435 26 501 63 q 285 -10 368 -10 q 87 72 158 -10 q 15 297 15 153 q 26 414 15 347 q 104 614 47 529 q 242 744 161 699 q 413 789 322 789 m 474 550 q 363 508 410 550 q 303 390 317 465 q 299 350 299 369 q 331 260 299 292 q 417 229 363 229 q 526 272 478 229 q 586 390 574 315 q 590 431 590 411 q 558 519 590 488 q 474 550 526 550 m 518 949 l 274 828 l 306 1006 l 549 1124 l 750 1006 l 719 828 l 518 949 z "},"ã":{"ha":944,"x_min":42,"x_max":954,"o":"m 439 789 q 584 753 526 789 q 660 656 642 717 l 682 779 l 954 779 l 815 0 l 544 0 l 567 124 q 461 26 528 63 q 311 -10 394 -10 q 113 72 185 -10 q 42 297 42 153 q 53 414 42 347 q 131 614 74 529 q 268 744 188 699 q 439 789 349 789 m 500 550 q 390 508 436 550 q 329 390 343 465 q 325 350 325 369 q 357 260 325 292 q 443 229 389 229 q 552 272 504 229 q 613 390 600 315 q 617 431 617 411 q 585 519 617 488 q 500 550 553 550 m 475 1074 q 532 1064 507 1074 q 588 1036 557 1054 q 626 1017 610 1024 q 658 1010 642 1010 q 732 1075 710 1010 l 867 1075 q 765 904 826 957 q 621 851 703 851 q 565 860 589 851 q 508 888 542 869 q 470 908 485 901 q 439 914 456 914 q 364 849 388 914 l 229 849 q 332 1020 271 967 q 475 1074 393 1074 z "},"ä":{"ha":944,"x_min":42,"x_max":954,"o":"m 439 789 q 584 753 526 789 q 660 656 642 717 l 682 779 l 954 779 l 815 0 l 544 0 l 567 124 q 461 26 528 63 q 311 -10 394 -10 q 113 72 185 -10 q 42 297 42 153 q 53 414 42 347 q 131 614 74 529 q 268 744 188 699 q 439 789 349 789 m 500 550 q 390 508 436 550 q 329 390 343 465 q 325 350 325 369 q 357 260 325 292 q 443 229 389 229 q 552 272 504 229 q 613 390 600 315 q 617 431 617 411 q 585 519 617 488 q 500 550 553 550 m 289 949 q 328 1043 289 1004 q 419 1082 367 1082 q 487 1057 461 1082 q 513 992 513 1032 q 473 901 513 939 q 381 863 433 863 q 315 887 340 863 q 289 949 289 911 m 588 971 q 633 1051 597 1019 q 715 1082 669 1082 q 783 1057 757 1082 q 808 992 808 1032 q 769 901 808 939 q 678 863 731 863 q 612 888 638 863 q 586 951 586 913 q 588 971 586 964 z "},"å":{"ha":944,"x_min":10,"x_max":922,"o":"m 407 789 q 552 753 494 789 q 628 656 610 717 l 650 779 l 922 779 l 783 0 l 513 0 l 535 124 q 429 26 496 63 q 279 -10 363 -10 q 81 72 153 -10 q 10 297 10 153 q 21 414 10 347 q 99 614 42 529 q 236 744 156 699 q 407 789 317 789 m 468 550 q 358 508 404 550 q 297 390 311 465 q 293 350 293 369 q 325 260 293 292 q 411 229 357 229 q 520 272 472 229 q 581 390 568 315 q 585 431 585 411 q 553 519 585 488 q 468 550 521 550 m 547 1179 q 653 1142 613 1179 q 694 1040 694 1104 q 665 929 694 978 q 588 854 636 881 q 485 828 539 828 q 378 865 419 828 q 338 967 338 903 q 367 1078 338 1029 q 444 1153 396 1126 q 547 1179 493 1179 m 528 1074 q 471 1050 494 1074 q 447 988 447 1026 q 463 948 447 963 q 504 933 479 933 q 556 953 533 933 q 585 1004 579 972 q 586 1018 586 1008 q 570 1059 586 1044 q 528 1074 554 1074 z "},"æ":{"ha":1482,"x_min":25,"x_max":1454,"o":"m 1182 789 q 1381 712 1308 789 q 1454 500 1454 635 q 1446 404 1454 454 q 1428 340 1439 369 l 868 340 q 983 206 858 206 q 1068 225 1033 206 q 1119 279 1103 244 l 1410 279 q 1262 71 1361 151 q 1040 -10 1163 -10 q 896 26 953 -10 q 821 124 839 61 l 799 0 l 526 0 l 549 124 q 443 26 510 61 q 293 -10 376 -10 q 99 70 172 -10 q 25 289 25 150 q 35 390 25 340 q 116 603 57 513 q 258 741 175 693 q 435 789 342 789 q 570 753 517 789 q 642 656 624 718 l 665 779 l 936 779 l 914 656 q 1023 754 954 719 q 1182 789 1092 789 m 1178 454 q 1181 481 1181 474 q 1145 551 1181 528 q 1056 575 1110 575 q 889 454 928 575 l 1178 454 m 596 390 q 600 429 600 411 q 567 518 600 486 q 482 550 535 550 q 372 508 419 550 q 311 390 325 465 q 307 350 307 369 q 339 260 307 292 q 425 229 371 229 q 535 272 488 229 q 596 390 583 315 z "},"ç":{"ha":850,"x_min":32,"x_max":836,"o":"m 494 789 q 743 705 651 789 q 836 472 835 621 l 547 472 q 522 534 543 513 q 460 556 500 556 q 372 514 410 556 q 318 390 333 472 q 313 338 313 351 q 337 253 313 282 q 401 225 361 225 q 471 247 442 225 q 517 308 500 269 l 807 308 q 635 75 753 160 q 367 -10 518 -10 q 123 77 214 -10 q 32 317 32 164 q 42 414 32 353 q 126 614 63 529 q 286 744 190 699 q 494 789 382 789 m 433 -49 q 540 -79 493 -47 q 588 -178 588 -111 q 585 -212 588 -200 q 503 -335 569 -297 q 356 -374 438 -374 l 133 -374 l 158 -233 l 351 -233 q 388 -225 374 -233 q 404 -203 401 -217 q 396 -181 407 -189 q 363 -174 385 -174 l 253 -174 l 285 10 l 444 10 l 433 -49 z "},"è":{"ha":856,"x_min":22,"x_max":826,"o":"m 493 789 q 738 707 649 789 q 826 485 826 625 q 819 404 826 450 q 800 340 807 357 l 286 340 q 285 308 285 329 q 378 208 285 208 q 448 228 418 208 q 493 279 478 247 l 782 279 q 619 71 735 151 q 353 -10 504 -10 q 111 75 200 -10 q 22 308 22 160 q 31 403 22 353 q 117 608 51 521 q 281 742 183 696 q 493 789 378 789 m 551 454 q 554 485 554 465 q 526 552 554 529 q 456 575 499 575 q 363 544 401 575 q 307 454 324 514 l 551 454 m 665 1017 l 633 833 l 311 971 l 347 1174 l 665 1017 z "},"é":{"ha":856,"x_min":22,"x_max":826,"o":"m 493 789 q 738 707 649 789 q 826 485 826 625 q 819 404 826 450 q 800 340 807 357 l 286 340 q 285 308 285 329 q 378 208 285 208 q 448 228 418 208 q 493 279 478 247 l 782 279 q 619 71 735 151 q 353 -10 504 -10 q 111 75 200 -10 q 22 308 22 160 q 31 403 22 353 q 117 608 51 521 q 281 742 183 696 q 493 789 378 789 m 551 454 q 554 485 554 465 q 526 552 554 529 q 456 575 499 575 q 363 544 401 575 q 307 454 324 514 l 551 454 m 690 971 l 318 833 l 350 1017 l 726 1174 l 690 971 z "},"ê":{"ha":857,"x_min":26,"x_max":831,"o":"m 497 789 q 742 707 653 789 q 831 485 831 625 q 824 404 831 450 q 804 340 811 357 l 290 340 q 289 308 289 329 q 382 208 289 208 q 452 228 422 208 q 497 279 482 247 l 786 279 q 624 71 739 151 q 357 -10 508 -10 q 115 75 204 -10 q 26 308 26 160 q 35 403 26 353 q 122 608 56 521 q 285 742 188 696 q 497 789 382 789 m 556 454 q 558 485 558 465 q 531 552 558 529 q 460 575 503 575 q 367 544 406 575 q 311 454 328 514 l 556 454 m 508 949 l 264 828 l 296 1006 l 539 1124 l 740 1006 l 710 828 l 508 949 z "},"ë":{"ha":856,"x_min":29,"x_max":833,"o":"m 500 789 q 744 707 656 789 q 833 485 833 625 q 826 404 833 450 q 807 340 814 357 l 293 340 q 292 308 292 329 q 385 208 292 208 q 455 228 425 208 q 500 279 485 247 l 789 279 q 626 71 742 151 q 360 -10 511 -10 q 118 75 207 -10 q 29 308 29 160 q 38 403 29 353 q 124 608 58 521 q 288 742 190 696 q 500 789 385 789 m 558 454 q 561 485 561 465 q 533 552 561 529 q 463 575 506 575 q 369 544 408 575 q 314 454 331 514 l 558 454 m 254 949 q 293 1043 254 1004 q 385 1082 332 1082 q 452 1057 426 1082 q 478 992 478 1032 q 438 901 478 939 q 346 863 399 863 q 280 887 306 863 q 254 949 254 911 m 553 971 q 599 1051 563 1019 q 681 1082 635 1082 q 748 1057 722 1082 q 774 992 774 1032 q 735 901 774 939 q 643 863 696 863 q 577 888 603 863 q 551 951 551 913 q 553 971 551 964 z "},"ì":{"ha":425,"x_min":4,"x_max":489,"o":"m 417 779 l 278 0 l 4 0 l 143 779 l 417 779 m 489 1017 l 457 833 l 135 971 l 171 1174 l 489 1017 z "},"í":{"ha":425,"x_min":4,"x_max":551,"o":"m 417 779 l 278 0 l 4 0 l 143 779 l 417 779 m 515 971 l 143 833 l 175 1017 l 551 1174 l 515 971 z "},"î":{"ha":424,"x_min":8,"x_max":539,"o":"m 421 779 l 282 0 l 8 0 l 147 779 l 421 779 m 307 949 l 63 828 l 94 1006 l 338 1124 l 539 1006 l 508 828 l 307 949 z "},"ï":{"ha":425,"x_min":13,"x_max":599,"o":"m 425 779 l 286 0 l 13 0 l 151 779 l 425 779 m 79 949 q 118 1043 79 1004 q 210 1082 157 1082 q 277 1057 251 1082 q 303 992 303 1032 q 263 901 303 939 q 171 863 224 863 q 105 887 131 863 q 79 949 79 911 m 378 971 q 424 1051 388 1019 q 506 1082 460 1082 q 573 1057 547 1082 q 599 992 599 1032 q 560 901 599 939 q 468 863 521 863 q 402 888 428 863 q 376 951 376 913 q 378 971 376 964 z "},"ð":{"ha":882,"x_min":19,"x_max":869,"o":"m 775 918 q 869 561 869 747 q 858 439 869 506 q 762 197 833 297 q 589 44 690 96 q 375 -8 488 -8 q 192 31 274 -8 q 65 145 111 71 q 19 318 19 219 q 26 394 19 350 q 113 603 47 514 q 276 739 179 692 q 482 786 372 786 q 614 742 561 786 q 572 861 599 804 l 432 821 l 449 911 l 533 935 q 460 1028 499 989 l 699 1028 l 728 990 l 842 1022 l 826 932 l 775 918 m 572 390 q 576 433 576 414 q 545 522 576 493 q 469 551 514 551 q 366 512 414 551 q 304 393 318 472 q 300 353 300 372 q 335 259 300 290 q 417 228 369 228 q 514 268 471 228 q 572 390 557 308 z "},"ñ":{"ha":954,"x_min":8,"x_max":904,"o":"m 667 786 q 842 721 779 786 q 904 539 904 656 q 896 453 904 499 l 817 0 l 544 0 l 618 418 q 621 454 621 431 q 592 534 621 506 q 513 563 564 563 q 409 524 451 563 q 354 414 367 485 l 354 419 l 281 0 l 8 0 l 144 779 l 418 779 l 394 649 q 510 749 440 711 q 667 786 581 786 m 490 1074 q 547 1064 522 1074 q 603 1036 572 1054 q 641 1017 625 1024 q 674 1010 657 1010 q 747 1075 725 1010 l 882 1075 q 780 904 842 957 q 636 851 718 851 q 581 860 604 851 q 524 888 557 869 q 485 908 500 901 q 454 914 471 914 q 379 849 403 914 l 244 849 q 347 1020 286 967 q 490 1074 408 1074 z "},"ò":{"ha":886,"x_min":33,"x_max":865,"o":"m 513 789 q 697 749 617 789 q 821 635 776 710 q 865 457 865 560 q 857 365 865 414 q 769 165 836 250 q 604 35 703 81 q 392 -10 506 -10 q 204 30 285 -10 q 78 145 124 69 q 33 324 33 221 q 42 414 33 367 q 130 614 63 529 q 297 744 197 699 q 513 789 397 789 m 478 553 q 378 511 422 553 q 318 390 333 469 q 314 346 314 365 q 344 257 314 288 q 421 226 374 226 q 521 268 476 226 q 581 390 565 310 q 585 435 585 415 q 555 523 585 493 q 478 553 525 553 m 690 1017 l 658 833 l 336 971 l 372 1174 l 690 1017 z "},"ó":{"ha":886,"x_min":33,"x_max":865,"o":"m 513 789 q 697 749 617 789 q 821 635 776 710 q 865 457 865 560 q 857 365 865 414 q 769 165 836 250 q 604 35 703 81 q 392 -10 506 -10 q 204 30 285 -10 q 78 145 124 69 q 33 324 33 221 q 42 414 33 367 q 130 614 63 529 q 297 744 197 699 q 513 789 397 789 m 478 553 q 378 511 422 553 q 318 390 333 469 q 314 346 314 365 q 344 257 314 288 q 421 226 374 226 q 521 268 476 226 q 581 390 565 310 q 585 435 585 415 q 555 523 585 493 q 478 553 525 553 m 717 971 l 344 833 l 376 1017 l 753 1174 l 717 971 z "},"ô":{"ha":886,"x_min":26,"x_max":858,"o":"m 506 789 q 690 749 610 789 q 814 635 769 710 q 858 457 858 560 q 850 365 858 414 q 763 165 829 250 q 597 35 696 81 q 385 -10 499 -10 q 197 30 278 -10 q 72 145 117 69 q 26 324 26 221 q 35 414 26 367 q 123 614 56 529 q 290 744 190 699 q 506 789 390 789 m 471 553 q 371 511 415 553 q 311 390 326 469 q 307 346 307 365 q 337 257 307 288 q 414 226 367 226 q 514 268 469 226 q 574 390 558 310 q 578 435 578 415 q 548 523 578 493 q 471 553 518 553 m 521 949 l 276 828 l 308 1006 l 551 1124 l 753 1006 l 722 828 l 521 949 z "},"õ":{"ha":886,"x_min":43,"x_max":875,"o":"m 522 789 q 706 749 626 789 q 831 635 786 710 q 875 457 875 560 q 867 365 875 414 q 779 165 846 250 q 614 35 713 81 q 401 -10 515 -10 q 214 30 294 -10 q 88 145 133 69 q 43 324 43 221 q 51 414 43 367 q 140 614 72 529 q 307 744 207 699 q 522 789 407 789 m 488 553 q 388 511 432 553 q 328 390 343 469 q 324 346 324 365 q 353 257 324 288 q 431 226 383 226 q 531 268 486 226 q 590 390 575 310 q 594 435 594 415 q 565 523 594 493 q 488 553 535 553 m 468 1074 q 525 1064 500 1074 q 581 1036 550 1054 q 619 1017 603 1024 q 651 1010 635 1010 q 725 1075 703 1010 l 860 1075 q 758 904 819 957 q 614 851 696 851 q 558 860 582 851 q 501 888 535 869 q 463 908 478 901 q 432 914 449 914 q 357 849 381 914 l 222 849 q 325 1020 264 967 q 468 1074 386 1074 z "},"ö":{"ha":886,"x_min":42,"x_max":874,"o":"m 521 789 q 705 749 625 789 q 829 635 785 710 q 874 457 874 560 q 865 365 874 414 q 778 165 844 250 q 613 35 711 81 q 400 -10 514 -10 q 213 30 293 -10 q 87 145 132 69 q 42 324 42 221 q 50 414 42 367 q 138 614 71 529 q 306 744 206 699 q 521 789 406 789 m 486 553 q 386 511 431 553 q 326 390 342 469 q 322 346 322 365 q 352 257 322 288 q 429 226 382 226 q 529 268 485 226 q 589 390 574 310 q 593 435 593 415 q 563 523 593 493 q 486 553 533 553 m 281 949 q 319 1043 281 1004 q 411 1082 358 1082 q 478 1057 453 1082 q 504 992 504 1032 q 465 901 504 939 q 372 863 425 863 q 306 887 332 863 q 281 949 281 911 m 579 971 q 625 1051 589 1019 q 707 1082 661 1082 q 774 1057 749 1082 q 800 992 800 1032 q 761 901 800 939 q 669 863 722 863 q 603 888 629 863 q 578 951 578 913 q 579 971 578 964 z "},"÷":{"ha":772,"x_min":10,"x_max":763,"o":"m 603 935 l 556 669 l 281 669 l 326 935 l 603 935 m 763 604 l 718 356 l 10 356 l 53 604 l 763 604 m 489 292 l 442 25 l 167 25 l 213 292 l 489 292 z "},"ø":{"ha":867,"x_min":-56,"x_max":926,"o":"m 793 657 q 851 458 851 575 q 843 365 851 414 q 756 165 822 250 q 590 35 689 81 q 378 -10 492 -10 q 140 61 235 -10 l 74 0 l -56 0 l 79 122 q 19 322 19 203 q 28 414 19 367 q 116 614 49 529 q 283 744 183 699 q 499 789 383 789 q 732 719 636 789 l 797 779 l 926 779 l 793 657 m 304 390 q 300 347 300 368 q 301 326 300 333 l 529 533 q 464 553 504 553 q 364 511 408 553 q 304 390 319 469 m 567 390 q 571 432 571 414 q 569 453 571 446 l 343 246 q 407 226 369 226 q 507 268 463 226 q 567 390 551 310 z "},"ù":{"ha":951,"x_min":42,"x_max":939,"o":"m 939 779 l 801 0 l 528 0 l 550 129 q 434 30 504 67 q 279 -7 364 -7 q 104 58 167 -7 q 42 240 42 124 q 50 328 42 282 l 131 779 l 401 779 l 328 361 q 325 326 325 349 q 353 247 325 275 q 433 218 382 218 q 537 257 494 218 q 592 367 579 296 l 592 360 l 665 779 l 939 779 m 718 1017 l 686 833 l 364 971 l 400 1174 l 718 1017 z "},"ú":{"ha":951,"x_min":42,"x_max":939,"o":"m 939 779 l 801 0 l 528 0 l 550 129 q 434 30 504 67 q 279 -7 364 -7 q 104 58 167 -7 q 42 240 42 124 q 50 328 42 282 l 131 779 l 401 779 l 328 361 q 325 326 325 349 q 353 247 325 275 q 433 218 382 218 q 537 257 494 218 q 592 367 579 296 l 592 360 l 665 779 l 939 779 m 744 971 l 372 833 l 404 1017 l 781 1174 l 744 971 z "},"û":{"ha":951,"x_min":46,"x_max":943,"o":"m 943 779 l 806 0 l 532 0 l 554 129 q 438 30 508 67 q 283 -7 368 -7 q 108 58 171 -7 q 46 240 46 124 q 54 328 46 282 l 135 779 l 406 779 l 332 361 q 329 326 329 349 q 358 247 329 275 q 438 218 386 218 q 541 257 499 218 q 596 367 583 296 l 596 360 l 669 779 l 943 779 m 561 949 l 317 828 l 349 1006 l 592 1124 l 793 1006 l 763 828 l 561 949 z "},"ü":{"ha":951,"x_min":50,"x_max":947,"o":"m 947 779 l 810 0 l 536 0 l 558 129 q 442 30 513 67 q 288 -7 372 -7 q 113 58 175 -7 q 50 240 50 124 q 58 328 50 282 l 139 779 l 410 779 l 336 361 q 333 326 333 349 q 362 247 333 275 q 442 218 390 218 q 545 257 503 218 q 600 367 588 296 l 600 360 l 674 779 l 947 779 m 308 949 q 347 1043 308 1004 q 439 1082 386 1082 q 506 1057 481 1082 q 532 992 532 1032 q 492 901 532 939 q 400 863 453 863 q 334 887 360 863 q 308 949 308 911 m 607 971 q 653 1051 617 1019 q 735 1082 689 1082 q 802 1057 776 1082 q 828 992 828 1032 q 789 901 828 939 q 697 863 750 863 q 631 888 657 863 q 606 951 606 913 q 607 971 606 964 z "},"ý":{"ha":910,"x_min":-36,"x_max":960,"o":"m 336 779 l 426 343 l 658 779 l 960 779 l 264 -372 l -36 -372 l 226 33 l 33 779 l 336 779 m 776 971 l 404 833 l 436 1017 l 813 1174 l 776 971 z "},"þ":{"ha":942,"x_min":-60,"x_max":914,"o":"m 629 785 q 838 699 761 785 q 914 471 914 614 q 907 385 914 436 q 828 170 888 258 q 687 37 769 82 q 513 -8 604 -8 q 297 106 356 -8 l 213 -372 l -60 -372 l 188 1028 l 460 1028 l 400 689 q 501 762 446 739 q 629 785 557 785 m 461 229 q 567 267 518 229 q 629 385 615 306 q 633 424 633 406 q 599 517 633 485 q 518 549 565 549 q 411 509 461 549 q 347 390 361 469 q 344 353 344 376 q 379 260 344 292 q 461 229 414 229 z "},"ÿ":{"ha":910,"x_min":-25,"x_max":971,"o":"m 347 779 l 438 343 l 669 779 l 971 779 l 275 -372 l -25 -372 l 238 33 l 44 779 l 347 779 m 282 949 q 321 1043 282 1004 q 413 1082 360 1082 q 480 1057 454 1082 q 506 992 506 1032 q 466 901 506 939 q 374 863 426 863 q 308 887 333 863 q 282 949 282 911 m 581 971 q 626 1051 590 1019 q 708 1082 663 1082 q 776 1057 750 1082 q 801 992 801 1032 q 763 901 801 939 q 671 863 724 863 q 605 888 631 863 q 579 951 579 913 q 581 971 579 964 z "},"Ā":{"ha":1044,"x_min":-68,"x_max":965,"o":"m 651 164 l 303 164 l 219 0 l -68 0 l 464 979 l 778 979 l 965 0 l 676 0 l 651 164 m 619 369 l 569 689 l 407 369 l 619 369 m 957 1257 l 925 1075 l 347 1075 l 379 1257 l 957 1257 z "},"ā":{"ha":944,"x_min":21,"x_max":933,"o":"m 418 789 q 563 753 506 789 q 639 656 621 717 l 661 779 l 933 779 l 794 0 l 524 0 l 546 124 q 440 26 507 63 q 290 -10 374 -10 q 92 72 164 -10 q 21 297 21 153 q 32 414 21 347 q 110 614 53 529 q 247 744 167 699 q 418 789 328 789 m 479 550 q 369 508 415 550 q 308 390 322 465 q 304 350 304 369 q 336 260 304 292 q 422 229 368 229 q 531 272 483 229 q 592 390 579 315 q 596 431 596 411 q 564 519 596 488 q 479 550 532 550 m 833 1053 l 801 871 l 224 871 l 256 1053 l 833 1053 z "},"Ă":{"ha":1044,"x_min":-74,"x_max":960,"o":"m 646 164 l 297 164 l 214 0 l -74 0 l 458 979 l 772 979 l 960 0 l 671 0 l 646 164 m 614 369 l 564 689 l 401 369 l 614 369 m 621 1040 q 469 1092 525 1040 q 413 1242 413 1143 q 418 1306 413 1274 l 422 1326 l 550 1326 q 549 1307 549 1319 q 573 1253 549 1271 q 654 1236 597 1236 q 752 1259 719 1236 q 792 1326 785 1282 l 919 1326 l 915 1306 q 813 1109 893 1178 q 621 1040 732 1040 z "},"ă":{"ha":946,"x_min":39,"x_max":951,"o":"m 436 789 q 581 753 524 789 q 657 656 639 717 l 679 779 l 951 779 l 813 0 l 542 0 l 564 124 q 458 26 525 63 q 308 -10 392 -10 q 110 72 182 -10 q 39 297 39 153 q 50 414 39 347 q 128 614 71 529 q 265 744 185 699 q 436 789 346 789 m 497 550 q 387 508 433 550 q 326 390 340 465 q 322 350 322 369 q 354 260 322 292 q 440 229 386 229 q 549 272 501 229 q 610 390 597 315 q 614 431 614 411 q 582 519 614 488 q 497 550 550 550 m 521 836 q 369 888 425 836 q 313 1038 313 939 q 318 1101 313 1069 l 322 1122 l 450 1122 q 449 1103 449 1115 q 473 1049 449 1067 q 554 1032 497 1032 q 652 1055 619 1032 q 692 1122 685 1078 l 819 1122 l 815 1101 q 713 905 793 974 q 521 836 632 836 z "},"Ą":{"ha":1044,"x_min":-56,"x_max":1004,"o":"m 1004 -158 l 979 -299 l 763 -299 q 638 -267 689 -299 q 588 -168 588 -236 q 690 1 588 -56 l 664 164 l 315 164 l 232 0 l -56 0 l 478 979 l 792 979 l 974 18 l 954 -94 l 828 -94 q 788 -104 803 -94 q 774 -132 774 -114 q 785 -151 774 -144 q 815 -158 796 -158 l 1004 -158 m 632 369 l 582 688 l 419 369 l 632 369 z "},"ą":{"ha":944,"x_min":39,"x_max":951,"o":"m 436 789 q 581 753 524 789 q 657 656 639 717 l 679 779 l 951 779 l 813 0 l 542 0 l 564 124 q 458 26 525 63 q 308 -10 392 -10 q 110 72 182 -10 q 39 297 39 153 q 50 414 39 347 q 128 614 71 529 q 265 744 185 699 q 436 789 346 789 m 497 550 q 387 508 433 550 q 326 390 340 465 q 322 350 322 369 q 354 260 322 292 q 440 229 386 229 q 549 272 501 229 q 610 390 597 315 q 614 431 614 411 q 582 519 614 488 q 497 550 550 550 m 815 31 l 793 -94 l 667 -94 q 627 -103 642 -94 q 613 -129 613 -112 q 624 -151 613 -143 q 654 -158 635 -158 l 843 -158 l 818 -299 l 601 -299 q 478 -267 529 -299 q 426 -165 426 -235 q 429 -132 426 -144 q 507 -9 444 -49 q 638 31 569 31 l 815 31 z "},"Ć":{"ha":1049,"x_min":40,"x_max":1026,"o":"m 619 993 q 837 947 746 993 q 976 815 928 900 q 1026 617 1024 729 l 738 617 q 680 708 724 675 q 571 740 636 740 q 414 673 481 740 q 326 493 347 606 q 321 429 321 464 q 364 294 321 343 q 483 244 407 244 q 604 278 549 244 q 696 369 660 311 l 983 369 q 776 95 918 197 q 444 -7 633 -7 q 226 42 318 -7 q 88 178 135 90 q 40 383 40 267 q 50 493 40 439 q 154 753 75 639 q 353 930 233 867 q 619 993 474 993 m 829 1175 l 457 1038 l 489 1221 l 865 1378 l 829 1175 z "},"ć":{"ha":850,"x_min":21,"x_max":825,"o":"m 483 789 q 732 705 640 789 q 825 472 824 621 l 536 472 q 510 534 532 513 q 449 556 489 556 q 360 514 399 556 q 307 390 322 472 q 301 338 301 351 q 326 253 301 282 q 390 225 350 225 q 460 247 431 225 q 506 308 489 269 l 796 308 q 624 75 742 160 q 356 -10 507 -10 q 112 77 203 -10 q 21 317 21 164 q 31 414 21 353 q 115 614 51 529 q 275 744 179 699 q 483 789 371 789 m 685 971 l 313 833 l 344 1017 l 721 1174 l 685 971 z "},"Ċ":{"ha":1049,"x_min":49,"x_max":1035,"o":"m 628 993 q 845 947 754 993 q 984 815 936 900 q 1035 617 1032 729 l 746 617 q 688 708 732 675 q 579 740 644 740 q 422 673 489 740 q 335 493 356 606 q 329 429 329 464 q 372 294 329 343 q 492 244 415 244 q 613 278 557 244 q 704 369 668 311 l 992 369 q 784 95 926 197 q 453 -7 642 -7 q 235 42 326 -7 q 96 178 143 90 q 49 383 49 267 q 58 493 49 439 q 163 753 83 639 q 362 930 242 867 q 628 993 482 993 m 542 1153 q 581 1247 542 1208 q 672 1286 621 1286 q 740 1261 714 1286 q 765 1196 765 1236 q 726 1105 765 1143 q 633 1067 686 1067 q 567 1091 593 1067 q 542 1153 542 1115 z "},"ċ":{"ha":850,"x_min":29,"x_max":833,"o":"m 492 789 q 740 705 649 789 q 833 472 832 621 l 544 472 q 519 534 540 513 q 457 556 497 556 q 369 514 407 556 q 315 390 331 472 q 310 338 310 351 q 334 253 310 282 q 399 225 358 225 q 468 247 439 225 q 514 308 497 269 l 804 308 q 633 75 750 160 q 364 -10 515 -10 q 120 77 211 -10 q 29 317 29 164 q 39 414 29 353 q 124 614 60 529 q 283 744 188 699 q 492 789 379 789 m 396 949 q 435 1043 396 1004 q 526 1082 475 1082 q 594 1057 568 1082 q 619 992 619 1032 q 580 901 619 939 q 488 863 540 863 q 422 887 447 863 q 396 949 396 911 z "},"Č":{"ha":1047,"x_min":44,"x_max":1031,"o":"m 624 993 q 841 947 750 993 q 980 815 932 900 q 1031 617 1028 729 l 742 617 q 684 708 728 675 q 575 740 640 740 q 418 673 485 740 q 331 493 351 606 q 325 429 325 464 q 368 294 325 343 q 488 244 411 244 q 608 278 553 244 q 700 369 664 311 l 988 369 q 780 95 922 197 q 449 -7 638 -7 q 231 42 322 -7 q 92 178 139 90 q 44 383 44 267 q 54 493 44 439 q 158 753 79 639 q 358 930 238 867 q 624 993 478 993 m 869 1149 l 626 1031 l 424 1149 l 454 1326 l 657 1206 l 900 1326 l 869 1149 z "},"č":{"ha":850,"x_min":25,"x_max":829,"o":"m 488 789 q 736 705 644 789 q 829 472 828 621 l 540 472 q 515 534 536 513 q 453 556 493 556 q 365 514 403 556 q 311 390 326 472 q 306 338 306 351 q 330 253 306 282 q 394 225 354 225 q 464 247 435 225 q 510 308 493 269 l 800 308 q 628 75 746 160 q 360 -10 511 -10 q 116 77 207 -10 q 25 317 25 164 q 35 414 25 353 q 119 614 56 529 q 279 744 183 699 q 488 789 375 789 m 724 944 l 481 826 l 278 944 l 308 1122 l 511 1001 l 754 1122 l 724 944 z "},"Ď":{"ha":1025,"x_min":-17,"x_max":982,"o":"m 972 494 q 867 240 949 353 q 658 64 785 128 q 375 0 531 0 l -17 0 l 156 983 l 547 983 q 781 935 683 983 q 931 800 879 888 q 982 597 982 713 q 972 494 982 543 m 392 244 q 594 310 514 244 q 696 494 675 375 q 701 554 701 522 q 643 695 701 646 q 481 744 585 744 l 388 744 l 299 244 l 392 244 m 858 1149 l 615 1031 l 413 1149 l 443 1326 l 646 1206 l 889 1326 l 858 1149 z "},"ď":{"ha":1157,"x_min":38,"x_max":1232,"o":"m 992 1028 l 810 0 l 538 0 l 560 124 q 454 26 521 61 q 306 -10 388 -10 q 166 28 226 -10 q 72 136 106 65 q 38 304 38 207 q 47 414 38 360 q 125 614 68 529 q 263 744 182 699 q 433 789 343 789 q 578 753 521 789 q 653 656 635 718 l 719 1028 l 992 1028 m 1224 1028 q 1232 938 1232 982 q 1225 853 1232 899 q 1142 688 1207 750 q 972 625 1076 625 l 990 724 q 1082 822 1064 724 l 1085 842 l 992 842 l 1024 1028 l 1224 1028 m 494 550 q 384 508 431 550 q 324 390 338 465 q 319 350 319 369 q 351 260 319 292 q 438 229 383 229 q 547 272 499 229 q 607 390 594 315 q 611 429 611 411 q 579 518 611 486 q 494 550 547 550 z "},"Đ":{"ha":1031,"x_min":-6,"x_max":1006,"o":"m 571 983 q 805 935 707 983 q 954 800 903 888 q 1006 597 1006 713 q 996 494 1006 543 q 890 240 972 353 q 681 64 808 128 q 399 0 554 0 l 7 0 l 75 385 l -6 385 l 33 603 l 113 603 l 179 983 l 571 983 m 719 494 q 725 554 725 522 q 667 695 725 646 q 504 744 608 744 l 411 744 l 386 603 l 585 603 l 547 385 l 347 385 l 322 244 l 415 244 q 618 310 538 244 q 719 494 699 375 z "},"đ":{"ha":940,"x_min":38,"x_max":1029,"o":"m 1008 832 l 957 832 l 810 0 l 538 0 l 560 124 q 454 26 521 61 q 306 -10 388 -10 q 166 28 226 -10 q 72 136 106 65 q 38 304 38 207 q 47 414 38 360 q 125 614 68 529 q 263 744 182 699 q 433 789 343 789 q 578 753 521 789 q 653 656 635 718 l 685 832 l 539 832 l 560 953 l 706 953 l 719 1028 l 992 1028 l 978 953 l 1029 953 l 1008 832 m 607 390 q 611 429 611 411 q 579 518 611 486 q 494 550 547 550 q 384 508 431 550 q 324 390 338 465 q 319 350 319 369 q 351 260 319 292 q 438 229 383 229 q 547 272 499 229 q 607 390 594 315 z "},"Ē":{"ha":758,"x_min":-10,"x_max":817,"o":"m 399 765 l 369 603 l 689 603 l 651 396 l 333 396 l 303 218 l 663 218 l 624 0 l -10 0 l 163 983 l 796 983 l 758 765 l 399 765 m 817 1257 l 785 1075 l 207 1075 l 239 1257 l 817 1257 z "},"ē":{"ha":856,"x_min":32,"x_max":836,"o":"m 503 789 q 747 707 658 789 q 836 485 836 625 q 829 404 836 450 q 810 340 817 357 l 296 340 q 294 308 294 329 q 388 208 294 208 q 458 228 428 208 q 503 279 488 247 l 792 279 q 629 71 744 151 q 363 -10 514 -10 q 121 75 210 -10 q 32 308 32 160 q 40 403 32 353 q 127 608 61 521 q 290 742 193 696 q 503 789 388 789 m 561 454 q 564 485 564 465 q 536 552 564 529 q 465 575 508 575 q 372 544 411 575 q 317 454 333 514 l 561 454 m 822 1053 l 790 871 l 213 871 l 244 1053 l 822 1053 z "},"Ĕ":{"ha":758,"x_min":-17,"x_max":789,"o":"m 392 765 l 363 603 l 682 603 l 644 396 l 326 396 l 296 218 l 656 218 l 617 0 l -17 0 l 156 983 l 789 983 l 751 765 l 392 765 m 481 1040 q 328 1092 385 1040 q 272 1242 272 1143 q 278 1306 272 1274 l 282 1326 l 410 1326 q 408 1307 408 1319 q 433 1253 408 1271 q 514 1236 457 1236 q 612 1259 579 1236 q 651 1326 644 1282 l 779 1326 l 775 1306 q 672 1109 753 1178 q 481 1040 592 1040 z "},"ĕ":{"ha":857,"x_min":26,"x_max":831,"o":"m 497 789 q 742 707 653 789 q 831 485 831 625 q 824 404 831 450 q 804 340 811 357 l 290 340 q 289 308 289 329 q 382 208 289 208 q 452 228 422 208 q 497 279 482 247 l 786 279 q 624 71 739 151 q 357 -10 508 -10 q 115 75 204 -10 q 26 308 26 160 q 35 403 26 353 q 122 608 56 521 q 285 742 188 696 q 497 789 382 789 m 556 454 q 558 485 558 465 q 531 552 558 529 q 460 575 503 575 q 367 544 406 575 q 311 454 328 514 l 556 454 m 486 836 q 334 888 390 836 q 278 1038 278 939 q 283 1101 278 1069 l 288 1122 l 415 1122 q 414 1103 414 1115 q 438 1049 414 1067 q 519 1032 463 1032 q 617 1055 585 1032 q 657 1122 650 1078 l 785 1122 l 781 1101 q 678 905 758 974 q 486 836 597 836 z "},"Ė":{"ha":758,"x_min":-14,"x_max":792,"o":"m 394 765 l 365 603 l 685 603 l 647 396 l 329 396 l 299 218 l 658 218 l 619 0 l -14 0 l 158 983 l 792 983 l 754 765 l 394 765 m 397 1153 q 437 1247 397 1208 q 528 1286 476 1286 q 595 1261 569 1286 q 621 1196 621 1236 q 581 1105 621 1143 q 489 1067 542 1067 q 423 1091 449 1067 q 397 1153 397 1115 z "},"ė":{"ha":856,"x_min":29,"x_max":833,"o":"m 500 789 q 744 707 656 789 q 833 485 833 625 q 826 404 833 450 q 807 340 814 357 l 293 340 q 292 308 292 329 q 385 208 292 208 q 455 228 425 208 q 500 279 485 247 l 789 279 q 626 71 742 151 q 360 -10 511 -10 q 118 75 207 -10 q 29 308 29 160 q 38 403 29 353 q 124 608 58 521 q 288 742 190 696 q 500 789 385 789 m 558 454 q 561 485 561 465 q 533 552 561 529 q 463 575 506 575 q 369 544 408 575 q 314 454 331 514 l 558 454 m 403 949 q 442 1043 403 1004 q 533 1082 482 1082 q 601 1057 575 1082 q 626 992 626 1032 q 587 901 626 939 q 494 863 547 863 q 428 887 454 863 q 403 949 403 911 z "},"Ę":{"ha":758,"x_min":-17,"x_max":789,"o":"m 392 765 l 363 603 l 682 603 l 644 396 l 326 396 l 296 218 l 656 218 l 617 0 l -17 0 l 156 983 l 789 983 l 751 765 l 392 765 m 639 122 l 617 -3 l 490 -3 q 451 -12 465 -3 q 436 -37 436 -21 q 447 -59 436 -51 q 478 -67 458 -67 l 667 -67 l 642 -207 l 425 -207 q 301 -175 353 -207 q 250 -74 250 -143 q 253 -40 250 -53 q 331 83 268 43 q 461 122 393 122 l 639 122 z "},"ę":{"ha":858,"x_min":44,"x_max":850,"o":"m 517 789 q 760 708 671 789 q 850 489 850 628 q 842 404 850 449 q 825 340 839 382 l 310 340 q 308 314 308 331 q 335 233 308 258 q 403 208 363 208 q 472 228 443 208 q 517 279 501 247 l 806 279 q 681 102 768 176 q 482 3 594 28 q 447 -31 447 -4 q 501 -61 447 -61 l 665 -61 l 640 -201 l 438 -201 q 313 -169 364 -201 q 261 -69 261 -137 q 264 -36 261 -49 l 271 4 q 104 106 164 29 q 44 300 44 183 q 53 390 44 343 q 140 603 74 513 q 303 741 206 693 q 517 789 401 789 m 575 454 q 578 485 578 465 q 550 552 578 529 q 479 575 522 575 q 387 544 426 575 q 331 454 347 514 l 575 454 z "},"Ě":{"ha":758,"x_min":-17,"x_max":789,"o":"m 392 765 l 363 603 l 682 603 l 644 396 l 326 396 l 296 218 l 656 218 l 617 0 l -17 0 l 156 983 l 789 983 l 751 765 l 392 765 m 724 1149 l 481 1031 l 278 1149 l 308 1326 l 511 1206 l 754 1326 l 724 1149 z "},"ě":{"ha":857,"x_min":26,"x_max":831,"o":"m 497 789 q 742 707 653 789 q 831 485 831 625 q 824 404 831 450 q 804 340 811 357 l 290 340 q 289 308 289 329 q 382 208 289 208 q 452 228 422 208 q 497 279 482 247 l 786 279 q 624 71 739 151 q 357 -10 508 -10 q 115 75 204 -10 q 26 308 26 160 q 35 403 26 353 q 122 608 56 521 q 285 742 188 696 q 497 789 382 789 m 556 454 q 558 485 558 465 q 531 552 558 529 q 460 575 503 575 q 367 544 406 575 q 311 454 328 514 l 556 454 m 731 944 l 488 826 l 285 944 l 315 1122 l 518 1001 l 761 1122 l 731 944 z "},"Ğ":{"ha":1051,"x_min":33,"x_max":1021,"o":"m 624 992 q 910 898 808 992 q 1021 653 1013 804 l 732 653 q 679 717 718 693 q 582 740 640 740 q 411 673 482 740 q 319 493 340 606 q 313 422 313 451 q 522 233 313 233 q 651 267 592 233 q 751 365 710 300 l 479 365 l 513 560 l 1013 560 l 965 289 q 767 74 894 154 q 451 -7 640 -7 q 226 42 321 -7 q 83 182 132 92 q 33 393 33 272 q 43 504 33 450 q 148 758 68 647 q 351 930 228 868 q 624 992 474 992 m 615 1040 q 463 1092 519 1040 q 407 1242 407 1143 q 413 1306 407 1274 l 417 1326 l 544 1326 q 543 1307 543 1319 q 567 1253 543 1271 q 649 1236 592 1236 q 747 1259 714 1236 q 786 1326 779 1282 l 914 1326 l 910 1306 q 807 1109 888 1178 q 615 1040 726 1040 z "},"ğ":{"ha":942,"x_min":-39,"x_max":917,"o":"m 274 -10 q 134 28 194 -10 q 40 136 74 65 q 6 304 6 207 q 15 414 6 360 q 93 614 36 529 q 231 744 150 699 q 403 789 313 789 q 548 753 490 789 q 622 656 606 717 l 646 779 l 917 779 l 781 8 q 706 -189 761 -101 q 556 -329 651 -276 q 332 -382 461 -382 q 58 -297 153 -382 q -39 -65 -37 -212 l 229 -65 q 260 -125 232 -104 q 343 -146 289 -146 q 508 8 482 -146 l 529 124 q 423 26 489 63 q 274 -10 357 -10 m 463 550 q 353 508 400 550 q 292 390 306 465 q 288 350 288 369 q 319 260 288 292 q 406 229 351 229 q 516 272 468 229 q 576 390 564 315 q 581 429 581 411 q 548 518 581 486 q 463 550 515 550 m 546 836 q 394 888 450 836 q 338 1038 338 939 q 343 1101 338 1069 l 347 1122 l 475 1122 q 474 1103 474 1115 q 498 1049 474 1067 q 579 1032 522 1032 q 677 1055 644 1032 q 717 1122 710 1078 l 844 1122 l 840 1101 q 738 905 818 974 q 546 836 657 836 z "},"Ġ":{"ha":1051,"x_min":36,"x_max":1024,"o":"m 626 992 q 913 898 811 992 q 1024 653 1015 804 l 735 653 q 682 717 721 693 q 585 740 643 740 q 414 673 485 740 q 322 493 343 606 q 315 422 315 451 q 525 233 315 233 q 653 267 594 233 q 754 365 713 300 l 482 365 l 515 560 l 1015 560 l 968 289 q 770 74 897 154 q 454 -7 643 -7 q 229 42 324 -7 q 85 182 135 92 q 36 393 36 272 q 46 504 36 450 q 151 758 71 647 q 353 930 231 868 q 626 992 476 992 m 532 1153 q 572 1247 532 1208 q 663 1286 611 1286 q 730 1261 704 1286 q 756 1196 756 1236 q 716 1105 756 1143 q 624 1067 676 1067 q 558 1091 583 1067 q 532 1153 532 1115 z "},"ġ":{"ha":943,"x_min":-35,"x_max":921,"o":"m 278 -10 q 138 28 199 -10 q 44 136 78 65 q 10 304 10 207 q 19 414 10 360 q 97 614 40 529 q 235 744 154 699 q 407 789 317 789 q 552 753 494 789 q 626 656 610 717 l 650 779 l 921 779 l 785 8 q 710 -189 765 -101 q 560 -329 656 -276 q 336 -382 465 -382 q 62 -297 157 -382 q -35 -65 -33 -212 l 233 -65 q 265 -125 236 -104 q 347 -146 293 -146 q 513 8 486 -146 l 533 124 q 427 26 493 63 q 278 -10 361 -10 m 467 550 q 357 508 404 550 q 296 390 310 465 q 292 350 292 369 q 324 260 292 292 q 410 229 356 229 q 520 272 472 229 q 581 390 568 315 q 585 429 585 411 q 552 518 585 486 q 467 550 519 550 m 464 949 q 503 1043 464 1004 q 594 1082 543 1082 q 662 1057 636 1082 q 688 992 688 1032 q 648 901 688 939 q 556 863 608 863 q 490 887 515 863 q 464 949 464 911 z "},"Ģ":{"ha":1057,"x_min":36,"x_max":1024,"o":"m 626 992 q 913 898 811 992 q 1024 653 1015 804 l 735 653 q 682 717 721 693 q 585 740 643 740 q 414 673 485 740 q 322 493 343 606 q 315 422 315 451 q 525 233 315 233 q 653 267 594 233 q 754 365 713 300 l 482 365 l 515 560 l 1015 560 l 968 289 q 770 74 897 154 q 454 -7 643 -7 q 229 42 324 -7 q 85 182 135 92 q 36 393 36 272 q 46 504 36 450 q 151 758 71 647 q 353 930 231 868 q 626 992 476 992 m 569 -53 q 578 -146 578 -101 q 572 -222 578 -189 q 489 -388 554 -325 q 319 -451 424 -451 l 336 -353 q 397 -328 374 -353 q 429 -253 419 -304 l 432 -237 l 339 -237 l 372 -53 l 569 -53 z "},"ģ":{"ha":942,"x_min":-37,"x_max":918,"o":"m 476 831 q 468 919 468 876 q 476 1007 468 965 q 559 1172 494 1108 q 728 1235 624 1235 l 710 1136 q 618 1038 636 1136 l 615 1019 l 708 1019 l 676 831 l 476 831 m 275 -10 q 135 28 196 -10 q 41 136 75 65 q 7 304 7 207 q 17 414 7 360 q 94 614 38 529 q 233 744 151 699 q 404 789 314 789 q 549 753 492 789 q 624 656 607 717 l 647 779 l 918 779 l 782 8 q 708 -189 763 -101 q 558 -329 653 -276 q 333 -382 463 -382 q 59 -297 154 -382 q -37 -65 -36 -212 l 231 -65 q 262 -125 233 -104 q 344 -146 290 -146 q 510 8 483 -146 l 531 124 q 424 26 490 63 q 275 -10 358 -10 m 464 550 q 354 508 401 550 q 293 390 307 465 q 289 350 289 369 q 321 260 289 292 q 407 229 353 229 q 517 272 469 229 q 578 390 565 315 q 582 429 582 411 q 549 518 582 486 q 464 550 517 550 z "},"Ĩ":{"ha":425,"x_min":0,"x_max":660,"o":"m 446 983 l 274 0 l 0 0 l 172 983 l 446 983 m 268 1278 q 325 1268 300 1278 q 381 1240 350 1258 q 419 1221 403 1228 q 451 1214 435 1214 q 525 1279 503 1214 l 660 1279 q 558 1108 619 1161 q 414 1056 496 1056 q 358 1065 382 1056 q 301 1092 335 1074 q 263 1112 278 1106 q 232 1118 249 1118 q 157 1053 181 1118 l 22 1053 q 125 1224 64 1171 q 268 1278 186 1278 z "},"ĩ":{"ha":425,"x_min":13,"x_max":657,"o":"m 425 779 l 286 0 l 13 0 l 151 779 l 425 779 m 265 1074 q 322 1064 297 1074 q 378 1036 347 1054 q 416 1017 400 1024 q 449 1010 432 1010 q 522 1075 500 1010 l 657 1075 q 555 904 617 957 q 411 851 493 851 q 356 860 379 851 q 299 888 332 869 q 260 908 275 901 q 229 914 246 914 q 154 849 178 914 l 19 849 q 122 1020 61 967 q 265 1074 183 1074 z "},"Ī":{"ha":425,"x_min":1,"x_max":650,"o":"m 447 983 l 275 0 l 1 0 l 174 983 l 447 983 m 650 1257 l 618 1075 l 40 1075 l 72 1257 l 650 1257 z "},"ī":{"ha":436,"x_min":13,"x_max":622,"o":"m 428 779 l 289 0 l 15 0 l 154 779 l 428 779 m 622 1053 l 590 871 l 13 871 l 44 1053 l 622 1053 z "},"Ĭ":{"ha":424,"x_min":-4,"x_max":611,"o":"m 442 983 l 269 0 l -4 0 l 168 983 l 442 983 m 313 1040 q 160 1092 217 1040 q 104 1242 104 1143 q 110 1306 104 1274 l 114 1326 l 242 1326 q 240 1307 240 1319 q 265 1253 240 1271 q 346 1236 289 1236 q 444 1259 411 1236 q 483 1326 476 1282 l 611 1326 l 607 1306 q 504 1109 585 1178 q 313 1040 424 1040 z "},"ĭ":{"ha":425,"x_min":10,"x_max":610,"o":"m 422 779 l 283 0 l 10 0 l 149 779 l 422 779 m 311 836 q 159 888 215 836 q 103 1038 103 939 q 108 1101 103 1069 l 113 1122 l 240 1122 q 239 1103 239 1115 q 263 1049 239 1067 q 344 1032 288 1032 q 442 1055 410 1032 q 482 1122 475 1078 l 610 1122 l 606 1101 q 503 905 583 974 q 311 836 422 836 z "},"Į":{"ha":424,"x_min":-121,"x_max":436,"o":"m 436 983 l 264 0 l -10 0 l 163 983 l 436 983 m 268 31 l 246 -94 l 119 -94 q 80 -103 94 -94 q 65 -129 65 -112 q 76 -151 65 -143 q 107 -158 88 -158 l 296 -158 l 271 -299 l 54 -299 q -69 -267 -18 -299 q -121 -165 -121 -235 q -118 -132 -121 -144 q -40 -9 -103 -49 q 90 31 22 31 l 268 31 z "},"į":{"ha":413,"x_min":-107,"x_max":468,"o":"m 144 972 q 169 1053 144 1017 q 236 1113 193 1090 q 332 1135 279 1135 q 432 1103 396 1135 q 468 1019 468 1071 q 444 939 468 976 q 377 880 419 901 q 282 858 335 858 q 181 890 217 858 q 144 972 144 922 m 404 779 l 267 0 l -7 0 l 131 779 l 404 779 m 282 31 l 260 -94 l 133 -94 q 94 -103 108 -94 q 79 -129 79 -112 q 90 -151 79 -143 q 121 -158 101 -158 l 310 -158 l 285 -299 l 68 -299 q -56 -267 -4 -299 q -107 -165 -107 -235 q -104 -132 -107 -144 q -26 -9 -89 -49 q 104 31 36 31 l 282 31 z "},"İ":{"ha":425,"x_min":-1,"x_max":453,"o":"m 444 983 l 272 0 l -1 0 l 171 983 l 444 983 m 229 1153 q 269 1247 229 1208 q 360 1286 308 1286 q 427 1261 401 1286 q 453 1196 453 1236 q 413 1105 453 1143 q 321 1067 374 1067 q 255 1091 281 1067 q 229 1153 229 1115 z "},"ı":{"ha":413,"x_min":0,"x_max":413,"o":"m 413 779 l 274 0 l 0 0 l 139 779 l 413 779 z "},"Ķ":{"ha":994,"x_min":-15,"x_max":1069,"o":"m 607 503 l 897 0 l 568 0 l 335 435 l 258 0 l -15 0 l 157 983 l 431 983 l 356 557 l 743 983 l 1069 983 l 607 503 m 568 -53 q 576 -136 576 -94 q 568 -222 576 -181 q 485 -387 550 -324 q 318 -451 421 -451 l 335 -353 q 426 -253 410 -353 l 429 -237 l 336 -237 l 369 -53 l 568 -53 z "},"ķ":{"ha":890,"x_min":0,"x_max":942,"o":"m 569 397 l 799 0 l 485 0 l 331 331 l 272 0 l 0 0 l 181 1028 l 453 1028 l 358 486 l 624 779 l 942 779 l 569 397 m 463 -53 q 471 -136 471 -94 q 464 -222 471 -176 q 381 -388 446 -325 q 213 -451 317 -451 l 231 -353 q 322 -253 304 -353 l 325 -237 l 232 -237 l 265 -53 l 463 -53 z "},"Ĺ":{"ha":683,"x_min":-22,"x_max":671,"o":"m 288 207 l 594 207 l 558 0 l -22 0 l 150 983 l 424 983 l 288 207 m 635 1175 l 263 1038 l 294 1221 l 671 1378 l 635 1175 z "},"ĺ":{"ha":403,"x_min":-4,"x_max":588,"o":"m 450 1028 l 269 0 l -4 0 l 176 1028 l 450 1028 m 551 1188 l 179 1050 l 211 1233 l 588 1390 l 551 1188 z "},"Ļ":{"ha":690,"x_min":-15,"x_max":601,"o":"m 294 207 l 601 207 l 565 0 l -15 0 l 157 983 l 431 983 l 294 207 m 432 -53 q 442 -149 442 -97 q 436 -222 442 -190 q 353 -388 418 -325 q 183 -451 288 -451 l 200 -353 q 293 -253 274 -353 l 296 -237 l 203 -237 l 233 -53 l 432 -53 z "},"ļ":{"ha":424,"x_min":6,"x_max":467,"o":"m 467 1028 l 286 0 l 13 0 l 193 1028 l 467 1028 m 256 -53 q 264 -135 264 -94 q 256 -222 264 -181 q 173 -387 238 -324 q 6 -451 108 -451 l 22 -353 q 115 -253 97 -353 l 117 -237 l 25 -237 l 57 -53 l 256 -53 z "},"Ľ":{"ha":769,"x_min":-15,"x_max":782,"o":"m 294 207 l 601 207 l 565 0 l -15 0 l 157 983 l 431 983 l 294 207 m 774 983 q 782 896 782 940 q 774 808 782 850 q 691 643 756 707 q 524 579 626 579 l 540 679 q 632 776 615 679 l 636 796 l 542 796 l 575 983 l 774 983 z "},"ľ":{"ha":636,"x_min":0,"x_max":725,"o":"m 454 1028 l 274 0 l 0 0 l 181 1028 l 454 1028 m 717 1028 q 725 940 725 985 q 717 853 725 894 q 634 688 699 750 q 465 625 569 625 l 483 724 q 575 822 557 724 l 578 842 l 483 842 l 517 1028 l 717 1028 z "},"Ŀ":{"ha":683,"x_min":-14,"x_max":643,"o":"m 296 207 l 603 207 l 567 0 l -14 0 l 158 983 l 432 983 l 296 207 m 419 468 q 459 563 419 524 q 550 601 499 601 q 617 576 592 601 q 643 511 643 551 q 603 420 643 458 q 511 382 564 382 q 445 406 471 382 q 419 468 419 431 z "},"ŀ":{"ha":606,"x_min":-1,"x_max":642,"o":"m 453 1028 l 272 0 l -1 0 l 179 1028 l 453 1028 m 418 490 q 458 585 418 546 q 549 624 497 624 q 616 599 590 624 q 642 533 642 574 q 602 442 642 481 q 510 404 563 404 q 444 428 469 404 q 418 490 418 453 z "},"Ł":{"ha":706,"x_min":-15,"x_max":628,"o":"m 628 207 l 592 0 l 11 0 l 72 347 l -15 322 l 32 589 l 118 613 l 183 983 l 457 983 l 406 694 l 532 729 l 485 464 l 360 428 l 321 207 l 628 207 z "},"ł":{"ha":428,"x_min":-28,"x_max":503,"o":"m 457 479 l 358 451 l 279 0 l 6 0 l 71 369 l -28 342 l 18 608 l 117 636 l 186 1028 l 460 1028 l 406 717 l 503 744 l 457 479 z "},"Ń":{"ha":1058,"x_min":-22,"x_max":1058,"o":"m 886 0 l 613 0 l 347 549 l 251 0 l -22 0 l 150 982 l 424 982 l 689 426 l 785 982 l 1058 982 l 886 0 m 821 1175 l 449 1038 l 481 1221 l 857 1378 l 821 1175 z "},"ń":{"ha":954,"x_min":11,"x_max":907,"o":"m 669 786 q 844 721 782 786 q 907 539 907 656 q 899 453 907 499 l 819 0 l 547 0 l 621 418 q 624 454 624 431 q 595 534 624 506 q 515 563 567 563 q 412 524 454 563 q 357 414 369 485 l 357 419 l 283 0 l 11 0 l 147 779 l 421 779 l 397 649 q 513 749 443 711 q 669 786 583 786 m 751 971 l 379 833 l 411 1017 l 788 1174 l 751 971 z "},"Ņ":{"ha":1061,"x_min":-12,"x_max":1068,"o":"m 896 0 l 622 0 l 357 549 l 261 0 l -12 0 l 160 982 l 433 982 l 699 426 l 794 982 l 1068 982 l 896 0 m 590 -53 q 600 -140 600 -93 q 592 -222 600 -183 q 509 -387 574 -324 q 340 -451 444 -451 l 357 -353 q 449 -253 432 -353 l 451 -237 l 358 -237 l 392 -53 l 590 -53 z "},"ņ":{"ha":954,"x_min":7,"x_max":903,"o":"m 665 786 q 840 721 778 786 q 903 539 903 656 q 894 453 903 499 l 815 0 l 543 0 l 617 418 q 619 454 619 431 q 591 534 619 506 q 511 563 563 563 q 408 524 450 563 q 353 414 365 485 l 353 419 l 279 0 l 7 0 l 143 779 l 417 779 l 393 649 q 509 749 439 711 q 665 786 579 786 m 553 -53 q 563 -140 563 -93 q 554 -222 563 -183 q 471 -387 536 -324 q 303 -451 406 -451 l 321 -353 q 413 -253 394 -353 l 415 -237 l 322 -237 l 354 -53 l 553 -53 z "},"Ň":{"ha":1060,"x_min":-17,"x_max":1064,"o":"m 892 0 l 618 0 l 353 549 l 257 0 l -17 0 l 156 982 l 429 982 l 694 426 l 790 982 l 1064 982 l 892 0 m 861 1149 l 618 1031 l 415 1149 l 446 1326 l 649 1206 l 892 1326 l 861 1149 z "},"ň":{"ha":956,"x_min":17,"x_max":913,"o":"m 675 786 q 850 721 788 786 q 913 539 913 656 q 904 453 913 499 l 825 0 l 553 0 l 626 418 q 629 454 629 431 q 601 534 629 506 q 521 563 572 563 q 417 524 460 563 q 363 414 375 485 l 363 419 l 289 0 l 17 0 l 153 779 l 426 779 l 403 649 q 519 749 449 711 q 675 786 589 786 m 790 944 l 547 826 l 344 944 l 375 1122 l 578 1001 l 821 1122 l 790 944 z "},"Ō":{"ha":1076,"x_min":40,"x_max":1039,"o":"m 593 999 q 831 944 731 999 q 985 792 932 890 q 1039 565 1039 694 q 1028 446 1039 513 q 931 209 1004 313 q 744 48 858 106 q 489 -10 631 -10 q 247 44 347 -10 q 93 194 146 97 q 40 419 40 290 q 51 543 40 486 q 149 781 75 678 q 337 941 222 883 q 593 999 451 999 m 572 746 q 404 681 472 746 q 317 507 336 617 q 311 443 311 478 q 362 297 311 350 q 508 244 413 244 q 676 310 607 244 q 763 483 744 375 q 769 550 769 522 q 718 694 769 642 q 572 746 667 746 m 974 1257 l 942 1075 l 364 1075 l 396 1257 l 974 1257 z "},"ō":{"ha":886,"x_min":44,"x_max":876,"o":"m 524 789 q 708 749 628 789 q 832 635 788 710 q 876 457 876 560 q 868 365 876 414 q 781 165 847 250 q 615 35 714 81 q 403 -10 517 -10 q 215 30 296 -10 q 90 145 135 69 q 44 324 44 221 q 53 414 44 367 q 141 614 74 529 q 308 744 208 699 q 524 789 408 789 m 489 553 q 389 511 433 553 q 329 390 344 469 q 325 346 325 365 q 355 257 325 288 q 432 226 385 226 q 532 268 488 226 q 592 390 576 310 q 596 435 596 415 q 566 523 596 493 q 489 553 536 553 m 847 1053 l 815 871 l 238 871 l 269 1053 l 847 1053 z "},"Ŏ":{"ha":1076,"x_min":25,"x_max":1024,"o":"m 578 999 q 816 944 715 999 q 970 792 917 890 q 1024 565 1024 694 q 1013 446 1024 513 q 916 209 989 313 q 729 48 843 106 q 474 -10 615 -10 q 231 44 332 -10 q 78 194 131 97 q 25 419 25 290 q 36 543 25 486 q 133 781 60 678 q 322 941 207 883 q 578 999 436 999 m 557 746 q 389 681 457 746 q 301 507 321 617 q 296 443 296 478 q 347 297 296 350 q 493 244 397 244 q 660 310 592 244 q 747 483 729 375 q 754 550 754 522 q 703 694 754 642 q 557 746 651 746 m 628 1040 q 476 1092 532 1040 q 419 1242 419 1143 q 425 1306 419 1274 l 429 1326 l 557 1326 q 556 1307 556 1319 q 580 1253 556 1271 q 661 1236 604 1236 q 759 1259 726 1236 q 799 1326 792 1282 l 926 1326 l 922 1306 q 819 1109 900 1178 q 628 1040 739 1040 z "},"ŏ":{"ha":886,"x_min":26,"x_max":858,"o":"m 506 789 q 690 749 610 789 q 814 635 769 710 q 858 457 858 560 q 850 365 858 414 q 763 165 829 250 q 597 35 696 81 q 385 -10 499 -10 q 197 30 278 -10 q 72 145 117 69 q 26 324 26 221 q 35 414 26 367 q 123 614 56 529 q 290 744 190 699 q 506 789 390 789 m 471 553 q 371 511 415 553 q 311 390 326 469 q 307 346 307 365 q 337 257 307 288 q 414 226 367 226 q 514 268 469 226 q 574 390 558 310 q 578 435 578 415 q 548 523 578 493 q 471 553 518 553 m 500 836 q 348 888 404 836 q 292 1038 292 939 q 297 1101 292 1069 l 301 1122 l 429 1122 q 428 1103 428 1115 q 452 1049 428 1067 q 533 1032 476 1032 q 631 1055 599 1032 q 671 1122 664 1078 l 799 1122 l 794 1101 q 692 905 772 974 q 500 836 611 836 z "},"Ő":{"ha":1076,"x_min":22,"x_max":1074,"o":"m 575 999 q 813 944 713 999 q 967 792 914 890 q 1021 565 1021 694 q 1010 446 1021 513 q 913 209 986 313 q 726 48 840 106 q 471 -10 613 -10 q 228 44 329 -10 q 75 194 128 97 q 22 419 22 290 q 33 543 22 486 q 131 781 57 678 q 319 941 204 883 q 575 999 433 999 m 554 746 q 386 681 454 746 q 299 507 318 617 q 293 443 293 478 q 344 297 293 350 q 490 244 394 244 q 658 310 589 244 q 744 483 726 375 q 751 550 751 522 q 700 694 751 642 q 554 746 649 746 m 547 1039 l 382 1039 l 547 1354 l 756 1354 l 547 1039 m 835 1039 l 669 1039 l 865 1354 l 1074 1354 l 835 1039 z "},"ő":{"ha":886,"x_min":36,"x_max":972,"o":"m 515 789 q 699 749 619 789 q 824 635 779 710 q 868 457 868 560 q 860 365 868 414 q 772 165 839 250 q 607 35 706 81 q 394 -10 508 -10 q 207 30 288 -10 q 81 145 126 69 q 36 324 36 221 q 44 414 36 367 q 133 614 65 529 q 300 744 200 699 q 515 789 400 789 m 481 553 q 381 511 425 553 q 321 390 336 469 q 317 346 317 365 q 347 257 317 288 q 424 226 376 226 q 524 268 479 226 q 583 390 568 310 q 588 435 588 415 q 558 523 588 493 q 481 553 528 553 m 446 835 l 281 835 l 446 1150 l 654 1150 l 446 835 m 733 835 l 568 835 l 764 1150 l 972 1150 l 733 835 z "},"Œ":{"ha":1468,"x_min":38,"x_max":1504,"o":"m 1076 603 l 1394 603 l 1360 396 l 1040 396 l 1008 218 l 1369 218 l 1331 0 l 697 0 l 714 86 q 590 13 663 39 q 439 -17 517 -14 q 228 35 319 -17 q 88 182 138 88 q 38 400 38 276 q 49 515 38 451 q 149 767 74 657 q 343 938 225 876 q 607 999 461 999 q 753 972 686 999 q 857 896 819 944 l 871 983 l 1504 983 l 1467 765 l 1106 765 l 1076 603 m 506 236 q 681 305 610 236 q 772 492 751 374 q 778 557 778 524 q 730 696 778 646 q 594 746 682 746 q 422 681 492 746 q 332 503 351 615 q 325 433 325 461 q 372 289 325 342 q 506 236 419 236 z "},"œ":{"ha":1397,"x_min":14,"x_max":1371,"o":"m 1038 789 q 1282 707 1193 789 q 1371 485 1371 625 q 1364 404 1371 450 q 1344 340 1351 357 l 831 340 q 829 308 829 329 q 922 208 829 208 q 992 228 963 208 q 1038 279 1022 247 l 1326 279 q 1232 131 1296 197 q 1081 28 1168 65 q 897 -10 994 -10 q 753 16 815 -10 q 650 92 690 42 q 517 17 592 43 q 360 -10 442 -10 q 179 28 257 -10 q 58 137 101 65 q 14 306 14 208 q 22 390 14 347 q 113 603 44 513 q 283 741 182 693 q 501 789 385 789 q 647 763 582 789 q 754 688 713 736 q 884 763 811 736 q 1038 789 957 789 m 1096 454 q 1099 485 1099 465 q 1071 552 1099 529 q 1000 575 1043 575 q 907 544 946 575 q 851 454 868 514 l 1096 454 m 561 390 q 565 436 565 415 q 536 524 565 494 q 460 553 507 553 q 359 511 404 553 q 300 390 314 469 q 296 343 296 365 q 326 256 296 286 q 401 226 356 226 q 502 268 457 226 q 561 390 547 310 z "},"Ŕ":{"ha":907,"x_min":-22,"x_max":900,"o":"m 582 983 q 819 913 739 983 q 900 726 900 843 q 894 667 900 708 q 804 487 875 563 q 621 381 733 411 l 779 0 l 478 0 l 342 363 l 314 363 l 251 0 l -22 0 l 150 983 l 582 983 m 347 546 l 481 546 q 614 649 594 546 q 615 672 615 657 q 519 753 615 753 l 385 753 l 347 546 m 768 1175 l 396 1038 l 428 1221 l 804 1378 l 768 1175 z "},"ŕ":{"ha":626,"x_min":11,"x_max":685,"o":"m 394 633 q 530 744 454 703 q 685 786 606 786 l 632 494 l 554 494 q 410 459 463 494 q 343 336 358 424 l 283 0 l 11 0 l 147 779 l 421 779 l 394 633 m 615 971 l 243 833 l 275 1017 l 651 1174 l 615 971 z "},"Ŗ":{"ha":944,"x_min":-51,"x_max":871,"o":"m 553 983 q 790 913 710 983 q 871 726 871 843 q 865 667 871 708 q 775 487 846 563 q 592 381 704 411 l 750 0 l 449 0 l 313 363 l 285 363 l 222 0 l -51 0 l 121 983 l 553 983 m 318 546 l 451 546 q 585 649 565 546 q 586 672 586 657 q 490 753 586 753 l 356 753 l 318 546 m 511 -53 q 521 -144 521 -96 q 514 -222 521 -181 q 431 -388 496 -325 q 261 -451 365 -451 l 279 -353 q 371 -253 353 -353 l 374 -237 l 281 -237 l 314 -53 l 511 -53 z "},"ŗ":{"ha":625,"x_min":-3,"x_max":671,"o":"m 381 633 q 516 744 440 703 q 671 786 592 786 l 618 494 l 540 494 q 397 459 449 494 q 329 336 344 424 l 269 0 l -3 0 l 133 779 l 407 779 l 381 633 m 268 -53 q 278 -140 278 -93 q 269 -222 278 -183 q 186 -387 251 -324 q 18 -451 121 -451 l 36 -353 q 128 -253 110 -353 l 131 -237 l 38 -237 l 69 -53 l 268 -53 z "},"Ř":{"ha":907,"x_min":-17,"x_max":906,"o":"m 588 983 q 825 913 744 983 q 906 726 906 843 q 900 667 906 708 q 810 487 881 563 q 626 381 739 411 l 785 0 l 483 0 l 347 363 l 319 363 l 257 0 l -17 0 l 156 983 l 588 983 m 353 546 l 486 546 q 619 649 600 546 q 621 672 621 657 q 525 753 621 753 l 390 753 l 353 546 m 807 1149 l 564 1031 l 361 1149 l 392 1326 l 594 1206 l 838 1326 l 807 1149 z "},"ř":{"ha":626,"x_min":17,"x_max":690,"o":"m 400 633 q 535 744 460 703 q 690 786 611 786 l 638 494 l 560 494 q 416 459 468 494 q 349 336 364 424 l 289 0 l 17 0 l 153 779 l 426 779 l 400 633 m 654 944 l 411 826 l 208 944 l 239 1122 l 442 1001 l 685 1122 l 654 944 z "},"Ś":{"ha":847,"x_min":1,"x_max":811,"o":"m 756 246 q 694 117 743 175 q 562 24 644 58 q 374 -10 479 -10 q 101 74 199 -10 q 1 306 3 158 l 292 306 q 310 228 286 253 q 378 204 335 204 q 435 222 413 204 q 464 272 458 240 q 465 288 465 278 q 430 353 465 329 q 314 413 394 378 q 185 474 236 444 q 99 557 135 504 q 63 689 63 610 q 69 758 63 717 q 195 935 90 871 q 444 999 300 999 q 717 918 626 999 q 811 694 807 838 l 518 694 q 501 763 521 740 q 443 785 481 785 q 386 765 408 785 q 364 707 364 746 q 398 646 364 669 q 508 592 432 622 q 638 531 588 560 q 726 449 689 501 q 763 315 763 396 q 756 246 763 288 m 719 1175 l 347 1038 l 379 1221 l 756 1378 l 719 1175 z "},"ś":{"ha":799,"x_min":15,"x_max":768,"o":"m 410 789 q 667 714 578 789 q 768 515 756 639 l 500 515 q 467 578 499 557 q 386 599 436 599 q 329 587 350 599 q 308 550 308 575 q 342 510 308 525 q 446 476 375 494 q 588 433 531 456 q 688 365 646 410 q 731 246 731 319 q 725 193 731 217 q 619 47 707 103 q 381 -10 531 -10 q 121 62 219 -10 q 15 264 22 133 l 283 264 q 313 201 279 222 q 403 179 347 179 q 479 224 469 179 q 451 271 485 254 q 342 306 418 288 q 201 349 256 328 q 105 414 146 369 q 64 532 64 458 q 69 583 64 547 q 172 731 85 674 q 410 789 260 789 m 668 971 l 296 833 l 328 1017 l 704 1174 l 668 971 z "},"Ş":{"ha":849,"x_min":13,"x_max":822,"o":"m 767 246 q 705 117 754 175 q 573 24 656 58 q 385 -10 490 -10 q 112 74 210 -10 q 13 306 14 158 l 303 306 q 322 228 297 253 q 389 204 346 204 q 447 222 424 204 q 475 272 469 240 q 476 288 476 278 q 441 353 476 329 q 325 413 406 378 q 197 474 247 444 q 110 557 146 504 q 74 689 74 610 q 81 758 74 717 q 206 935 101 871 q 456 999 311 999 q 728 918 638 999 q 822 694 818 838 l 529 694 q 512 763 532 740 q 454 785 492 785 q 397 765 419 785 q 375 707 375 746 q 409 646 375 669 q 519 592 443 622 q 649 531 599 560 q 737 449 700 501 q 774 315 774 396 q 767 246 774 288 m 451 -49 q 558 -79 511 -47 q 606 -178 606 -111 q 603 -212 606 -200 q 522 -335 588 -297 q 374 -374 456 -374 l 151 -374 l 176 -233 l 369 -233 q 406 -225 392 -233 q 422 -203 419 -217 q 414 -181 425 -189 q 381 -174 403 -174 l 271 -174 l 303 10 l 463 10 l 451 -49 z "},"ş":{"ha":799,"x_min":18,"x_max":771,"o":"m 413 789 q 669 714 581 789 q 771 515 758 639 l 503 515 q 470 578 501 557 q 389 599 439 599 q 332 587 353 599 q 311 550 311 575 q 344 510 311 525 q 449 476 378 494 q 591 433 533 456 q 691 365 649 410 q 733 246 733 319 q 728 193 733 217 q 622 47 710 103 q 383 -10 533 -10 q 124 62 222 -10 q 18 264 25 133 l 286 264 q 316 201 282 222 q 406 179 350 179 q 482 224 472 179 q 454 271 488 254 q 344 306 421 288 q 203 349 258 328 q 108 414 149 369 q 67 532 67 458 q 72 583 67 547 q 175 731 88 674 q 413 789 263 789 m 468 -49 q 575 -79 528 -47 q 622 -178 622 -111 q 619 -212 622 -200 q 538 -335 604 -297 q 390 -374 472 -374 l 168 -374 l 193 -233 l 386 -233 q 422 -225 408 -233 q 439 -203 436 -217 q 431 -181 442 -189 q 397 -174 419 -174 l 288 -174 l 319 10 l 479 10 l 468 -49 z "},"Š":{"ha":849,"x_min":7,"x_max":817,"o":"m 761 246 q 699 117 749 175 q 567 24 650 58 q 379 -10 485 -10 q 106 74 204 -10 q 7 306 8 158 l 297 306 q 316 228 292 253 q 383 204 340 204 q 441 222 418 204 q 469 272 464 240 q 471 288 471 278 q 435 353 471 329 q 319 413 400 378 q 191 474 242 444 q 104 557 140 504 q 68 689 68 610 q 75 758 68 717 q 201 935 96 871 q 450 999 306 999 q 722 918 632 999 q 817 694 813 838 l 524 694 q 506 763 526 740 q 449 785 486 785 q 392 765 414 785 q 369 707 369 746 q 403 646 369 669 q 514 592 438 622 q 644 531 593 560 q 731 449 694 501 q 768 315 768 396 q 761 246 768 288 m 757 1149 l 514 1031 l 311 1149 l 342 1326 l 544 1206 l 788 1326 l 757 1149 z "},"š":{"ha":799,"x_min":21,"x_max":774,"o":"m 415 789 q 672 714 583 789 q 774 515 761 639 l 506 515 q 473 578 504 557 q 392 599 442 599 q 335 587 356 599 q 314 550 314 575 q 347 510 314 525 q 451 476 381 494 q 594 433 536 456 q 694 365 651 410 q 736 246 736 319 q 731 193 736 217 q 624 47 713 103 q 386 -10 536 -10 q 126 62 225 -10 q 21 264 28 133 l 289 264 q 319 201 285 222 q 408 179 353 179 q 485 224 475 179 q 457 271 490 254 q 347 306 424 288 q 206 349 261 328 q 110 414 151 369 q 69 532 69 458 q 75 583 69 547 q 178 731 90 674 q 415 789 265 789 m 707 944 l 464 826 l 261 944 l 292 1122 l 494 1001 l 738 1122 l 707 944 z "},"Ţ":{"ha":831,"x_min":64,"x_max":901,"o":"m 901 983 l 863 765 l 599 765 l 464 4 q 526 -101 526 -40 q 524 -132 526 -110 q 442 -256 508 -217 q 294 -294 376 -294 l 79 -294 l 104 -154 l 296 -154 q 343 -124 336 -154 q 338 -102 346 -110 q 307 -94 329 -94 l 174 -94 l 325 765 l 64 765 l 101 983 l 901 983 z "},"ţ":{"ha":589,"x_min":39,"x_max":594,"o":"m 368 300 q 367 279 367 292 q 381 244 367 256 q 426 233 396 233 l 500 233 l 458 0 l 361 0 l 353 -49 q 460 -78 413 -47 q 508 -176 508 -110 q 506 -210 508 -199 q 424 -335 490 -296 q 275 -374 357 -374 l 54 -374 l 79 -233 l 271 -233 q 308 -225 294 -233 q 324 -201 321 -217 q 282 -174 331 -174 l 172 -174 l 207 22 q 88 221 88 69 q 96 306 88 260 l 139 551 l 39 551 l 79 779 l 179 779 l 213 968 l 486 968 l 453 779 l 594 779 l 554 551 l 413 551 l 368 300 z "},"Ť":{"ha":831,"x_min":58,"x_max":896,"o":"m 896 983 l 857 765 l 593 765 l 458 0 l 186 0 l 319 765 l 58 765 l 96 983 l 896 983 m 747 1149 l 504 1031 l 301 1149 l 332 1326 l 535 1206 l 778 1326 l 747 1149 z "},"ť":{"ha":576,"x_min":24,"x_max":751,"o":"m 742 1210 q 751 1115 751 1161 q 746 1047 751 1079 q 665 899 728 954 q 497 843 603 843 l 515 943 q 599 997 589 943 l 604 1024 l 510 1024 l 543 1210 l 742 1210 m 438 779 l 579 779 l 539 551 l 397 551 l 353 300 q 351 281 351 293 q 365 244 351 256 q 411 233 379 233 l 486 233 l 443 0 l 332 0 q 72 221 72 0 q 81 306 72 260 l 125 551 l 24 551 l 64 779 l 165 779 l 199 968 l 471 968 l 438 779 z "},"Ũ":{"ha":983,"x_min":47,"x_max":1000,"o":"m 428 983 l 329 422 q 324 369 324 383 q 354 280 324 311 q 447 249 385 249 q 568 294 522 249 q 629 422 614 340 l 728 983 l 1000 983 l 901 422 q 803 186 876 283 q 624 40 729 89 q 396 -10 518 -10 q 141 74 235 -10 q 47 317 47 158 q 57 422 47 369 l 156 983 l 428 983 m 536 1278 q 593 1268 568 1278 q 649 1240 618 1258 q 687 1221 671 1228 q 719 1214 703 1214 q 793 1279 771 1214 l 928 1279 q 826 1108 888 1161 q 682 1056 764 1056 q 626 1065 650 1056 q 569 1092 603 1074 q 531 1112 546 1106 q 500 1118 517 1118 q 425 1053 449 1118 l 290 1053 q 393 1224 332 1171 q 536 1278 454 1278 z "},"ũ":{"ha":951,"x_min":50,"x_max":947,"o":"m 947 779 l 810 0 l 536 0 l 558 129 q 442 30 513 67 q 288 -7 372 -7 q 113 58 175 -7 q 50 240 50 124 q 58 328 50 282 l 139 779 l 410 779 l 336 361 q 333 326 333 349 q 362 247 333 275 q 442 218 390 218 q 545 257 503 218 q 600 367 588 296 l 600 360 l 674 779 l 947 779 m 494 1074 q 551 1064 526 1074 q 607 1036 576 1054 q 645 1017 629 1024 q 678 1010 661 1010 q 751 1075 729 1010 l 886 1075 q 784 904 846 957 q 640 851 722 851 q 585 860 608 851 q 528 888 561 869 q 490 908 504 901 q 458 914 475 914 q 383 849 407 914 l 249 849 q 351 1020 290 967 q 494 1074 413 1074 z "},"Ū":{"ha":983,"x_min":50,"x_max":1003,"o":"m 431 983 l 332 422 q 326 369 326 383 q 357 280 326 311 q 450 249 388 249 q 571 294 525 249 q 632 422 617 340 l 731 983 l 1003 983 l 904 422 q 806 186 879 283 q 626 40 732 89 q 399 -10 521 -10 q 144 74 238 -10 q 50 317 50 158 q 60 422 50 369 l 158 983 l 431 983 m 917 1257 l 885 1075 l 307 1075 l 339 1257 l 917 1257 z "},"ū":{"ha":951,"x_min":53,"x_max":950,"o":"m 950 779 l 813 0 l 539 0 l 561 129 q 445 30 515 67 q 290 -7 375 -7 q 115 58 178 -7 q 53 240 53 124 q 61 328 53 282 l 142 779 l 413 779 l 339 361 q 336 326 336 349 q 365 247 336 275 q 444 218 393 218 q 548 257 506 218 q 603 367 590 296 l 603 360 l 676 779 l 950 779 m 876 1053 l 844 871 l 267 871 l 299 1053 l 876 1053 z "},"Ŭ":{"ha":983,"x_min":44,"x_max":997,"o":"m 425 983 l 326 422 q 321 369 321 383 q 351 280 321 311 q 444 249 382 249 q 565 294 519 249 q 626 422 611 340 l 725 983 l 997 983 l 899 422 q 800 186 874 283 q 621 40 726 89 q 393 -10 515 -10 q 138 74 232 -10 q 44 317 44 158 q 54 422 44 369 l 153 983 l 425 983 m 581 1040 q 428 1092 485 1040 q 372 1242 372 1143 q 378 1306 372 1274 l 382 1326 l 510 1326 q 508 1307 508 1319 q 533 1253 508 1271 q 614 1236 557 1236 q 712 1259 679 1236 q 751 1326 744 1282 l 879 1326 l 875 1306 q 772 1109 853 1178 q 581 1040 692 1040 z "},"ŭ":{"ha":951,"x_min":46,"x_max":943,"o":"m 943 779 l 806 0 l 532 0 l 554 129 q 438 30 508 67 q 283 -7 368 -7 q 108 58 171 -7 q 46 240 46 124 q 54 328 46 282 l 135 779 l 406 779 l 332 361 q 329 326 329 349 q 358 247 329 275 q 438 218 386 218 q 541 257 499 218 q 596 367 583 296 l 596 360 l 669 779 l 943 779 m 539 836 q 387 888 443 836 q 331 1038 331 939 q 336 1101 331 1069 l 340 1122 l 468 1122 q 467 1103 467 1115 q 491 1049 467 1067 q 572 1032 515 1032 q 670 1055 638 1032 q 710 1122 703 1078 l 838 1122 l 833 1101 q 731 905 811 974 q 539 836 650 836 z "},"Ů":{"ha":983,"x_min":39,"x_max":992,"o":"m 419 983 l 321 422 q 315 369 315 383 q 346 280 315 311 q 439 249 376 249 q 560 294 514 249 q 621 422 606 340 l 719 983 l 992 983 l 893 422 q 794 186 868 283 q 615 40 721 89 q 388 -10 510 -10 q 133 74 226 -10 q 39 317 39 158 q 49 422 39 369 l 147 983 l 419 983 m 632 1383 q 738 1346 697 1383 q 779 1244 779 1308 q 750 1133 779 1182 q 672 1058 721 1085 q 569 1032 624 1032 q 463 1069 504 1032 q 422 1171 422 1107 q 451 1282 422 1233 q 529 1357 481 1331 q 632 1383 578 1383 m 613 1278 q 556 1254 579 1278 q 532 1192 532 1231 q 548 1152 532 1167 q 589 1138 564 1138 q 641 1157 618 1138 q 669 1208 664 1176 q 671 1222 671 1213 q 655 1263 671 1249 q 613 1278 639 1278 z "},"ů":{"ha":951,"x_min":42,"x_max":939,"o":"m 939 779 l 801 0 l 528 0 l 550 129 q 434 30 504 67 q 279 -7 364 -7 q 104 58 167 -7 q 42 240 42 124 q 50 328 42 282 l 131 779 l 401 779 l 328 361 q 325 326 325 349 q 353 247 325 275 q 433 218 382 218 q 537 257 494 218 q 592 367 579 296 l 592 360 l 665 779 l 939 779 m 590 1179 q 697 1142 656 1179 q 738 1040 738 1104 q 708 929 738 978 q 631 854 679 881 q 528 828 582 828 q 422 865 463 828 q 381 967 381 903 q 410 1078 381 1029 q 488 1153 439 1126 q 590 1179 536 1179 m 571 1074 q 514 1050 538 1074 q 490 988 490 1026 q 506 948 490 963 q 547 933 522 933 q 599 953 576 933 q 628 1004 622 972 q 629 1018 629 1008 q 613 1059 629 1044 q 571 1074 597 1074 z "},"Ű":{"ha":983,"x_min":40,"x_max":993,"o":"m 421 983 l 322 422 q 317 369 317 383 q 347 280 317 311 q 440 249 378 249 q 561 294 515 249 q 622 422 607 340 l 721 983 l 993 983 l 894 422 q 796 186 869 283 q 617 40 722 89 q 389 -10 511 -10 q 134 74 228 -10 q 40 317 40 158 q 50 422 40 369 l 149 983 l 421 983 m 428 1039 l 263 1039 l 428 1354 l 636 1354 l 428 1039 m 715 1039 l 550 1039 l 746 1354 l 954 1354 l 715 1039 z "},"ű":{"ha":951,"x_min":44,"x_max":942,"o":"m 942 779 l 804 0 l 531 0 l 553 129 q 437 30 507 67 q 282 -7 367 -7 q 107 58 169 -7 q 44 240 44 124 q 53 328 44 282 l 133 779 l 404 779 l 331 361 q 328 326 328 349 q 356 247 328 275 q 436 218 385 218 q 540 257 497 218 q 594 367 582 296 l 594 360 l 668 779 l 942 779 m 388 835 l 222 835 l 388 1150 l 596 1150 l 388 835 m 675 835 l 510 835 l 706 1150 l 914 1150 l 675 835 z "},"Ų":{"ha":983,"x_min":50,"x_max":1001,"o":"m 431 983 l 331 422 q 326 371 326 396 q 449 249 326 249 q 569 294 524 249 q 631 422 615 339 l 729 983 l 1001 983 l 901 422 q 826 224 882 310 q 692 84 769 138 q 533 11 615 31 q 487 -7 500 3 q 471 -32 474 -17 q 479 -54 468 -46 q 515 -62 490 -62 l 689 -62 l 664 -203 l 438 -203 q 330 -167 375 -203 q 285 -65 285 -132 q 288 -31 285 -43 q 301 0 290 -12 q 119 110 188 26 q 50 328 50 194 q 58 422 50 372 l 158 983 l 431 983 z "},"ų":{"ha":951,"x_min":35,"x_max":932,"o":"m 932 779 l 794 0 l 521 0 l 543 129 q 427 30 497 67 q 272 -7 357 -7 q 97 58 160 -7 q 35 240 35 124 q 43 328 35 282 l 124 779 l 394 779 l 321 361 q 318 326 318 349 q 347 247 318 275 q 426 218 375 218 q 530 257 488 218 q 585 367 572 296 l 585 360 l 658 779 l 932 779 m 800 31 l 778 -94 l 651 -94 q 612 -103 626 -94 q 597 -129 597 -112 q 608 -151 597 -143 q 639 -158 619 -158 l 828 -158 l 803 -299 l 586 -299 q 463 -267 514 -299 q 411 -165 411 -235 q 414 -132 411 -144 q 492 -9 429 -49 q 622 31 554 31 l 800 31 z "},"Ŵ":{"ha":1494,"x_min":124,"x_max":1532,"o":"m 1532 983 l 1131 0 l 792 0 l 761 607 l 519 0 l 181 0 l 124 983 l 418 983 l 408 314 l 678 983 l 976 983 l 1011 314 l 1238 983 l 1532 983 m 857 1153 l 613 1032 l 644 1210 l 888 1328 l 1089 1210 l 1058 1032 l 857 1153 z "},"ŵ":{"ha":1238,"x_min":56,"x_max":1290,"o":"m 1290 779 l 960 0 l 653 0 l 621 482 l 415 0 l 108 0 l 56 779 l 326 779 l 319 258 l 533 779 l 825 779 l 860 254 l 1038 779 l 1290 779 m 707 949 l 463 828 l 494 1006 l 738 1124 l 939 1006 l 908 828 l 707 949 z "},"Ŷ":{"ha":978,"x_min":86,"x_max":1053,"o":"m 1053 983 l 588 313 l 533 0 l 261 0 l 314 313 l 86 983 l 399 983 l 506 608 l 744 983 l 1053 983 m 599 1153 l 354 1032 l 386 1210 l 629 1328 l 831 1210 l 800 1032 l 599 1153 z "},"ŷ":{"ha":911,"x_min":-28,"x_max":968,"o":"m 344 779 l 435 343 l 667 779 l 968 779 l 272 -372 l -28 -372 l 235 33 l 42 779 l 344 779 m 535 949 l 290 828 l 322 1006 l 565 1124 l 767 1006 l 736 828 l 535 949 z "},"Ÿ":{"ha":978,"x_min":89,"x_max":1056,"o":"m 1056 983 l 590 313 l 536 0 l 264 0 l 317 313 l 89 983 l 401 983 l 508 608 l 747 983 l 1056 983 m 346 1153 q 385 1247 346 1208 q 476 1286 424 1286 q 544 1261 518 1286 q 569 1196 569 1236 q 530 1105 569 1143 q 438 1067 490 1067 q 372 1091 397 1067 q 346 1153 346 1115 m 644 1175 q 690 1255 654 1224 q 772 1286 726 1286 q 840 1261 814 1286 q 865 1196 865 1236 q 826 1105 865 1143 q 735 1067 788 1067 q 669 1092 694 1067 q 643 1156 643 1117 q 644 1175 643 1168 z "},"Ź":{"ha":850,"x_min":-31,"x_max":857,"o":"m 311 218 l 725 218 l 686 0 l -31 0 l 6 207 l 511 765 l 106 765 l 144 983 l 857 983 l 821 776 l 311 218 m 719 1175 l 347 1038 l 379 1221 l 756 1378 l 719 1175 z "},"ź":{"ha":700,"x_min":-36,"x_max":731,"o":"m 304 226 l 647 226 l 606 0 l -36 0 l 3 215 l 378 553 l 68 553 l 108 779 l 731 779 l 692 565 l 304 226 m 599 971 l 226 833 l 258 1017 l 635 1174 l 599 971 z "},"Ż":{"ha":849,"x_min":-22,"x_max":865,"o":"m 319 218 l 733 218 l 694 0 l -22 0 l 14 207 l 519 765 l 114 765 l 153 983 l 865 983 l 829 776 l 319 218 m 429 1153 q 469 1247 429 1208 q 560 1286 508 1286 q 627 1261 601 1286 q 653 1196 653 1236 q 613 1105 653 1143 q 521 1067 574 1067 q 455 1091 481 1067 q 429 1153 429 1115 z "},"ż":{"ha":700,"x_min":-40,"x_max":726,"o":"m 300 226 l 643 226 l 601 0 l -40 0 l -1 215 l 374 553 l 64 553 l 104 779 l 726 779 l 688 565 l 300 226 m 310 949 q 349 1043 310 1004 q 440 1082 389 1082 q 508 1057 482 1082 q 533 992 533 1032 q 494 901 533 939 q 401 863 454 863 q 335 887 361 863 q 310 949 310 911 z "},"Ž":{"ha":850,"x_min":-25,"x_max":863,"o":"m 317 218 l 731 218 l 692 0 l -25 0 l 11 207 l 517 765 l 111 765 l 150 983 l 863 983 l 826 776 l 317 218 m 757 1149 l 514 1031 l 311 1149 l 342 1326 l 544 1206 l 788 1326 l 757 1149 z "},"ž":{"ha":701,"x_min":-31,"x_max":736,"o":"m 310 226 l 653 226 l 611 0 l -31 0 l 8 215 l 383 553 l 74 553 l 114 779 l 736 779 l 697 565 l 310 226 m 663 944 l 419 826 l 217 944 l 247 1122 l 450 1001 l 693 1122 l 663 944 z "},"ƒ":{"ha":471,"x_min":-221,"x_max":650,"o":"m 586 861 q 512 847 539 861 q 475 797 485 832 l 469 779 l 574 779 l 510 551 l 406 551 l 215 -125 q 72 -339 172 -278 q -175 -400 -29 -400 l -221 -400 l -158 -167 l -107 -167 q -58 -125 -71 -167 l 135 551 l 69 551 l 132 779 l 199 779 l 204 797 q 356 1023 247 951 q 650 1094 465 1094 l 586 861 z "},"Ǽ":{"ha":1343,"x_min":-96,"x_max":1368,"o":"m 982 765 l 954 606 l 1261 606 l 1225 400 l 918 400 l 886 218 l 1235 218 l 1196 0 l 575 0 l 601 151 l 301 151 l 201 0 l -96 0 l 564 983 l 1368 983 l 1331 765 l 982 765 m 638 358 l 710 768 l 439 358 l 638 358 m 1194 1175 l 822 1038 l 854 1221 l 1231 1378 l 1194 1175 z "},"ǽ":{"ha":1478,"x_min":31,"x_max":1460,"o":"m 1188 789 q 1387 712 1314 789 q 1460 500 1460 635 q 1451 404 1460 454 q 1433 340 1444 369 l 874 340 q 989 206 864 206 q 1074 225 1039 206 q 1125 279 1108 244 l 1415 279 q 1267 71 1367 151 q 1046 -10 1168 -10 q 901 26 958 -10 q 826 124 844 61 l 804 0 l 532 0 l 554 124 q 449 26 515 61 q 299 -10 382 -10 q 104 70 178 -10 q 31 289 31 150 q 40 390 31 340 q 122 603 63 513 q 264 741 181 693 q 440 789 347 789 q 576 753 522 789 q 647 656 629 718 l 671 779 l 942 779 l 919 656 q 1028 754 960 719 q 1188 789 1097 789 m 1183 454 q 1186 481 1186 474 q 1151 551 1186 528 q 1061 575 1115 575 q 894 454 933 575 l 1183 454 m 601 390 q 606 429 606 411 q 573 518 606 486 q 488 550 540 550 q 378 508 425 550 q 317 390 331 465 q 313 350 313 369 q 344 260 313 292 q 431 229 376 229 q 541 272 493 229 q 601 390 589 315 m 1013 971 l 640 833 l 672 1017 l 1049 1174 l 1013 971 z "},"Ș":{"ha":854,"x_min":19,"x_max":829,"o":"m 774 246 q 712 117 761 175 q 580 24 663 58 q 392 -10 497 -10 q 119 74 217 -10 q 19 306 21 158 l 310 306 q 328 228 304 253 q 396 204 353 204 q 453 222 431 204 q 482 272 476 240 q 483 288 483 278 q 448 353 483 329 q 332 413 413 378 q 203 474 254 444 q 117 557 153 504 q 81 689 81 610 q 88 758 81 717 q 213 935 108 871 q 463 999 318 999 q 735 918 644 999 q 829 694 825 838 l 536 694 q 519 763 539 740 q 461 785 499 785 q 404 765 426 785 q 382 707 382 746 q 416 646 382 669 q 526 592 450 622 q 656 531 606 560 q 744 449 707 501 q 781 315 781 396 q 774 246 781 288 m 504 -53 q 514 -144 514 -96 q 507 -222 514 -181 q 424 -388 489 -325 q 254 -451 358 -451 l 272 -353 q 364 -253 346 -353 l 367 -237 l 274 -237 l 306 -53 l 504 -53 z "},"ș":{"ha":799,"x_min":24,"x_max":776,"o":"m 418 789 q 675 714 586 789 q 776 515 764 639 l 508 515 q 476 578 507 557 q 394 599 444 599 q 338 587 358 599 q 317 550 317 575 q 350 510 317 525 q 454 476 383 494 q 597 433 539 456 q 697 365 654 410 q 739 246 739 319 q 733 193 739 217 q 627 47 715 103 q 389 -10 539 -10 q 129 62 228 -10 q 24 264 31 133 l 292 264 q 322 201 288 222 q 411 179 356 179 q 488 224 478 179 q 460 271 493 254 q 350 306 426 288 q 209 349 264 328 q 113 414 154 369 q 72 532 72 458 q 78 583 72 547 q 181 731 93 674 q 418 789 268 789 m 450 -53 q 458 -140 458 -97 q 451 -222 458 -178 q 368 -387 433 -324 q 200 -451 303 -451 l 218 -353 q 310 -253 292 -353 l 313 -237 l 219 -237 l 251 -53 l 450 -53 z "},"Ț":{"ha":831,"x_min":60,"x_max":897,"o":"m 897 983 l 858 765 l 594 765 l 460 0 l 188 0 l 321 765 l 60 765 l 97 983 l 897 983 m 417 -53 q 426 -140 426 -93 q 418 -222 426 -183 q 335 -387 400 -324 q 167 -451 269 -451 l 185 -353 q 276 -253 258 -353 l 278 -237 l 186 -237 l 218 -53 l 417 -53 z "},"ț":{"ha":589,"x_min":46,"x_max":601,"o":"m 375 300 q 374 281 374 293 q 388 244 374 256 q 433 233 401 233 l 508 233 l 465 0 l 354 0 q 94 221 94 0 q 103 306 94 260 l 147 551 l 46 551 l 86 779 l 188 779 l 221 968 l 493 968 l 460 779 l 601 779 l 561 551 l 419 551 l 375 300 m 401 -53 q 410 -146 410 -101 q 404 -222 410 -189 q 321 -388 386 -325 q 151 -451 256 -451 l 169 -353 q 261 -253 243 -353 l 264 -237 l 171 -237 l 204 -53 l 401 -53 z "},"ʼ":{"ha":363,"x_min":51,"x_max":310,"o":"m 301 1193 q 310 1106 310 1150 q 301 1018 310 1060 q 219 853 283 917 q 51 790 154 790 l 68 889 q 160 988 143 889 l 164 1007 l 69 1007 l 101 1193 l 301 1193 z "},"ˆ":{"ha":483,"x_min":76,"x_max":553,"o":"m 321 949 l 76 828 l 108 1006 l 351 1124 l 553 1006 l 522 828 l 321 949 z "},"ˇ":{"ha":483,"x_min":97,"x_max":574,"o":"m 543 944 l 300 826 l 97 944 l 128 1122 l 331 1001 l 574 1122 l 543 944 z "},"ˉ":{"ha":615,"x_min":86,"x_max":696,"o":"m 696 1053 l 664 871 l 86 871 l 118 1053 l 696 1053 z "},"˘":{"ha":535,"x_min":118,"x_max":625,"o":"m 326 836 q 174 888 231 836 q 118 1038 118 939 q 124 1101 118 1069 l 128 1122 l 256 1122 q 254 1103 254 1115 q 278 1049 254 1067 q 360 1032 303 1032 q 458 1055 425 1032 q 497 1122 490 1078 l 625 1122 l 621 1101 q 518 905 599 974 q 326 836 438 836 z "},"˙":{"ha":260,"x_min":101,"x_max":325,"o":"m 101 949 q 141 1043 101 1004 q 232 1082 181 1082 q 299 1057 274 1082 q 325 992 325 1032 q 285 901 325 939 q 193 863 246 863 q 127 887 153 863 q 101 949 101 911 z "},"˚":{"ha":389,"x_min":100,"x_max":457,"o":"m 310 1179 q 416 1142 375 1179 q 457 1040 457 1104 q 428 929 457 978 q 350 854 399 881 q 247 828 301 828 q 141 865 182 828 q 100 967 100 903 q 129 1078 100 1029 q 207 1153 158 1126 q 310 1179 256 1179 m 290 1074 q 233 1050 257 1074 q 210 988 210 1026 q 226 948 210 963 q 267 933 242 933 q 319 953 296 933 q 347 1004 342 972 q 349 1018 349 1008 q 333 1059 349 1044 q 290 1074 317 1074 z "},"˛":{"ha":432,"x_min":4,"x_max":421,"o":"m 393 24 l 371 -101 l 244 -101 q 205 -110 219 -101 q 190 -136 190 -119 q 201 -158 190 -150 q 232 -165 213 -165 l 421 -165 l 396 -306 l 179 -306 q 56 -274 107 -306 q 4 -172 4 -242 q 7 -139 4 -151 q 85 -16 22 -56 q 215 24 147 24 l 393 24 z "},"˜":{"ha":611,"x_min":69,"x_max":707,"o":"m 315 1074 q 372 1064 347 1074 q 428 1036 397 1054 q 466 1017 450 1024 q 499 1010 482 1010 q 572 1075 550 1010 l 707 1075 q 605 904 667 957 q 461 851 543 851 q 406 860 429 851 q 349 888 382 869 q 310 908 325 901 q 279 914 296 914 q 204 849 228 914 l 69 849 q 172 1020 111 967 q 315 1074 233 1074 z "},"˝":{"ha":672,"x_min":74,"x_max":765,"o":"m 239 835 l 74 835 l 239 1150 l 447 1150 l 239 835 m 526 835 l 361 835 l 557 1150 l 765 1150 l 526 835 z "},"π":{"ha":986,"x_min":49,"x_max":1038,"o":"m 1038 779 l 1000 575 l 906 575 l 806 0 l 532 0 l 633 575 l 422 575 l 322 0 l 49 0 l 150 575 l 56 575 l 93 779 l 1038 779 z "},"Ẁ":{"ha":1494,"x_min":119,"x_max":1528,"o":"m 1528 983 l 1126 0 l 788 0 l 757 607 l 515 0 l 176 0 l 119 983 l 414 983 l 404 314 l 674 983 l 972 983 l 1007 314 l 1233 983 l 1528 983 m 1015 1221 l 983 1038 l 661 1175 l 697 1378 l 1015 1221 z "},"ẁ":{"ha":1238,"x_min":51,"x_max":1286,"o":"m 1286 779 l 956 0 l 649 0 l 617 482 l 411 0 l 104 0 l 51 779 l 322 779 l 315 258 l 529 779 l 821 779 l 856 254 l 1033 779 l 1286 779 m 865 1017 l 833 833 l 511 971 l 547 1174 l 865 1017 z "},"Ẃ":{"ha":1494,"x_min":119,"x_max":1528,"o":"m 1528 983 l 1126 0 l 788 0 l 757 607 l 515 0 l 176 0 l 119 983 l 414 983 l 404 314 l 674 983 l 972 983 l 1007 314 l 1233 983 l 1528 983 m 1040 1175 l 668 1038 l 700 1221 l 1076 1378 l 1040 1175 z "},"ẃ":{"ha":1238,"x_min":51,"x_max":1286,"o":"m 1286 779 l 956 0 l 649 0 l 617 482 l 411 0 l 104 0 l 51 779 l 322 779 l 315 258 l 529 779 l 821 779 l 856 254 l 1033 779 l 1286 779 m 892 971 l 519 833 l 551 1017 l 928 1174 l 892 971 z "},"Ẅ":{"ha":1494,"x_min":128,"x_max":1536,"o":"m 1536 983 l 1135 0 l 796 0 l 765 607 l 524 0 l 185 0 l 128 983 l 422 983 l 413 314 l 682 983 l 981 983 l 1015 314 l 1242 983 l 1536 983 m 604 1153 q 643 1247 604 1208 q 735 1286 682 1286 q 802 1261 776 1286 q 828 1196 828 1236 q 788 1105 828 1143 q 696 1067 749 1067 q 630 1091 656 1067 q 604 1153 604 1115 m 903 1175 q 949 1255 913 1224 q 1031 1286 985 1286 q 1098 1261 1072 1286 q 1124 1196 1124 1236 q 1085 1105 1124 1143 q 993 1067 1046 1067 q 927 1092 953 1067 q 901 1156 901 1117 q 903 1175 901 1168 z "},"ẅ":{"ha":1238,"x_min":60,"x_max":1294,"o":"m 1294 779 l 964 0 l 657 0 l 625 482 l 419 0 l 113 0 l 60 779 l 331 779 l 324 258 l 538 779 l 829 779 l 864 254 l 1042 779 l 1294 779 m 456 949 q 494 1043 456 1004 q 586 1082 533 1082 q 653 1057 628 1082 q 679 992 679 1032 q 640 901 679 939 q 547 863 600 863 q 481 887 507 863 q 456 949 456 911 m 754 971 q 800 1051 764 1019 q 882 1082 836 1082 q 949 1057 924 1082 q 975 992 975 1032 q 936 901 975 939 q 844 863 897 863 q 778 888 804 863 q 753 951 753 913 q 754 971 753 964 z "},"Ẽ":{"ha":758,"x_min":-12,"x_max":828,"o":"m 396 765 l 367 603 l 686 603 l 649 396 l 331 396 l 300 218 l 660 218 l 621 0 l -12 0 l 160 983 l 793 983 l 756 765 l 396 765 m 436 1278 q 493 1268 468 1278 q 549 1240 518 1258 q 587 1221 571 1228 q 619 1214 603 1214 q 693 1279 671 1214 l 828 1279 q 726 1108 788 1161 q 582 1056 664 1056 q 526 1065 550 1056 q 469 1092 503 1074 q 431 1112 446 1106 q 400 1118 417 1118 q 325 1053 349 1118 l 190 1053 q 293 1224 232 1171 q 436 1278 354 1278 z "},"ẽ":{"ha":856,"x_min":31,"x_max":835,"o":"m 501 789 q 746 707 657 789 q 835 485 835 625 q 828 404 835 450 q 808 340 815 357 l 294 340 q 293 308 293 329 q 386 208 293 208 q 456 228 426 208 q 501 279 486 247 l 790 279 q 628 71 743 151 q 361 -10 513 -10 q 119 75 208 -10 q 31 308 31 160 q 39 403 31 353 q 126 608 60 521 q 289 742 192 696 q 501 789 386 789 m 560 454 q 563 485 563 465 q 535 552 563 529 q 464 575 507 575 q 371 544 410 575 q 315 454 332 514 l 560 454 m 442 1074 q 499 1064 474 1074 q 554 1036 524 1054 q 592 1017 576 1024 q 625 1010 608 1010 q 699 1075 676 1010 l 833 1075 q 731 904 793 957 q 588 851 669 851 q 532 860 556 851 q 475 888 508 869 q 437 908 451 901 q 406 914 422 914 q 331 849 354 914 l 196 849 q 299 1020 238 967 q 442 1074 360 1074 z "},"Ỳ":{"ha":978,"x_min":81,"x_max":1047,"o":"m 1047 983 l 582 313 l 528 0 l 256 0 l 308 313 l 81 983 l 393 983 l 500 608 l 739 983 l 1047 983 m 757 1221 l 725 1038 l 403 1175 l 439 1378 l 757 1221 z "},"ỳ":{"ha":910,"x_min":-33,"x_max":963,"o":"m 339 779 l 429 343 l 661 779 l 963 779 l 267 -372 l -33 -372 l 229 33 l 36 779 l 339 779 m 692 1017 l 660 833 l 338 971 l 374 1174 l 692 1017 z "},"Ỹ":{"ha":978,"x_min":90,"x_max":1057,"o":"m 1057 983 l 592 313 l 538 0 l 265 0 l 318 313 l 90 983 l 403 983 l 510 608 l 749 983 l 1057 983 m 533 1278 q 590 1268 565 1278 q 646 1240 615 1258 q 684 1221 668 1228 q 717 1214 700 1214 q 790 1279 768 1214 l 925 1279 q 823 1108 885 1161 q 679 1056 761 1056 q 624 1065 647 1056 q 567 1092 600 1074 q 528 1112 543 1106 q 497 1118 514 1118 q 422 1053 446 1118 l 288 1053 q 390 1224 329 1171 q 533 1278 451 1278 z "},"ỹ":{"ha":911,"x_min":-49,"x_max":947,"o":"m 324 779 l 414 343 l 646 779 l 947 779 l 251 -372 l -49 -372 l 214 33 l 21 779 l 324 779 m 446 1074 q 503 1064 478 1074 q 558 1036 528 1054 q 597 1017 581 1024 q 629 1010 613 1010 q 703 1075 681 1010 l 838 1075 q 735 904 797 957 q 592 851 674 851 q 536 860 560 851 q 479 888 513 869 q 441 908 456 901 q 410 914 426 914 q 335 849 358 914 l 200 849 q 303 1020 242 967 q 446 1074 364 1074 z "},"–":{"ha":931,"x_min":54,"x_max":876,"o":"m 876 594 l 838 368 l 54 368 l 93 594 l 876 594 z "},"—":{"ha":1271,"x_min":54,"x_max":1217,"o":"m 1217 594 l 1176 368 l 54 368 l 93 594 l 1217 594 z "},"‘":{"ha":363,"x_min":54,"x_max":314,"o":"m 64 790 q 54 886 54 835 q 61 965 54 924 q 144 1130 79 1067 q 314 1193 210 1193 l 297 1094 q 204 996 222 1094 l 201 978 l 296 978 l 263 790 l 64 790 z "},"’":{"ha":363,"x_min":51,"x_max":310,"o":"m 301 1193 q 310 1106 310 1150 q 301 1018 310 1060 q 219 853 283 917 q 51 790 154 790 l 68 889 q 160 988 143 889 l 164 1007 l 69 1007 l 101 1193 l 301 1193 z "},"‚":{"ha":360,"x_min":0,"x_max":281,"o":"m 258 165 q 281 39 281 106 q 251 -110 281 -39 q 160 -226 222 -181 q 3 -271 97 -271 l 19 -172 q 79 -156 58 -172 q 108 -90 100 -139 l 111 -75 l 0 -75 l 42 165 l 258 165 z "},"“":{"ha":651,"x_min":54,"x_max":600,"o":"m 64 790 q 54 886 54 835 q 61 965 54 924 q 144 1130 79 1067 q 314 1193 210 1193 l 297 1094 q 204 996 222 1094 l 201 978 l 296 978 l 263 790 l 64 790 m 350 790 q 342 878 342 835 q 350 965 342 924 q 432 1130 368 1067 q 600 1193 496 1193 l 583 1094 q 490 996 510 1094 l 489 978 l 583 978 l 550 790 l 350 790 z "},"”":{"ha":651,"x_min":51,"x_max":597,"o":"m 301 1193 q 310 1106 310 1150 q 301 1018 310 1060 q 219 853 283 917 q 51 790 154 790 l 68 889 q 160 988 143 889 l 164 1007 l 69 1007 l 101 1193 l 301 1193 m 588 1193 q 597 1100 597 1149 q 590 1018 597 1063 q 508 853 572 917 q 338 790 443 790 l 356 889 q 447 988 431 889 l 451 1007 l 357 1007 l 389 1193 l 588 1193 z "},"„":{"ha":651,"x_min":-4,"x_max":542,"o":"m 246 186 q 254 99 254 143 q 246 11 254 53 q 163 -153 228 -90 q -4 -217 99 -217 l 13 -118 q 104 -19 88 -118 l 108 0 l 14 0 l 46 186 l 246 186 m 532 186 q 542 93 542 142 q 535 11 542 56 q 452 -153 517 -90 q 282 -217 388 -217 l 300 -118 q 392 -19 375 -118 l 396 0 l 301 0 l 333 186 l 532 186 z "},"†":{"ha":946,"x_min":104,"x_max":951,"o":"m 915 574 l 622 593 l 479 -372 l 206 -372 l 403 593 l 104 574 l 140 779 l 432 761 l 467 1100 l 739 1100 l 653 761 l 951 779 l 915 574 z "},"‡":{"ha":944,"x_min":-7,"x_max":951,"o":"m 622 593 l 542 135 l 842 154 l 806 -53 l 511 -33 l 478 -372 l 204 -372 l 292 -33 l -7 -53 l 29 154 l 321 135 l 403 593 l 103 574 l 139 779 l 432 761 l 465 1100 l 738 1100 l 653 761 l 951 779 l 917 574 l 622 593 z "},"•":{"ha":696,"x_min":122,"x_max":574,"o":"m 122 422 q 160 552 122 492 q 258 649 197 613 q 388 685 319 685 q 522 634 471 685 q 574 504 574 583 q 537 374 574 435 q 438 278 500 314 q 308 243 376 243 q 174 294 226 243 q 122 422 122 344 z "},"…":{"ha":1050,"x_min":-11,"x_max":1007,"o":"m 660 267 l 613 0 l 336 0 l 385 267 l 660 267 m 1007 267 l 960 0 l 683 0 l 732 267 l 1007 267 m 313 267 l 265 0 l -11 0 l 38 267 l 313 267 z "},"‰":{"ha":1704,"x_min":74,"x_max":1632,"o":"m 363 1000 q 510 952 456 1000 q 565 813 565 904 q 560 757 565 796 q 461 579 539 642 q 278 517 383 517 q 129 564 185 517 q 74 700 74 611 q 79 757 74 729 q 177 937 100 874 q 363 1000 254 1000 m 1072 986 l 371 0 l 110 0 l 811 986 l 1072 986 m 258 757 q 256 732 256 738 q 268 691 256 706 q 304 676 281 676 q 354 697 333 676 q 382 757 375 718 q 383 781 383 765 q 332 840 383 840 q 285 819 304 840 q 258 757 265 797 m 906 471 q 1053 424 999 471 q 1108 288 1108 376 q 1103 229 1108 257 q 1006 49 1082 113 q 821 -14 929 -14 q 672 34 728 -14 q 617 174 617 82 q 622 229 617 190 q 721 408 643 346 q 906 471 799 471 m 1429 471 q 1577 424 1522 471 q 1632 286 1632 376 q 1626 229 1632 257 q 1528 49 1606 113 q 1344 -14 1451 -14 q 1195 34 1251 -14 q 1139 174 1139 82 q 1144 229 1139 190 q 1244 408 1165 346 q 1429 471 1322 471 m 800 229 q 797 204 797 210 q 810 161 797 176 q 847 146 824 146 q 903 175 881 146 q 926 256 926 204 q 914 297 926 282 q 878 311 901 311 q 828 290 849 311 q 800 229 807 268 m 1324 229 q 1321 204 1321 210 q 1333 161 1321 176 q 1369 146 1346 146 q 1427 175 1404 146 q 1450 256 1450 204 q 1437 297 1450 282 q 1400 311 1424 311 q 1351 290 1371 311 q 1324 229 1331 268 z "},"‹":{"ha":493,"x_min":63,"x_max":467,"o":"m 132 167 l 63 410 l 218 653 l 467 653 l 308 410 l 381 167 l 132 167 z "},"›":{"ha":493,"x_min":26,"x_max":431,"o":"m 186 410 l 113 653 l 363 653 l 431 410 l 276 167 l 26 167 l 186 410 z "},"⁄":{"ha":711,"x_min":-129,"x_max":835,"o":"m 835 986 l 133 0 l -129 0 l 572 986 l 835 986 z "},"€":{"ha":1106,"x_min":-6,"x_max":1081,"o":"m 538 244 q 658 278 603 244 q 749 369 714 311 l 1038 369 q 830 95 972 197 q 499 -7 688 -7 q 214 87 319 -7 q 96 340 108 181 l -6 340 l 17 464 l 100 464 l 104 493 l 110 522 l 28 522 l 49 647 l 150 647 q 358 900 219 807 q 674 993 496 993 q 891 947 800 993 q 1030 815 982 900 q 1081 617 1078 729 l 792 617 q 734 708 778 675 q 625 740 690 740 q 526 716 572 740 q 446 647 479 692 l 654 647 l 633 522 l 388 522 q 381 493 382 503 l 376 464 l 622 464 l 600 340 l 389 340 q 446 269 408 294 q 538 244 483 244 z "},"₺":{"ha":1129,"x_min":-7,"x_max":1133,"o":"m 1133 651 q 1015 273 1093 417 q 808 61 936 129 q 483 -7 679 -7 q 104 35 333 -7 l 158 346 l -7 321 l 22 481 l 186 506 l 199 572 l 33 546 l 60 701 l 225 729 l 271 988 l 549 988 l 511 775 l 685 804 l 657 644 l 483 617 l 471 550 l 651 578 l 622 417 l 443 389 l 419 258 q 526 249 472 249 q 707 303 640 249 q 804 441 774 357 q 857 651 835 525 l 1133 651 z "},"₽":{"ha":964,"x_min":-46,"x_max":971,"o":"m 653 983 q 890 919 810 983 q 971 742 971 854 q 965 679 971 707 q 832 459 942 542 q 546 376 722 376 l 411 376 l 399 303 l 585 303 l 549 99 l 363 99 l 346 0 l 72 0 l 89 99 l -46 99 l -10 303 l 125 303 l 138 376 l 3 376 l 40 583 l 175 583 l 244 983 l 653 983 m 689 681 q 690 700 690 688 q 668 756 690 735 q 600 778 646 778 l 482 778 l 449 583 l 567 583 q 651 609 619 583 q 689 681 682 635 z "},"ℓ":{"ha":421,"x_min":-15,"x_max":439,"o":"m 439 1028 l 258 0 l -15 0 l 165 1028 l 439 1028 z "},"™":{"ha":1271,"x_min":57,"x_max":1271,"o":"m 521 983 l 493 825 l 369 825 l 313 496 l 122 496 l 179 825 l 57 825 l 85 983 l 521 983 m 1271 983 l 1185 496 l 1010 496 l 1050 751 l 899 496 l 771 496 l 713 774 l 665 496 l 499 496 l 585 983 l 844 983 l 885 732 l 1033 983 l 1271 983 z "},"Ω":{"ha":1099,"x_min":-36,"x_max":1065,"o":"m 1057 532 q 994 347 1039 428 q 868 206 950 265 l 996 206 l 961 0 l 588 0 l 625 213 q 721 342 685 276 q 772 493 757 408 q 779 563 779 535 q 731 699 779 651 q 593 746 683 746 q 417 680 488 746 q 324 493 346 614 q 317 415 317 447 q 332 310 317 358 q 375 213 347 261 l 338 0 l -36 0 l 0 206 l 128 206 q 44 425 44 288 q 54 532 44 479 q 164 782 79 676 q 372 943 249 888 q 638 999 496 999 q 860 955 763 999 q 1011 827 957 911 q 1065 626 1065 743 q 1057 532 1065 582 z "},"℮":{"ha":1033,"x_min":31,"x_max":1006,"o":"m 440 -10 q 225 34 318 -10 q 81 162 132 78 q 31 364 31 246 q 40 469 31 417 q 143 739 67 619 q 338 927 219 858 q 606 996 457 996 q 825 946 735 996 q 960 811 915 896 q 1006 624 1006 726 q 997 536 1006 581 l 982 447 l 324 447 l 281 197 q 468 146 363 146 q 824 290 656 146 l 896 186 q 440 -10 679 -10 m 757 806 q 579 847 696 847 q 386 799 474 847 l 347 581 l 717 581 l 757 806 z "},"∂":{"ha":872,"x_min":8,"x_max":851,"o":"m 467 778 q 610 701 581 778 q 562 831 604 788 q 419 875 519 875 q 340 869 378 875 l 363 1003 q 544 1028 465 1028 q 774 943 696 1028 q 851 701 851 858 q 838 560 851 643 q 733 254 807 382 q 548 58 658 126 q 299 -10 438 -10 q 90 62 171 -10 q 8 271 8 133 q 17 358 8 313 q 106 580 40 485 q 267 726 172 675 q 467 778 361 778 m 456 551 q 351 499 392 551 q 294 360 310 447 q 290 317 290 338 q 311 249 290 271 q 365 228 332 228 q 467 283 428 228 q 525 436 507 339 q 528 469 528 449 q 508 531 528 511 q 456 551 489 551 z "},"∆":{"ha":1046,"x_min":-60,"x_max":968,"o":"m 721 983 l 968 207 l 931 0 l -60 0 l -22 207 l 500 983 l 721 983 m 260 207 l 686 207 l 556 674 l 260 207 z "},"∏":{"ha":1042,"x_min":31,"x_max":1106,"o":"m 1106 986 l 1069 782 l 975 782 l 838 0 l 564 0 l 701 782 l 442 782 l 304 0 l 31 0 l 168 782 l 74 782 l 111 986 l 1106 986 z "},"∑":{"ha":779,"x_min":-37,"x_max":825,"o":"m 789 776 l 382 776 l 656 582 l 619 376 l 251 138 l 676 138 l 639 -69 l -37 -69 l 19 249 l 371 472 l 92 665 l 149 983 l 825 983 l 789 776 z "},"−":{"ha":692,"x_min":24,"x_max":693,"o":"m 693 594 l 653 368 l 24 368 l 64 594 l 693 594 z "},"∕":{"ha":547,"x_min":-179,"x_max":735,"o":"m 735 1324 l 83 -268 l -179 -268 l 474 1324 l 735 1324 z "},"∙":{"ha":392,"x_min":39,"x_max":363,"o":"m 363 563 l 315 296 l 39 296 l 88 563 l 363 563 z "},"√":{"ha":1354,"x_min":-14,"x_max":1435,"o":"m 1435 1272 l 453 -57 l 325 -57 l 175 333 l 40 263 l -14 388 l 389 601 l 522 247 l 1281 1272 l 1435 1272 z "},"∞":{"ha":1126,"x_min":38,"x_max":1096,"o":"m 869 733 q 1038 683 979 732 q 1096 542 1096 633 q 1090 483 1096 511 q 1032 350 1076 407 q 923 263 988 293 q 788 233 858 233 q 638 265 699 233 q 529 350 576 296 q 408 265 476 296 q 267 233 340 233 q 97 283 157 233 q 38 425 38 333 q 43 482 38 456 q 101 615 57 558 q 210 703 146 672 q 344 733 274 733 q 495 699 438 733 q 594 606 553 665 q 720 699 649 664 q 869 733 792 733 m 313 410 q 381 425 346 410 q 446 471 415 440 q 394 535 418 514 q 339 557 371 557 q 277 532 301 557 q 253 465 253 507 q 269 424 253 439 q 313 410 285 410 m 881 499 q 864 542 881 526 q 819 557 847 557 q 742 538 782 557 q 671 482 703 519 q 724 428 696 447 q 793 410 753 410 q 855 435 829 410 q 881 499 881 460 z "},"∫":{"ha":419,"x_min":-226,"x_max":643,"o":"m 235 1046 q 377 1258 276 1197 q 622 1319 478 1319 l 643 1319 l 579 1086 l 553 1086 q 507 1046 521 1086 l 182 -125 q 40 -339 140 -278 q -206 -400 -61 -400 l -226 -400 l -162 -167 l -136 -167 q -108 -156 -118 -167 q -90 -125 -99 -146 l 235 1046 z "},"≈":{"ha":935,"x_min":-25,"x_max":971,"o":"m 335 467 q 418 453 382 467 q 501 413 454 439 q 557 383 535 393 q 603 374 579 374 q 664 397 640 374 q 703 469 688 419 l 907 469 q 758 215 851 297 q 546 133 664 133 q 465 147 499 133 q 382 188 431 160 q 327 217 350 207 q 279 226 304 226 q 218 203 242 226 q 178 131 194 181 l -25 131 q 126 385 33 303 q 335 467 218 467 m 399 832 q 482 818 446 832 q 565 778 518 804 q 621 749 599 758 q 667 739 643 739 q 728 762 704 739 q 767 835 751 785 l 971 835 q 822 581 915 663 q 610 499 728 499 q 528 512 563 499 q 446 553 494 525 q 391 582 414 572 q 343 592 368 592 q 282 569 306 592 q 242 496 258 546 l 39 496 q 190 750 97 668 q 399 832 282 832 z "},"≠":{"ha":858,"x_min":-35,"x_max":894,"o":"m 769 788 l 882 788 l 839 540 l 551 540 l 442 417 l 817 417 l 774 169 l 224 169 l 100 29 l -35 29 l 89 169 l -22 169 l 21 417 l 308 417 l 418 540 l 42 540 l 85 788 l 638 788 l 763 929 l 894 929 l 769 788 z "},"≤":{"ha":667,"x_min":-7,"x_max":706,"o":"m 396 529 l 618 276 l 282 276 l 58 529 l 371 783 l 706 783 l 396 529 m 31 168 l 600 168 l 563 -43 l -7 -43 l 31 168 z "},"≥":{"ha":667,"x_min":-42,"x_max":663,"o":"m 17 276 l 326 528 l 104 783 l 440 783 l 663 529 l 351 276 l 17 276 m -4 168 l 565 168 l 528 -43 l -42 -43 l -4 168 z "},"◊":{"ha":790,"x_min":21,"x_max":769,"o":"m 769 492 l 329 118 l 21 492 l 463 865 l 769 492 m 281 492 l 375 376 l 511 492 l 417 607 l 281 492 z "},"ﬁ":{"ha":951,"x_min":44,"x_max":983,"o":"m 579 860 q 554 861 571 861 q 488 842 511 861 q 454 779 465 824 l 924 779 l 788 0 l 514 0 l 610 551 l 414 551 l 317 0 l 44 0 l 140 551 l 53 551 l 93 779 l 181 779 q 308 1013 208 931 q 568 1094 408 1094 q 619 1092 583 1094 l 579 860 m 844 1099 q 947 1069 910 1099 q 983 989 983 1039 q 931 877 983 921 q 797 833 878 833 q 695 863 732 833 q 658 940 658 892 q 711 1053 658 1008 q 844 1099 764 1099 z "},"ﬂ":{"ha":951,"x_min":31,"x_max":974,"o":"m 583 860 q 556 861 574 861 q 481 842 507 861 q 443 779 454 824 l 569 779 l 529 551 l 401 551 l 304 0 l 31 0 l 128 551 l 40 551 l 79 779 l 168 779 q 299 1013 196 931 q 568 1094 403 1094 q 625 1092 586 1094 l 583 860 m 974 1028 l 793 0 l 519 0 l 700 1028 l 974 1028 z "}}}
